<?xml version="1.0" standalone="no"?>
<!DOCTYPE svg PUBLIC "-//W3C//DTD SVG 20010904//EN"
 "http://www.w3.org/TR/2001/REC-SVG-20010904/DTD/svg10.dtd">
<svg version="1.0" xmlns="http://www.w3.org/2000/svg"
 width="1920.000000pt" height="1080.000000pt" viewBox="0 0 1920.000000 1080.000000"
 preserveAspectRatio="xMidYMid meet">

<g transform="translate(0.000000,1080.000000) scale(0.100000,-0.100000)"
fill="#000000" stroke="none">
<path d="M256 10688 c-19 -26 -5 -48 30 -48 13 0 27 -7 32 -16 8 -14 10 -14
22 1 11 14 8 21 -20 50 -40 41 -44 42 -64 13z"/>
<path d="M1410 10630 l0 -80 80 0 80 0 0 80 0 80 -80 0 -80 0 0 -80z m84 59
c10 16 26 4 26 -19 0 -12 5 -17 13 -14 10 3 14 -4 15 -26 0 -23 -4 -30 -18
-30 -13 0 -17 -5 -14 -14 4 -11 -2 -14 -26 -14 -27 1 -31 4 -28 27 2 19 8 25
22 23 14 -3 17 1 12 13 -3 9 -6 21 -6 26 0 5 -7 9 -15 9 -16 0 -20 12 -8 23 4
4 10 2 14 -4 5 -8 8 -8 13 0z m-14 -39 c0 -6 -7 -13 -15 -16 -8 -4 -15 -12
-15 -20 0 -15 -12 -19 -23 -7 -4 3 -2 12 4 20 9 10 8 13 0 13 -7 0 -9 5 -6 10
8 13 55 13 55 0z"/>
<path d="M9892 10698 c-7 -7 -12 -37 -12 -68 0 -31 5 -61 12 -68 7 -7 37 -12
68 -12 31 0 61 5 68 12 7 7 12 37 12 68 0 31 -5 61 -12 68 -7 7 -37 12 -68 12
-31 0 -61 -5 -68 -12z m118 -28 c0 -5 -22 -10 -50 -10 -27 0 -50 5 -50 10 0 6
23 10 50 10 28 0 50 -4 50 -10z m0 -40 c0 -5 -22 -10 -50 -10 -27 0 -50 5 -50
10 0 6 23 10 50 10 28 0 50 -4 50 -10z m-40 -40 c0 -5 -13 -10 -30 -10 -16 0
-30 5 -30 10 0 6 14 10 30 10 17 0 30 -4 30 -10z"/>
<path d="M11092 10698 c-7 -7 -12 -37 -12 -68 0 -31 5 -61 12 -68 7 -7 37 -12
68 -12 31 0 61 5 68 12 16 16 16 120 0 136 -16 16 -120 16 -136 0z m118 -28
c0 -5 -22 -10 -50 -10 -27 0 -50 5 -50 10 0 6 23 10 50 10 28 0 50 -4 50 -10z
m0 -40 c0 -5 -22 -10 -50 -10 -27 0 -50 5 -50 10 0 6 23 10 50 10 28 0 50 -4
50 -10z m-40 -40 c0 -5 -13 -10 -30 -10 -16 0 -30 5 -30 10 0 6 14 10 30 10
17 0 30 -4 30 -10z"/>
<path d="M12292 10698 c-7 -7 -12 -37 -12 -68 0 -31 5 -61 12 -68 7 -7 37 -12
68 -12 31 0 61 5 68 12 16 16 16 120 0 136 -16 16 -120 16 -136 0z m118 -28
c0 -5 -22 -10 -50 -10 -27 0 -50 5 -50 10 0 6 23 10 50 10 28 0 50 -4 50 -10z
m0 -40 c0 -5 -22 -10 -50 -10 -27 0 -50 5 -50 10 0 6 23 10 50 10 28 0 50 -4
50 -10z m-40 -40 c0 -5 -13 -10 -30 -10 -16 0 -30 5 -30 10 0 6 14 10 30 10
17 0 30 -4 30 -10z"/>
<path d="M14692 10698 c-7 -7 -12 -37 -12 -68 0 -31 5 -61 12 -68 7 -7 37 -12
68 -12 31 0 61 5 68 12 16 16 16 120 0 136 -16 16 -120 16 -136 0z m118 -28
c0 -5 -22 -10 -50 -10 -27 0 -50 5 -50 10 0 6 23 10 50 10 28 0 50 -4 50 -10z
m0 -40 c0 -5 -22 -10 -50 -10 -27 0 -50 5 -50 10 0 6 23 10 50 10 28 0 50 -4
50 -10z m-40 -40 c0 -5 -13 -10 -30 -10 -16 0 -30 5 -30 10 0 6 14 10 30 10
17 0 30 -4 30 -10z"/>
<path d="M18473 10695 c-7 -8 -13 -30 -13 -50 0 -34 1 -35 36 -35 19 0 42 6
50 14 8 8 14 31 14 50 0 35 -1 36 -37 36 -21 -1 -44 -7 -50 -15z m76 -27 c-2
-30 -2 -30 -6 -6 -3 20 -11 28 -31 31 -24 4 -24 4 6 6 30 1 32 -1 31 -31z
m-19 -18 c0 -27 -3 -30 -30 -30 -27 0 -30 3 -30 30 0 27 3 30 30 30 27 0 30
-3 30 -30z"/>
<path d="M18939 10688 l24 -28 -24 -27 -24 -28 28 24 27 24 28 -24 27 -24 -24
28 -24 27 24 28 24 27 -27 -24 -28 -24 -27 24 -28 24 24 -27z"/>
<path d="M3860 10630 l0 -70 50 0 50 0 0 48 c0 56 -28 92 -73 92 -27 0 -27 -1
-27 -70z m50 40 c0 -13 7 -20 20 -20 17 0 20 -7 20 -40 l0 -40 -40 0 -40 0 0
60 c0 53 2 60 20 60 13 0 20 -7 20 -20z m25 0 c3 -5 1 -10 -4 -10 -6 0 -11 5
-11 10 0 6 2 10 4 10 3 0 8 -4 11 -10z"/>
<path d="M5070 10630 l0 -70 50 0 50 0 0 48 c0 56 -28 92 -73 92 -27 0 -27 -1
-27 -70z m50 40 c0 -13 7 -20 20 -20 17 0 20 -7 20 -40 l0 -40 -40 0 -40 0 0
60 c0 53 2 60 20 60 13 0 20 -7 20 -20z m25 0 c3 -5 1 -10 -4 -10 -6 0 -11 5
-11 10 0 6 2 10 4 10 3 0 8 -4 11 -10z"/>
<path d="M6280 10630 l0 -70 50 0 50 0 0 48 c0 56 -28 92 -73 92 -27 0 -27 -1
-27 -70z m50 40 c0 -13 7 -20 20 -20 17 0 20 -7 20 -40 l0 -40 -40 0 -40 0 0
60 c0 53 2 60 20 60 13 0 20 -7 20 -20z m25 0 c3 -5 1 -10 -4 -10 -6 0 -11 5
-11 10 0 6 2 10 4 10 3 0 8 -4 11 -10z"/>
<path d="M7490 10630 l0 -70 50 0 50 0 0 48 c0 56 -28 92 -73 92 -27 0 -27 -1
-27 -70z m50 40 c0 -13 7 -20 20 -20 17 0 20 -7 20 -40 l0 -40 -40 0 -40 0 0
60 c0 53 2 60 20 60 13 0 20 -7 20 -20z m25 0 c3 -5 1 -10 -4 -10 -6 0 -11 5
-11 10 0 6 2 10 4 10 3 0 8 -4 11 -10z"/>
<path d="M8700 10630 l0 -70 50 0 50 0 0 48 c0 56 -28 92 -73 92 -27 0 -27 -1
-27 -70z m50 40 c0 -13 7 -20 20 -20 17 0 20 -7 20 -40 l0 -40 -40 0 -40 0 0
60 c0 53 2 60 20 60 13 0 20 -7 20 -20z m25 0 c3 -5 1 -10 -4 -10 -6 0 -11 5
-11 10 0 6 2 10 4 10 3 0 8 -4 11 -10z"/>
<path d="M15910 10630 l0 -70 50 0 50 0 0 48 c0 56 -28 92 -73 92 -27 0 -27
-1 -27 -70z m50 40 c0 -13 7 -20 20 -20 17 0 20 -7 20 -40 l0 -40 -40 0 -40 0
0 60 c0 53 2 60 20 60 13 0 20 -7 20 -20z m25 0 c3 -5 1 -10 -4 -10 -6 0 -11
5 -11 10 0 6 2 10 4 10 3 0 8 -4 11 -10z"/>
<path d="M13511 10654 c-14 -24 -20 -46 -16 -61 5 -20 11 -23 59 -23 35 0 58
5 66 15 11 13 6 15 -34 15 -47 0 -54 7 -37 38 6 11 5 23 -4 35 -12 16 -14 15
-34 -19z"/>
<path d="M1663 10635 c0 -27 2 -38 4 -22 2 15 2 37 0 50 -2 12 -4 0 -4 -28z"/>
<path d="M1953 10635 c0 -27 2 -38 4 -22 2 15 2 37 0 50 -2 12 -4 0 -4 -28z"/>
<path d="M2870 10676 c0 -2 13 -6 29 -8 17 -2 28 -1 25 4 -5 8 -54 12 -54 4z"/>
<path d="M4098 10673 c7 -3 16 -2 19 1 4 3 -2 6 -13 5 -11 0 -14 -3 -6 -6z"/>
<path d="M5308 10673 c7 -3 16 -2 19 1 4 3 -2 6 -13 5 -11 0 -14 -3 -6 -6z"/>
<path d="M6518 10673 c7 -3 16 -2 19 1 4 3 -2 6 -13 5 -11 0 -14 -3 -6 -6z"/>
<path d="M7728 10673 c7 -3 16 -2 19 1 4 3 -2 6 -13 5 -11 0 -14 -3 -6 -6z"/>
<path d="M8938 10673 c7 -3 16 -2 19 1 4 3 -2 6 -13 5 -11 0 -14 -3 -6 -6z"/>
<path d="M10148 10673 c7 -3 16 -2 19 1 4 3 -2 6 -13 5 -11 0 -14 -3 -6 -6z"/>
<path d="M11348 10673 c7 -3 16 -2 19 1 4 3 -2 6 -13 5 -11 0 -14 -3 -6 -6z"/>
<path d="M12548 10673 c7 -3 16 -2 19 1 4 3 -2 6 -13 5 -11 0 -14 -3 -6 -6z"/>
<path d="M14948 10673 c7 -3 16 -2 19 1 4 3 -2 6 -13 5 -11 0 -14 -3 -6 -6z"/>
<path d="M16473 10635 c0 -27 2 -38 4 -22 2 15 2 37 0 50 -2 12 -4 0 -4 -28z"/>
<path d="M17180 10660 c0 -13 -7 -20 -20 -20 -11 0 -20 -4 -20 -10 0 -5 9 -10
20 -10 13 0 20 -7 20 -20 0 -11 5 -20 10 -20 6 0 10 9 10 20 0 13 7 20 20 20
11 0 20 5 20 10 0 6 -9 10 -20 10 -13 0 -20 7 -20 20 0 11 -4 20 -10 20 -5 0
-10 -9 -10 -20z"/>
<path d="M1114 10653 c19 -23 19 -23 0 -45 l-19 -23 23 19 c22 19 22 19 45 0
l22 -19 -19 23 c-19 22 -19 22 0 45 l19 22 -22 -19 c-23 -19 -23 -19 -45 0
l-23 19 19 -22z"/>
<path d="M2324 10653 c19 -23 19 -23 0 -45 l-19 -23 23 19 c22 19 22 19 45 0
l22 -19 -19 23 c-19 22 -19 22 0 45 l19 22 -22 -19 c-23 -19 -23 -19 -45 0
l-23 19 19 -22z"/>
<path d="M2661 10654 c0 -11 3 -14 6 -6 3 7 2 16 -1 19 -3 4 -6 -2 -5 -13z"/>
<path d="M3534 10653 c19 -23 19 -23 0 -45 l-19 -23 23 19 c22 19 22 19 45 0
l22 -19 -19 23 c-19 22 -19 22 0 45 l19 22 -22 -19 c-23 -19 -23 -19 -45 0
l-23 19 19 -22z"/>
<path d="M4744 10653 c19 -23 19 -23 0 -45 l-19 -23 23 19 c22 19 22 19 45 0
l22 -19 -19 23 c-19 22 -19 22 0 45 l19 22 -22 -19 c-23 -19 -23 -19 -45 0
l-23 19 19 -22z"/>
<path d="M5954 10653 c19 -23 19 -23 0 -45 l-19 -23 23 19 c22 19 22 19 45 0
l22 -19 -19 23 c-19 22 -19 22 0 45 l19 22 -22 -19 c-23 -19 -23 -19 -45 0
l-23 19 19 -22z"/>
<path d="M7164 10653 c19 -23 19 -23 0 -45 l-19 -23 23 19 c22 19 22 19 45 0
l22 -19 -19 23 c-19 22 -19 22 0 45 l19 22 -22 -19 c-23 -19 -23 -19 -45 0
l-23 19 19 -22z"/>
<path d="M8374 10653 c19 -23 19 -23 0 -45 l-19 -23 23 19 c22 19 22 19 45 0
l22 -19 -19 23 c-19 22 -19 22 0 45 l19 22 -22 -19 c-23 -19 -23 -19 -45 0
l-23 19 19 -22z"/>
<path d="M9584 10653 c19 -23 19 -23 0 -45 l-19 -23 23 19 c22 19 22 19 45 0
l22 -19 -19 23 c-19 22 -19 22 0 45 l19 22 -22 -19 c-23 -19 -23 -19 -45 0
l-23 19 19 -22z"/>
<path d="M10784 10653 c19 -23 19 -23 0 -45 l-19 -23 23 19 c22 19 22 19 45 0
l22 -19 -19 23 c-19 22 -19 22 0 45 l19 22 -22 -19 c-23 -19 -23 -19 -45 0
l-23 19 19 -22z"/>
<path d="M11984 10653 c19 -23 19 -23 0 -45 l-19 -23 23 19 c22 19 22 19 45 0
l22 -19 -19 23 c-19 22 -19 22 0 45 l19 22 -22 -19 c-23 -19 -23 -19 -45 0
l-23 19 19 -22z"/>
<path d="M13184 10653 c19 -23 19 -23 0 -45 l-19 -23 23 19 c22 19 22 19 45 0
l22 -19 -19 23 c-19 22 -19 22 0 45 l19 22 -22 -19 c-23 -19 -23 -19 -45 0
l-23 19 19 -22z"/>
<path d="M13889 10659 c-2 -24 2 -54 10 -61 3 -4 6 9 5 28 -2 35 -13 60 -15
33z"/>
<path d="M14384 10653 c19 -23 19 -23 0 -45 l-19 -23 23 19 c22 19 22 19 45 0
l22 -19 -19 23 c-19 22 -19 22 0 45 l19 22 -22 -19 c-23 -19 -23 -19 -45 0
l-23 19 19 -22z"/>
<path d="M15584 10653 c19 -23 19 -23 0 -45 l-19 -23 23 19 c22 19 22 19 45 0
l22 -19 -19 23 c-19 22 -19 22 0 45 l19 22 -22 -19 c-23 -19 -23 -19 -45 0
l-23 19 19 -22z"/>
<path d="M16784 10653 c19 -23 19 -23 0 -45 l-19 -23 23 19 c22 19 22 19 45 0
l22 -19 -19 23 c-19 22 -19 22 0 45 l19 22 -22 -19 c-23 -19 -23 -19 -45 0
l-23 19 19 -22z"/>
<path d="M18023 10653 c15 -2 39 -2 55 0 15 2 2 4 -28 4 -30 0 -43 -2 -27 -4z"/>
<path d="M222 10638 c-18 -18 -15 -23 24 -53 32 -25 37 -26 51 -12 21 21 9 47
-21 47 -14 0 -29 7 -33 15 -7 12 -12 12 -21 3z"/>
<path d="M457 10643 c-3 -5 5 -8 18 -8 13 0 21 3 18 8 -2 4 -10 7 -18 7 -8 0
-16 -3 -18 -7z"/>
<path d="M522 10620 c0 -19 2 -27 5 -17 2 9 2 25 0 35 -3 9 -5 1 -5 -18z"/>
<path d="M597 10643 c-14 -14 -6 -23 21 -22 27 2 27 2 2 7 -23 4 -24 5 -5 13
14 5 16 8 4 8 -9 1 -19 -2 -22 -6z"/>
<path d="M728 10643 c7 -3 16 -2 19 1 4 3 -2 6 -13 5 -11 0 -14 -3 -6 -6z"/>
<path d="M778 10643 c7 -3 16 -2 19 1 4 3 -2 6 -13 5 -11 0 -14 -3 -6 -6z"/>
<path d="M1693 10626 c1 -17 9 -31 17 -33 10 -3 11 -2 4 4 -7 4 -14 19 -17 33
-4 22 -5 21 -4 -4z"/>
<path d="M1732 10620 c0 -19 2 -27 5 -17 2 9 2 25 0 35 -3 9 -5 1 -5 -18z"/>
<path d="M1762 10620 c0 -19 2 -27 5 -17 2 9 2 25 0 35 -3 9 -5 1 -5 -18z"/>
<path d="M1798 10643 c7 -3 16 -2 19 1 4 3 -2 6 -13 5 -11 0 -14 -3 -6 -6z"/>
<path d="M1848 10643 c7 -3 16 -2 19 1 4 3 -2 6 -13 5 -11 0 -14 -3 -6 -6z"/>
<path d="M1904 10643 c15 -4 16 -7 5 -14 -11 -7 -10 -9 4 -9 24 0 16 24 -9 27
-18 2 -18 2 0 -4z"/>
<path d="M1994 10643 c15 -4 16 -7 5 -14 -11 -7 -10 -9 4 -9 24 0 16 24 -9 27
-18 2 -18 2 0 -4z"/>
<path d="M2048 10643 c6 -2 18 -2 25 0 6 3 1 5 -13 5 -14 0 -19 -2 -12 -5z"/>
<path d="M2966 10641 c-3 -5 3 -7 14 -4 16 4 20 0 20 -17 0 -17 -4 -21 -20
-17 -11 3 -20 1 -20 -5 0 -5 10 -8 23 -6 16 2 22 10 22 28 0 25 -27 40 -39 21z"/>
<path d="M3035 10640 c-2 -4 11 -6 30 -4 29 2 34 -1 38 -22 4 -21 4 -21 3 3
-1 24 -5 28 -34 29 -18 1 -34 -2 -37 -6z"/>
<path d="M3143 10644 c18 -6 18 -6 0 -19 -17 -13 -16 -14 5 -8 27 7 24 27 -4
30 -17 2 -17 1 -1 -3z"/>
<path d="M3192 10620 c0 -19 2 -27 5 -17 2 9 2 25 0 35 -3 9 -5 1 -5 -18z"/>
<path d="M3222 10620 c0 -19 2 -27 5 -17 2 9 2 25 0 35 -3 9 -5 1 -5 -18z"/>
<path d="M4148 10643 c7 -3 16 -2 19 1 4 3 -2 6 -13 5 -11 0 -14 -3 -6 -6z"/>
<path d="M4258 10643 c7 -3 16 -2 19 1 4 3 -2 6 -13 5 -11 0 -14 -3 -6 -6z"/>
<path d="M4362 10620 c0 -19 2 -27 5 -17 2 9 2 25 0 35 -3 9 -5 1 -5 -18z"/>
<path d="M4418 10643 c7 -3 16 -2 19 1 4 3 -2 6 -13 5 -11 0 -14 -3 -6 -6z"/>
<path d="M5358 10643 c7 -3 16 -2 19 1 4 3 -2 6 -13 5 -11 0 -14 -3 -6 -6z"/>
<path d="M5468 10643 c7 -3 16 -2 19 1 4 3 -2 6 -13 5 -11 0 -14 -3 -6 -6z"/>
<path d="M5572 10620 c0 -19 2 -27 5 -17 2 9 2 25 0 35 -3 9 -5 1 -5 -18z"/>
<path d="M5628 10643 c7 -3 16 -2 19 1 4 3 -2 6 -13 5 -11 0 -14 -3 -6 -6z"/>
<path d="M6568 10643 c7 -3 16 -2 19 1 4 3 -2 6 -13 5 -11 0 -14 -3 -6 -6z"/>
<path d="M6678 10643 c7 -3 16 -2 19 1 4 3 -2 6 -13 5 -11 0 -14 -3 -6 -6z"/>
<path d="M6782 10620 c0 -19 2 -27 5 -17 2 9 2 25 0 35 -3 9 -5 1 -5 -18z"/>
<path d="M6838 10643 c7 -3 16 -2 19 1 4 3 -2 6 -13 5 -11 0 -14 -3 -6 -6z"/>
<path d="M7778 10643 c7 -3 16 -2 19 1 4 3 -2 6 -13 5 -11 0 -14 -3 -6 -6z"/>
<path d="M7888 10643 c7 -3 16 -2 19 1 4 3 -2 6 -13 5 -11 0 -14 -3 -6 -6z"/>
<path d="M7992 10620 c0 -19 2 -27 5 -17 2 9 2 25 0 35 -3 9 -5 1 -5 -18z"/>
<path d="M8048 10643 c7 -3 16 -2 19 1 4 3 -2 6 -13 5 -11 0 -14 -3 -6 -6z"/>
<path d="M8988 10643 c7 -3 16 -2 19 1 4 3 -2 6 -13 5 -11 0 -14 -3 -6 -6z"/>
<path d="M9098 10643 c7 -3 16 -2 19 1 4 3 -2 6 -13 5 -11 0 -14 -3 -6 -6z"/>
<path d="M9202 10620 c0 -19 2 -27 5 -17 2 9 2 25 0 35 -3 9 -5 1 -5 -18z"/>
<path d="M9258 10643 c7 -3 16 -2 19 1 4 3 -2 6 -13 5 -11 0 -14 -3 -6 -6z"/>
<path d="M10198 10643 c7 -3 16 -2 19 1 4 3 -2 6 -13 5 -11 0 -14 -3 -6 -6z"/>
<path d="M10308 10643 c7 -3 16 -2 19 1 4 3 -2 6 -13 5 -11 0 -14 -3 -6 -6z"/>
<path d="M10412 10620 c0 -19 2 -27 5 -17 2 9 2 25 0 35 -3 9 -5 1 -5 -18z"/>
<path d="M10468 10643 c7 -3 16 -2 19 1 4 3 -2 6 -13 5 -11 0 -14 -3 -6 -6z"/>
<path d="M11398 10643 c7 -3 16 -2 19 1 4 3 -2 6 -13 5 -11 0 -14 -3 -6 -6z"/>
<path d="M11508 10643 c7 -3 16 -2 19 1 4 3 -2 6 -13 5 -11 0 -14 -3 -6 -6z"/>
<path d="M11612 10620 c0 -19 2 -27 5 -17 2 9 2 25 0 35 -3 9 -5 1 -5 -18z"/>
<path d="M11668 10643 c7 -3 16 -2 19 1 4 3 -2 6 -13 5 -11 0 -14 -3 -6 -6z"/>
<path d="M12598 10643 c7 -3 16 -2 19 1 4 3 -2 6 -13 5 -11 0 -14 -3 -6 -6z"/>
<path d="M12708 10643 c7 -3 16 -2 19 1 4 3 -2 6 -13 5 -11 0 -14 -3 -6 -6z"/>
<path d="M12812 10620 c0 -19 2 -27 5 -17 2 9 2 25 0 35 -3 9 -5 1 -5 -18z"/>
<path d="M12868 10643 c7 -3 16 -2 19 1 4 3 -2 6 -13 5 -11 0 -14 -3 -6 -6z"/>
<path d="M13784 10643 c15 -4 16 -7 5 -14 -11 -7 -10 -9 4 -9 24 0 16 24 -9
27 -18 2 -18 2 0 -4z"/>
<path d="M13836 10641 c-4 -5 3 -7 14 -4 23 6 26 13 6 13 -8 0 -17 -4 -20 -9z"/>
<path d="M14048 10643 c7 -3 16 -2 19 1 4 3 -2 6 -13 5 -11 0 -14 -3 -6 -6z"/>
<path d="M14998 10643 c7 -3 16 -2 19 1 4 3 -2 6 -13 5 -11 0 -14 -3 -6 -6z"/>
<path d="M15108 10643 c7 -3 16 -2 19 1 4 3 -2 6 -13 5 -11 0 -14 -3 -6 -6z"/>
<path d="M15212 10620 c0 -19 2 -27 5 -17 2 9 2 25 0 35 -3 9 -5 1 -5 -18z"/>
<path d="M15268 10643 c7 -3 16 -2 19 1 4 3 -2 6 -13 5 -11 0 -14 -3 -6 -6z"/>
<path d="M16204 10643 c15 -4 16 -7 5 -14 -11 -7 -10 -9 4 -9 24 0 16 24 -9
27 -18 2 -18 2 0 -4z"/>
<path d="M16252 10620 c0 -19 2 -27 5 -17 2 9 2 25 0 35 -3 9 -5 1 -5 -18z"/>
<path d="M16428 10643 c7 -3 16 -2 19 1 4 3 -2 6 -13 5 -11 0 -14 -3 -6 -6z"/>
<path d="M2680 10630 c0 -6 11 -10 25 -10 14 0 27 0 30 0 3 0 5 3 5 7 0 5 -13
9 -30 10 -16 2 -30 -2 -30 -7z"/>
<path d="M4098 10633 c7 -3 16 -2 19 1 4 3 -2 6 -13 5 -11 0 -14 -3 -6 -6z"/>
<path d="M5308 10633 c7 -3 16 -2 19 1 4 3 -2 6 -13 5 -11 0 -14 -3 -6 -6z"/>
<path d="M6518 10633 c7 -3 16 -2 19 1 4 3 -2 6 -13 5 -11 0 -14 -3 -6 -6z"/>
<path d="M7728 10633 c7 -3 16 -2 19 1 4 3 -2 6 -13 5 -11 0 -14 -3 -6 -6z"/>
<path d="M8938 10633 c7 -3 16 -2 19 1 4 3 -2 6 -13 5 -11 0 -14 -3 -6 -6z"/>
<path d="M10148 10633 c7 -3 16 -2 19 1 4 3 -2 6 -13 5 -11 0 -14 -3 -6 -6z"/>
<path d="M11348 10633 c7 -3 16 -2 19 1 4 3 -2 6 -13 5 -11 0 -14 -3 -6 -6z"/>
<path d="M12548 10633 c7 -3 16 -2 19 1 4 3 -2 6 -13 5 -11 0 -14 -3 -6 -6z"/>
<path d="M14948 10633 c7 -3 16 -2 19 1 4 3 -2 6 -13 5 -11 0 -14 -3 -6 -6z"/>
<path d="M765 10620 c-8 -13 3 -30 18 -29 9 0 9 2 0 6 -18 7 -16 21 5 26 15 4
15 5 0 6 -9 0 -20 -3 -23 -9z"/>
<path d="M1797 10619 c7 -7 15 -10 18 -7 3 3 -2 9 -12 12 -14 6 -15 5 -6 -5z"/>
<path d="M3262 10610 c0 -14 2 -19 5 -12 2 6 2 18 0 25 -3 6 -5 1 -5 -13z"/>
<path d="M4156 10622 c6 -4 14 -14 17 -22 4 -10 6 -8 6 8 1 15 -5 22 -16 22
-11 0 -14 -3 -7 -8z"/>
<path d="M4405 10620 c-8 -13 3 -30 18 -29 9 0 9 2 0 6 -18 7 -16 21 5 26 15
4 15 5 0 6 -9 0 -20 -3 -23 -9z"/>
<path d="M5366 10622 c6 -4 14 -14 17 -22 4 -10 6 -8 6 8 1 15 -5 22 -16 22
-11 0 -14 -3 -7 -8z"/>
<path d="M5615 10620 c-8 -13 3 -30 18 -29 9 0 9 2 0 6 -18 7 -16 21 5 26 15
4 15 5 0 6 -9 0 -20 -3 -23 -9z"/>
<path d="M6576 10622 c6 -4 14 -14 17 -22 4 -10 6 -8 6 8 1 15 -5 22 -16 22
-11 0 -14 -3 -7 -8z"/>
<path d="M6825 10620 c-8 -13 3 -30 18 -29 9 0 9 2 0 6 -18 7 -16 21 5 26 15
4 15 5 0 6 -9 0 -20 -3 -23 -9z"/>
<path d="M7786 10622 c6 -4 14 -14 17 -22 4 -10 6 -8 6 8 1 15 -5 22 -16 22
-11 0 -14 -3 -7 -8z"/>
<path d="M8035 10620 c-8 -13 3 -30 18 -29 9 0 9 2 0 6 -18 7 -16 21 5 26 15
4 15 5 0 6 -9 0 -20 -3 -23 -9z"/>
<path d="M8996 10622 c6 -4 14 -14 17 -22 4 -10 6 -8 6 8 1 15 -5 22 -16 22
-11 0 -14 -3 -7 -8z"/>
<path d="M9245 10620 c-8 -13 3 -30 18 -29 9 0 9 2 0 6 -18 7 -16 21 5 26 15
4 15 5 0 6 -9 0 -20 -3 -23 -9z"/>
<path d="M10206 10622 c6 -4 14 -14 17 -22 4 -10 6 -8 6 8 1 15 -5 22 -16 22
-11 0 -14 -3 -7 -8z"/>
<path d="M10455 10620 c-8 -13 3 -30 18 -29 9 0 9 2 0 6 -18 7 -16 21 5 26 15
4 15 5 0 6 -9 0 -20 -3 -23 -9z"/>
<path d="M11406 10622 c6 -4 14 -14 17 -22 4 -10 6 -8 6 8 1 15 -5 22 -16 22
-11 0 -14 -3 -7 -8z"/>
<path d="M11655 10620 c-8 -13 3 -30 18 -29 9 0 9 2 0 6 -18 7 -16 21 5 26 15
4 15 5 0 6 -9 0 -20 -3 -23 -9z"/>
<path d="M12606 10622 c6 -4 14 -14 17 -22 4 -10 6 -8 6 8 1 15 -5 22 -16 22
-11 0 -14 -3 -7 -8z"/>
<path d="M12855 10620 c-8 -13 3 -30 18 -29 9 0 9 2 0 6 -18 7 -16 21 5 26 15
4 15 5 0 6 -9 0 -20 -3 -23 -9z"/>
<path d="M14056 10622 c6 -4 14 -14 17 -22 4 -10 6 -8 6 8 1 15 -5 22 -16 22
-11 0 -14 -3 -7 -8z"/>
<path d="M15006 10622 c6 -4 14 -14 17 -22 4 -10 6 -8 6 8 1 15 -5 22 -16 22
-11 0 -14 -3 -7 -8z"/>
<path d="M15255 10620 c-8 -13 3 -30 18 -29 9 0 9 2 0 6 -18 7 -16 21 5 26 15
4 15 5 0 6 -9 0 -20 -3 -23 -9z"/>
<path d="M16296 10621 c-4 -5 3 -7 14 -4 23 6 26 13 6 13 -8 0 -17 -4 -20 -9z"/>
<path d="M16418 10623 c6 -2 18 -2 25 0 6 3 1 5 -13 5 -14 0 -19 -2 -12 -5z"/>
<path d="M457 10598 c2 -5 10 -8 18 -8 8 0 16 3 18 8 3 4 -5 7 -18 7 -13 0
-21 -3 -18 -7z"/>
<path d="M598 10598 c5 -5 16 -8 23 -6 8 3 3 7 -10 11 -17 4 -21 3 -13 -5z"/>
<path d="M1905 10600 c-16 -7 -17 -9 -3 -9 9 -1 20 4 23 9 7 11 7 11 -20 0z"/>
<path d="M1995 10600 c-16 -7 -17 -9 -3 -9 9 -1 20 4 23 9 7 11 7 11 -20 0z"/>
<path d="M2040 10599 c0 -5 9 -9 20 -9 11 0 20 2 20 4 0 2 -9 6 -20 9 -11 3
-20 1 -20 -4z"/>
<path d="M2895 10600 l-30 -8 27 -1 c15 0 30 4 33 9 3 6 5 9 3 9 -2 -1 -16 -5
-33 -9z"/>
<path d="M3145 10600 c-19 -8 -19 -9 3 -9 12 -1 22 4 22 9 0 6 -1 10 -2 9 -2
0 -12 -4 -23 -9z"/>
<path d="M4137 10599 c7 -7 15 -10 18 -7 3 3 -2 9 -12 12 -14 6 -15 5 -6 -5z"/>
<path d="M4315 10600 c-16 -7 -17 -9 -3 -9 9 -1 20 4 23 9 7 11 7 11 -20 0z"/>
<path d="M5347 10599 c7 -7 15 -10 18 -7 3 3 -2 9 -12 12 -14 6 -15 5 -6 -5z"/>
<path d="M5525 10600 c-16 -7 -17 -9 -3 -9 9 -1 20 4 23 9 7 11 7 11 -20 0z"/>
<path d="M6557 10599 c7 -7 15 -10 18 -7 3 3 -2 9 -12 12 -14 6 -15 5 -6 -5z"/>
<path d="M6735 10600 c-16 -7 -17 -9 -3 -9 9 -1 20 4 23 9 7 11 7 11 -20 0z"/>
<path d="M7767 10599 c7 -7 15 -10 18 -7 3 3 -2 9 -12 12 -14 6 -15 5 -6 -5z"/>
<path d="M7945 10600 c-16 -7 -17 -9 -3 -9 9 -1 20 4 23 9 7 11 7 11 -20 0z"/>
<path d="M8977 10599 c7 -7 15 -10 18 -7 3 3 -2 9 -12 12 -14 6 -15 5 -6 -5z"/>
<path d="M9155 10600 c-16 -7 -17 -9 -3 -9 9 -1 20 4 23 9 7 11 7 11 -20 0z"/>
<path d="M10187 10599 c7 -7 15 -10 18 -7 3 3 -2 9 -12 12 -14 6 -15 5 -6 -5z"/>
<path d="M10365 10600 c-16 -7 -17 -9 -3 -9 9 -1 20 4 23 9 7 11 7 11 -20 0z"/>
<path d="M11387 10599 c7 -7 15 -10 18 -7 3 3 -2 9 -12 12 -14 6 -15 5 -6 -5z"/>
<path d="M11565 10600 c-16 -7 -17 -9 -3 -9 9 -1 20 4 23 9 7 11 7 11 -20 0z"/>
<path d="M12587 10599 c7 -7 15 -10 18 -7 3 3 -2 9 -12 12 -14 6 -15 5 -6 -5z"/>
<path d="M12765 10600 c-16 -7 -17 -9 -3 -9 9 -1 20 4 23 9 7 11 7 11 -20 0z"/>
<path d="M13785 10600 c-16 -7 -17 -9 -3 -9 9 -1 20 4 23 9 7 11 7 11 -20 0z"/>
<path d="M13838 10598 c5 -5 16 -8 23 -6 8 3 3 7 -10 11 -17 4 -21 3 -13 -5z"/>
<path d="M13945 10600 c-16 -7 -17 -9 -3 -9 9 -1 20 4 23 9 7 11 7 11 -20 0z"/>
<path d="M14037 10599 c7 -7 15 -10 18 -7 3 3 -2 9 -12 12 -14 6 -15 5 -6 -5z"/>
<path d="M14987 10599 c7 -7 15 -10 18 -7 3 3 -2 9 -12 12 -14 6 -15 5 -6 -5z"/>
<path d="M15165 10600 c-16 -7 -17 -9 -3 -9 9 -1 20 4 23 9 7 11 7 11 -20 0z"/>
<path d="M16205 10600 c-19 -8 -19 -9 3 -9 12 -1 22 4 22 9 0 6 -1 10 -2 9 -2
0 -12 -4 -23 -9z"/>
<path d="M16305 10600 c-16 -7 -17 -9 -3 -9 9 -1 20 4 23 9 7 11 7 11 -20 0z"/>
<path d="M16418 10598 c5 -5 16 -8 23 -6 8 3 3 7 -10 11 -17 4 -21 3 -13 -5z"/>
<path d="M838 10593 c7 -3 16 -2 19 1 4 3 -2 6 -13 5 -11 0 -14 -3 -6 -6z"/>
<path d="M1848 10593 c7 -3 16 -2 19 1 4 3 -2 6 -13 5 -11 0 -14 -3 -6 -6z"/>
<path d="M4478 10593 c7 -3 16 -2 19 1 4 3 -2 6 -13 5 -11 0 -14 -3 -6 -6z"/>
<path d="M5688 10593 c7 -3 16 -2 19 1 4 3 -2 6 -13 5 -11 0 -14 -3 -6 -6z"/>
<path d="M6898 10593 c7 -3 16 -2 19 1 4 3 -2 6 -13 5 -11 0 -14 -3 -6 -6z"/>
<path d="M8108 10593 c7 -3 16 -2 19 1 4 3 -2 6 -13 5 -11 0 -14 -3 -6 -6z"/>
<path d="M9318 10593 c7 -3 16 -2 19 1 4 3 -2 6 -13 5 -11 0 -14 -3 -6 -6z"/>
<path d="M16148 10593 c7 -3 16 -2 19 1 4 3 -2 6 -13 5 -11 0 -14 -3 -6 -6z"/>
<path d="M18625 10371 c-64 -27 -81 -110 -32 -158 60 -61 162 -19 162 67 0 66
-72 116 -130 91z m56 -58 c7 -56 3 -68 -23 -71 -27 -3 -28 -1 -28 37 0 37 2
41 25 41 14 0 25 -3 26 -7z"/>
<path d="M18645 10300 c-3 -5 1 -10 10 -10 9 0 13 5 10 10 -3 6 -8 10 -10 10
-2 0 -7 -4 -10 -10z"/>
<path d="M18645 10260 c3 -5 10 -10 16 -10 5 0 9 5 9 10 0 6 -7 10 -16 10 -8
0 -12 -4 -9 -10z"/>
<path d="M16511 10338 c0 -16 2 -18 6 -8 3 8 11 18 17 22 7 5 4 8 -6 8 -12 0
-18 -7 -17 -22z"/>
<path d="M16862 10327 c-18 -18 -32 -40 -32 -48 0 -19 61 -79 81 -79 19 0 79
61 79 81 0 19 -61 79 -81 79 -8 0 -29 -15 -47 -33z m88 -7 c16 -16 30 -34 30
-39 0 -13 -56 -71 -69 -71 -13 0 -71 56 -71 69 0 13 56 71 69 71 6 0 24 -13
41 -30z"/>
<path d="M16895 10310 c-3 -5 -1 -10 4 -10 6 0 11 5 11 10 0 6 -2 10 -4 10 -3
0 -8 -4 -11 -10z"/>
<path d="M16930 10290 c0 -5 5 -10 11 -10 5 0 7 5 4 10 -3 6 -8 10 -11 10 -2
0 -4 -4 -4 -10z"/>
<path d="M16875 10270 c3 -5 8 -10 11 -10 2 0 4 5 4 10 0 6 -5 10 -11 10 -5 0
-7 -4 -4 -10z"/>
<path d="M16910 10249 c0 -5 5 -7 10 -4 6 3 10 8 10 11 0 2 -4 4 -10 4 -5 0
-10 -5 -10 -11z"/>
<path d="M17885 10346 c38 -17 52 -34 58 -71 l4 -30 1 30 c2 43 -39 86 -80 85
-7 -1 1 -7 17 -14z"/>
<path d="M18122 10348 c-7 -7 -12 -37 -12 -68 0 -31 5 -61 12 -68 7 -7 37 -12
68 -12 31 0 61 5 68 12 7 7 12 37 12 68 0 31 -5 61 -12 68 -16 16 -120 16
-136 0z m24 -68 c1 -23 -2 -28 -11 -20 -7 6 -11 20 -8 30 8 30 18 24 19 -10z
m99 22 c-3 -3 0 -11 6 -18 6 -7 8 -18 4 -24 -9 -15 -93 -10 -99 7 -11 27 5 40
50 40 24 0 42 -2 39 -5z"/>
<path d="M18220 10281 c0 -5 5 -13 10 -16 6 -3 10 -2 10 4 0 5 -4 13 -10 16
-5 3 -10 2 -10 -4z"/>
<path d="M180 10315 l-34 -35 37 -37 c40 -40 65 -38 27 2 l-23 25 51 0 c29 0
52 5 52 10 0 6 -23 10 -52 10 l-51 0 21 23 c12 13 22 26 22 30 0 15 -18 5 -50
-28z"/>
<path d="M832 10340 c-53 -22 -51 -100 4 -120 29 -12 74 5 82 30 4 12 1 11
-15 -2 -23 -21 -64 -23 -81 -6 -7 7 -12 24 -12 38 0 33 17 50 50 50 33 0 43
-9 29 -27 -9 -10 -6 -13 15 -13 20 0 26 5 26 23 0 15 -6 23 -17 23 -10 0 -27
3 -38 6 -11 4 -30 3 -43 -2z"/>
<path d="M17815 10330 c-26 -28 -15 -31 12 -3 12 13 19 23 14 23 -4 0 -16 -9
-26 -20z"/>
<path d="M15517 10320 c-4 -14 -14 -20 -34 -20 l-28 0 22 -18 c17 -12 21 -23
16 -41 -5 -21 -4 -22 16 -12 16 9 26 9 42 0 20 -10 21 -9 16 12 -5 18 -1 29
16 41 l22 18 -28 0 c-20 0 -30 6 -34 20 -3 11 -9 20 -13 20 -4 0 -10 -9 -13
-20z m36 -24 c12 -10 15 -16 7 -21 -6 -4 -9 -13 -7 -19 3 -8 -5 -13 -23 -13
-18 0 -26 5 -23 13 2 6 -1 15 -7 19 -8 5 -5 11 7 21 10 7 20 13 23 13 3 0 13
-6 23 -13z"/>
<path d="M18976 10331 c-4 -5 -2 -12 3 -15 5 -4 12 -2 15 3 4 5 2 12 -3 15 -5
4 -12 2 -15 -3z"/>
<path d="M1468 10323 c6 -2 18 -2 25 0 6 3 1 5 -13 5 -14 0 -19 -2 -12 -5z"/>
<path d="M1628 10323 c6 -2 18 -2 25 0 6 3 1 5 -13 5 -14 0 -19 -2 -12 -5z"/>
<path d="M1833 10280 c0 -30 2 -43 4 -27 2 15 2 39 0 55 -2 15 -4 2 -4 -28z"/>
<path d="M1913 10280 c0 -30 2 -43 4 -27 2 15 2 39 0 55 -2 15 -4 2 -4 -28z"/>
<path d="M2092 10278 c1 -51 2 -51 5 -10 3 29 8 40 16 35 7 -4 6 0 -2 10 -7 9
-15 17 -17 17 -2 0 -3 -24 -2 -52z"/>
<path d="M2228 10323 c7 -3 16 -2 19 1 4 3 -2 6 -13 5 -11 0 -14 -3 -6 -6z"/>
<path d="M2350 10270 c0 -33 3 -60 8 -60 4 0 7 27 7 60 0 33 -3 60 -7 60 -5 0
-8 -27 -8 -60z"/>
<path d="M2393 10295 c0 -22 2 -30 4 -17 2 12 2 30 0 40 -3 9 -5 -1 -4 -23z"/>
<path d="M2496 10321 c-4 -5 3 -7 14 -4 23 6 26 13 6 13 -8 0 -17 -4 -20 -9z"/>
<path d="M2565 10270 c0 -33 3 -60 8 -60 4 0 7 27 7 60 0 33 -3 60 -7 60 -5 0
-8 -27 -8 -60z"/>
<path d="M3290 10311 c0 -14 -5 -18 -19 -14 -10 3 -21 1 -24 -4 -3 -5 4 -9 16
-9 16 1 22 -5 22 -19 0 -14 -6 -20 -22 -19 -12 0 -20 -3 -17 -8 3 -4 16 -7 29
-6 23 2 25 7 25 50 0 26 -2 48 -5 48 -3 0 -5 -9 -5 -19z"/>
<path d="M3850 10311 c0 -14 -5 -18 -19 -14 -10 3 -21 1 -24 -4 -3 -5 4 -9 16
-9 16 1 22 -5 22 -19 0 -14 -6 -20 -22 -19 -12 0 -20 -3 -17 -8 3 -4 16 -7 29
-6 23 2 25 7 25 50 0 26 -2 48 -5 48 -3 0 -5 -9 -5 -19z"/>
<path d="M3930 10312 c0 -13 -7 -18 -22 -18 -19 1 -23 -4 -23 -29 0 -26 4 -30
28 -31 26 -1 27 1 27 47 0 27 -2 49 -5 49 -3 0 -5 -8 -5 -18z m-5 -47 c0 -11
-8 -21 -17 -23 -14 -3 -18 3 -18 23 0 20 4 26 18 23 9 -2 17 -12 17 -23z"/>
<path d="M1227 10306 c-4 -10 -7 -31 -7 -47 0 -27 2 -29 40 -29 38 0 40 1 40
33 0 17 -5 39 -10 47 -6 10 -10 11 -10 3 0 -16 -37 -17 -42 -1 -3 7 -7 5 -11
-6z"/>
<path d="M16654 10307 c-8 -9 -7 -16 3 -25 11 -11 13 -8 13 13 0 28 -1 29 -16
12z"/>
<path d="M17606 10302 c3 -10 -7 -29 -26 -47 l-31 -30 -35 37 c-19 21 -34 34
-34 30 0 -5 16 -23 35 -42 l35 -34 35 34 c35 34 43 54 26 64 -5 4 -7 -2 -5
-12z"/>
<path d="M15890 10275 c0 -19 3 -35 8 -35 4 0 7 16 7 35 0 19 -3 35 -7 35 -5
0 -8 -16 -8 -35z"/>
<path d="M15992 10273 c0 -28 2 -33 8 -18 6 17 3 55 -5 55 -2 0 -3 -17 -3 -37z"/>
<path d="M1432 10280 c0 -14 2 -19 5 -12 2 6 2 18 0 25 -3 6 -5 1 -5 -13z"/>
<path d="M1536 10291 c-4 -5 3 -7 14 -4 23 6 26 13 6 13 -8 0 -17 -4 -20 -9z"/>
<path d="M1682 10280 c0 -14 2 -19 5 -12 2 6 2 18 0 25 -3 6 -5 1 -5 -13z"/>
<path d="M1728 10293 c7 -3 16 -2 19 1 4 3 -2 6 -13 5 -11 0 -14 -3 -6 -6z"/>
<path d="M1785 10289 c-4 -6 -4 -13 -1 -16 3 -4 6 -1 6 5 0 6 8 13 18 15 15 4
15 5 0 6 -9 0 -20 -4 -23 -10z"/>
<path d="M2192 10280 c0 -14 2 -19 5 -12 2 6 2 18 0 25 -3 6 -5 1 -5 -13z"/>
<path d="M2796 10291 c-3 -5 2 -7 13 -4 16 4 20 -1 24 -29 l5 -33 -2 35 c-1
34 -26 54 -40 31z"/>
<path d="M2868 10293 c7 -3 16 -2 19 1 4 3 -2 6 -13 5 -11 0 -14 -3 -6 -6z"/>
<path d="M2918 10293 c7 -3 16 -2 19 1 4 3 -2 6 -13 5 -11 0 -14 -3 -6 -6z"/>
<path d="M2963 10250 c0 -30 2 -43 4 -27 2 15 2 39 0 55 -2 15 -4 2 -4 -28z"/>
<path d="M2988 10293 c7 -3 16 -2 19 1 4 3 -2 6 -13 5 -11 0 -14 -3 -6 -6z"/>
<path d="M3044 10288 c-4 -6 0 -16 9 -23 22 -16 21 -22 0 -28 -16 -4 -16 -5
-1 -6 24 -2 34 20 15 34 -22 16 -21 22 1 28 15 4 15 5 0 6 -9 0 -20 -4 -24
-11z"/>
<path d="M3324 10286 c-11 -28 1 -51 26 -53 22 -1 22 -1 3 4 -16 3 -23 12 -23
28 0 17 7 25 23 28 l22 4 -23 2 c-12 0 -25 -5 -28 -13z"/>
<path d="M3389 10284 c-16 -19 -1 -48 27 -51 15 -2 14 -1 -3 7 -13 5 -23 16
-23 25 0 9 10 20 23 25 15 6 17 9 6 9 -9 1 -22 -6 -30 -15z"/>
<path d="M3484 10286 c-11 -28 1 -51 24 -50 29 1 23 -18 -9 -27 -21 -6 -21 -7
-3 -8 29 -1 44 18 44 59 0 31 -3 36 -25 38 -15 1 -28 -4 -31 -12z m41 -21 c0
-11 -8 -21 -17 -23 -14 -3 -18 3 -18 23 0 20 4 26 18 23 9 -2 17 -12 17 -23z"/>
<path d="M3564 10286 c-14 -37 22 -74 47 -49 6 6 1 9 -13 9 -14 -1 -24 6 -26
17 -4 22 27 35 40 16 8 -12 9 -11 5 1 -5 20 -46 25 -53 6z"/>
<path d="M3649 10284 c-9 -11 -10 -20 -2 -32 13 -21 45 -22 50 -2 4 12 3 13
-5 1 -13 -19 -44 -6 -40 16 2 11 12 18 26 17 12 0 22 3 22 8 0 14 -37 9 -51
-8z"/>
<path d="M3750 10288 c24 -10 24 -10 5 -18 -18 -8 -18 -9 -2 -9 10 -1 15 -6
11 -12 -3 -6 -15 -9 -25 -6 -11 3 -17 1 -13 -4 3 -5 16 -9 30 -9 17 0 24 6 24
19 0 34 -12 51 -34 50 -19 0 -19 -1 4 -11z"/>
<path d="M4005 10289 c-4 -6 -5 -12 -2 -15 2 -3 7 2 10 11 7 17 1 20 -8 4z"/>
<path d="M4064 10286 c-11 -28 1 -51 26 -53 22 -1 22 -1 3 4 -16 3 -23 12 -23
28 0 17 7 25 23 28 l22 4 -23 2 c-12 0 -25 -5 -28 -13z"/>
<path d="M4130 10286 c-27 -33 18 -72 48 -42 13 13 14 20 6 34 -15 23 -38 26
-54 8z m48 -19 c4 -20 -25 -34 -40 -19 -15 15 -1 44 19 40 10 -2 19 -11 21
-21z"/>
<path d="M4213 10265 c0 -22 2 -30 4 -17 2 12 2 30 0 40 -3 9 -5 -1 -4 -23z"/>
<path d="M4239 10292 c6 -2 12 -18 12 -35 l1 -32 7 29 c9 42 29 44 34 4 l4
-33 1 37 c2 35 1 36 -34 35 -20 -1 -32 -3 -25 -5z"/>
<path d="M16510 10271 c0 -19 3 -32 6 -29 3 4 18 3 33 -2 44 -12 60 6 17 20
-20 6 -40 19 -46 28 -7 14 -9 10 -10 -17z"/>
<path d="M17832 10275 c0 -16 2 -22 5 -12 2 9 2 23 0 30 -3 6 -5 -1 -5 -18z"/>
<path d="M17906 10287 c3 -10 9 -15 12 -12 3 3 0 11 -7 18 -10 9 -11 8 -5 -6z"/>
<path d="M3960 10288 c0 -4 5 -18 11 -32 10 -20 9 -29 -2 -43 -13 -16 -12 -17
2 -5 9 7 19 22 22 33 3 12 3 18 -1 15 -3 -4 -12 4 -19 16 -7 13 -12 20 -13 16z"/>
<path d="M17790 10282 c-1 -41 42 -82 85 -80 l30 1 -30 4 c-37 6 -54 20 -71
58 -7 16 -13 24 -14 17z"/>
<path d="M18976 10281 c-4 -5 -2 -12 3 -15 5 -4 12 -2 15 3 4 5 2 12 -3 15 -5
4 -12 2 -15 -3z"/>
<path d="M1864 10255 c1 -12 9 -21 21 -22 14 -1 15 0 3 3 -9 3 -19 13 -21 22
-3 12 -4 11 -3 -3z"/>
<path d="M2527 10262 c4 -16 -1 -21 -19 -25 l-23 -4 23 -2 c25 -1 40 25 24 41
-8 8 -9 5 -5 -10z"/>
<path d="M3011 10264 c0 -11 3 -14 6 -6 3 7 2 16 -1 19 -3 4 -6 -2 -5 -13z"/>
<path d="M15938 10273 c6 -2 18 -2 25 0 6 3 1 5 -13 5 -14 0 -19 -2 -12 -5z"/>
<path d="M1728 10263 c7 -3 16 -2 19 1 4 3 -2 6 -13 5 -11 0 -14 -3 -6 -6z"/>
<path d="M2141 10253 c7 -12 15 -20 18 -17 3 2 -3 12 -13 22 -17 16 -18 16 -5
-5z"/>
<path d="M1783 10250 c2 -8 12 -16 23 -17 13 -2 15 -1 4 4 -8 3 -19 11 -23 17
-6 7 -7 6 -4 -4z"/>
<path d="M1449 10237 c5 -5 19 -7 32 -5 20 3 19 5 -9 9 -20 3 -29 2 -23 -4z"/>
<path d="M1538 10238 c5 -5 16 -8 23 -6 8 3 3 7 -10 11 -17 4 -21 3 -13 -5z"/>
<path d="M1640 10240 c-23 -7 -23 -8 -3 -9 12 -1 25 4 28 9 3 6 5 10 3 9 -2
-1 -14 -5 -28 -9z"/>
<path d="M1961 10234 c0 -11 3 -14 6 -6 3 7 2 16 -1 19 -3 4 -6 -2 -5 -13z"/>
<path d="M2208 10238 c6 -6 18 -8 28 -6 14 3 12 5 -9 10 -19 3 -25 2 -19 -4z"/>
<path d="M2408 10238 c5 -5 16 -8 23 -6 8 3 3 7 -10 11 -17 4 -21 3 -13 -5z"/>
<path d="M1718 10233 c7 -3 16 -2 19 1 4 3 -2 6 -13 5 -11 0 -14 -3 -6 -6z"/>
<path d="M16648 10219 c-17 -18 -17 -19 2 -19 13 0 20 7 20 20 0 24 0 24 -22
-1z"/>
<path d="M17919 10223 c-13 -16 -12 -17 4 -4 9 7 17 15 17 17 0 8 -8 3 -21
-13z"/>
<path d="M18976 10231 c-4 -5 -2 -12 3 -15 5 -4 12 -2 15 3 4 5 2 12 -3 15 -5
4 -12 2 -15 -3z"/>
<path d="M0 9890 l0 -200 9515 0 9515 0 0 200 0 200 -9515 0 -9515 0 0 -200z
m18597 132 c66 -47 83 -162 35 -229 -47 -66 -162 -83 -229 -35 -92 65 -80 225
19 276 46 23 134 17 175 -12z m-413 2 c9 -8 16 -21 16 -27 0 -7 3 -22 6 -34 5
-18 2 -23 -14 -23 -11 0 -23 -8 -27 -17 -6 -17 -7 -17 -19 0 -7 9 -21 17 -31
17 -12 0 -15 5 -11 16 3 9 9 28 13 42 10 43 39 54 67 26z m-549 -50 c28 -18
45 -68 38 -108 -3 -14 -19 -37 -35 -51 -70 -59 -168 -13 -168 78 0 38 5 49 31
71 36 31 96 35 134 10z m-17345 -14 c27 -27 25 -40 -4 -40 -14 0 -28 5 -31 10
-10 17 -34 11 -45 -11 -9 -15 -8 -24 1 -35 16 -20 29 -17 29 6 0 16 7 20 34
20 19 0 48 8 65 18 28 15 33 16 58 2 40 -22 44 -72 8 -96 -19 -12 -32 -14 -48
-7 -12 5 -40 7 -62 5 -105 -11 -135 4 -135 69 0 29 6 42 26 58 34 27 78 27
104 1z m244 10 c15 -5 31 -21 37 -34 10 -22 14 -23 26 -10 17 16 24 17 76 5
21 -5 39 -5 43 0 3 5 16 9 30 9 17 0 24 5 24 20 0 13 7 20 20 20 16 0 20 -7
20 -36 0 -32 1 -34 16 -20 8 9 24 16 34 16 10 0 20 9 23 21 7 28 41 21 45 -9
2 -13 10 -22 22 -22 10 0 21 -10 25 -22 l8 -23 4 23 c3 13 12 22 22 22 12 0
17 7 17 22 -1 14 6 24 17 26 12 2 17 -3 17 -17 0 -11 -4 -22 -9 -25 -5 -3 -17
-35 -26 -71 -20 -71 -40 -91 -82 -80 -30 7 -26 27 8 35 19 5 21 7 7 12 -9 4
-18 17 -21 30 -4 21 -4 21 -6 -3 -1 -23 -6 -27 -43 -32 -31 -4 -48 -1 -60 10
-10 9 -18 11 -18 6 0 -14 -70 -23 -91 -12 -8 4 -35 3 -60 -2 -40 -9 -46 -8
-64 13 -19 22 -21 22 -37 6 -13 -13 -34 -18 -68 -18 l-50 0 0 75 0 75 34 0
c19 0 46 -4 60 -10z m861 -25 c0 -5 -10 -11 -22 -13 -16 -2 -23 2 -23 13 0 11
7 15 23 13 12 -2 22 -7 22 -13z m55 0 c0 -8 -9 -15 -20 -15 -11 0 -20 7 -20
15 0 8 9 15 20 15 11 0 20 -7 20 -15z m60 0 c0 -16 -35 -21 -44 -6 -8 12 4 21
26 21 10 0 18 -7 18 -15z m212 -12 c10 -9 18 -23 18 -32 1 -14 2 -13 11 2 12
20 69 23 87 5 9 -9 12 -9 12 0 0 16 136 17 146 1 4 -8 9 -8 17 0 18 18 75 13
86 -6 10 -17 10 -17 11 0 0 10 8 17 20 17 17 0 20 -7 20 -50 l0 -50 -90 1 -90
1 0 34 c0 19 -4 34 -10 34 -5 0 -10 -16 -10 -35 0 -28 -4 -35 -20 -35 -16 0
-20 7 -20 35 0 19 -4 35 -10 35 -5 0 -10 -16 -10 -35 0 -28 -4 -35 -20 -35
-11 0 -20 5 -20 12 0 9 -3 9 -12 0 -18 -18 -75 -15 -87 5 -9 17 -10 17 -28 0
-12 -10 -36 -17 -61 -17 l-42 0 0 65 0 65 42 0 c24 0 49 -7 60 -17z m428 7 c0
-5 -9 -10 -20 -10 -11 0 -20 5 -20 10 0 6 9 10 20 10 11 0 20 -4 20 -10z m235
-30 l12 -35 12 38 c10 29 18 37 37 37 23 0 24 -3 24 -65 0 -58 -2 -65 -20 -65
-12 0 -20 7 -21 18 -1 16 -2 16 -6 0 -6 -26 -42 -22 -53 5 l-9 22 0 -22 c-1
-16 -7 -23 -21 -23 -18 0 -20 7 -20 66 0 65 0 65 27 62 20 -2 29 -11 38 -38z
m15665 -30 c0 -47 -3 -60 -15 -60 -11 0 -15 12 -15 44 0 26 -5 46 -12 49 -10
4 -9 8 2 16 32 23 40 13 40 -49z m-15792 -12 c2 -38 0 -48 -12 -48 -10 0 -16
9 -16 24 0 33 -10 57 -21 50 -5 -3 -9 -21 -9 -40 0 -27 -4 -34 -20 -34 -17 0
-20 7 -20 51 l0 50 48 -3 47 -3 3 -47z m310 0 l3 -48 -41 0 c-45 0 -61 20 -42
51 8 13 8 19 0 21 -26 9 6 29 40 26 36 -3 37 -4 40 -50z m113 22 c7 -24 10
-22 13 10 1 19 52 26 72 9 11 -9 18 -9 26 -1 7 7 29 12 50 12 29 0 38 -4 38
-17 1 -17 1 -17 11 0 13 22 74 24 83 1 13 -33 6 -44 -26 -44 -17 0 -28 -3 -24
-7 4 -4 16 -8 26 -8 11 0 21 -4 22 -10 4 -14 -61 -19 -77 -5 -11 9 -14 6 -17
-17 -3 -25 -7 -28 -42 -28 -25 0 -41 5 -44 14 -3 10 2 13 22 9 15 -3 29 -1 32
3 3 5 -5 9 -18 9 -13 0 -29 5 -36 12 -9 9 -12 9 -12 0 0 -17 -90 -16 -91 1 0
10 -2 10 -6 0 -9 -23 -33 -14 -33 11 0 33 -10 57 -21 50 -5 -3 -9 -21 -9 -40
0 -27 -4 -34 -20 -34 -17 0 -20 7 -20 51 l0 50 47 -3 c41 -3 48 -6 54 -28z
m379 22 c0 -4 -9 -13 -20 -20 -13 -8 -20 -23 -20 -42 0 -20 -5 -30 -15 -30
-11 0 -15 12 -15 50 l0 50 35 0 c19 0 35 -3 35 -8z m-1665 -27 c0 -5 -10 -11
-22 -13 -16 -2 -23 2 -23 13 0 11 7 15 23 13 12 -2 22 -7 22 -13z m55 0 c0 -8
-9 -15 -20 -15 -11 0 -20 7 -20 15 0 8 9 15 20 15 11 0 20 -7 20 -15z m60 0
c0 -16 -35 -21 -44 -6 -8 12 4 21 26 21 10 0 18 -7 18 -15z m17340 3 c0 -15
-40 -58 -54 -58 -15 0 -56 42 -56 57 0 9 16 13 55 13 36 0 55 -4 55 -12z
m-17455 -53 c0 -5 -10 -11 -22 -13 -16 -2 -23 2 -23 13 0 11 7 15 23 13 12 -2
22 -7 22 -13z m55 0 c0 -8 -9 -15 -20 -15 -11 0 -20 7 -20 15 0 8 9 15 20 15
11 0 20 -7 20 -15z m60 0 c0 -16 -35 -21 -44 -6 -8 12 4 21 26 21 10 0 18 -7
18 -15z"/>
<path d="M18432 10010 c-42 -26 -72 -76 -72 -120 0 -71 69 -140 140 -140 71 0
140 69 140 140 0 71 -69 140 -140 140 -19 0 -50 -9 -68 -20z m106 -32 c14 -14
16 -53 3 -77 -8 -15 -4 -21 25 -35 27 -12 35 -21 32 -39 -3 -21 -9 -22 -92
-25 -49 -2 -93 1 -99 7 -15 15 2 48 32 61 26 11 28 14 18 40 -16 42 4 80 41
80 15 0 33 -5 40 -12z"/>
<path d="M17553 9953 c-7 -2 -13 -9 -13 -14 0 -6 5 -7 10 -4 6 4 18 4 27 1 14
-6 13 -9 -2 -32 -20 -30 -11 -46 10 -18 18 23 19 46 3 62 -13 13 -16 13 -35 5z"/>
<path d="M17560 9840 c0 -5 5 -10 10 -10 6 0 10 5 10 10 0 6 -4 10 -10 10 -5
0 -10 -4 -10 -10z"/>
<path d="M366 9893 c-11 -11 -6 -23 9 -23 8 0 15 4 15 9 0 13 -16 22 -24 14z"/>
<path d="M480 9904 c0 -31 3 -35 22 -32 29 4 36 37 12 55 -28 20 -34 16 -34
-23z"/>
<path d="M627 9893 c-12 -11 -8 -23 8 -23 8 0 15 7 15 15 0 16 -12 20 -23 8z"/>
<path d="M740 9886 c0 -9 7 -16 16 -16 17 0 14 22 -4 28 -7 2 -12 -3 -12 -12z"/>
<path d="M857 9893 c-12 -11 -8 -23 8 -23 8 0 15 7 15 15 0 16 -12 20 -23 8z"/>
<path d="M1660 9885 c0 -43 1 -45 20 -35 12 6 20 21 20 35 0 14 -8 29 -20 35
-19 10 -20 8 -20 -35z"/>
<path d="M1784 9886 c-8 -21 3 -49 16 -41 5 3 10 15 10 25 0 25 -18 36 -26 16z"/>
<path d="M2045 9890 c-3 -5 1 -10 10 -10 9 0 13 5 10 10 -3 6 -8 10 -10 10 -2
0 -7 -4 -10 -10z"/>
<path d="M2010 9879 c0 -5 5 -7 10 -4 6 3 10 8 10 11 0 2 -4 4 -10 4 -5 0 -10
-5 -10 -11z"/>
<path d="M2515 9890 c-3 -5 1 -10 10 -10 9 0 13 5 10 10 -3 6 -8 10 -10 10 -2
0 -7 -4 -10 -10z"/>
<path d="M2824 9886 c-8 -21 3 -49 16 -41 5 3 10 15 10 25 0 25 -18 36 -26 16z"/>
<path d="M2925 9890 c-3 -5 1 -10 10 -10 9 0 13 5 10 10 -3 6 -8 10 -10 10 -2
0 -7 -4 -10 -10z"/>
<path d="M260 9400 c0 -57 1 -60 25 -60 30 0 65 32 65 60 0 28 -35 60 -65 60
-24 0 -25 -3 -25 -60z m65 0 c0 -29 -4 -36 -22 -38 -21 -3 -23 1 -23 38 0 37
2 41 23 38 18 -2 22 -9 22 -38z"/>
<path d="M1430 9400 c0 -60 0 -60 30 -60 32 0 54 27 40 50 -4 7 -6 19 -3 27 8
20 -16 43 -43 43 -23 0 -24 -3 -24 -60z m50 25 c0 -8 -9 -15 -20 -15 -11 0
-20 7 -20 15 0 8 9 15 20 15 11 0 20 -7 20 -15z m8 -52 c2 -8 -6 -13 -22 -13
-17 0 -26 5 -26 16 0 19 41 16 48 -3z"/>
<path d="M1764 9445 c-4 -8 -4 -22 -1 -30 4 -8 2 -17 -3 -20 -6 -4 -10 -15
-10 -25 0 -23 36 -36 55 -20 11 9 15 9 15 1 0 -6 4 -11 8 -11 5 0 9 13 9 29 0
22 -4 27 -19 23 -20 -5 -24 8 -6 26 8 8 8 15 -2 27 -16 19 -39 19 -46 0z m36
-13 c0 -13 -12 -22 -22 -16 -10 6 -1 24 13 24 5 0 9 -4 9 -8z m-2 -60 c2 -7
-6 -12 -17 -12 -21 0 -27 11 -14 24 9 9 26 2 31 -12z"/>
<path d="M1911 9441 c-8 -15 -7 -23 5 -35 8 -9 22 -16 30 -16 8 0 14 -7 14
-15 0 -18 -31 -20 -49 -2 -11 10 -13 9 -9 -2 7 -25 36 -37 56 -25 28 18 26 42
-7 59 -38 19 -41 40 -5 31 19 -5 25 -3 22 6 -7 22 -46 21 -57 -1z"/>
<path d="M2093 9400 c0 -36 2 -50 4 -32 2 17 2 47 0 65 -2 17 -4 3 -4 -33z"/>
<path d="M2130 9401 c0 -34 4 -61 10 -61 6 0 10 24 10 54 0 30 -4 58 -10 61
-6 4 -10 -17 -10 -54z"/>
<path d="M2690 9400 c0 -57 1 -60 25 -60 30 0 65 32 65 60 0 28 -35 60 -65 60
-24 0 -25 -3 -25 -60z m64 18 c14 -23 -3 -52 -33 -56 -19 -3 -21 1 -21 38 0
37 2 41 21 38 12 -2 27 -11 33 -20z"/>
<path d="M2800 9400 c0 -33 4 -60 10 -60 6 0 10 19 10 43 l1 42 25 -42 c14
-24 30 -43 35 -43 5 0 9 27 9 60 0 33 -4 60 -10 60 -5 0 -10 -19 -10 -42 l0
-43 -26 43 c-14 23 -29 42 -35 42 -5 0 -9 -27 -9 -60z"/>
<path d="M2933 9453 c-24 -9 -14 -42 18 -59 23 -12 28 -19 20 -27 -9 -9 -16
-8 -31 1 -11 7 -21 8 -25 2 -8 -14 33 -32 56 -25 27 9 21 47 -8 60 -34 14 -30
39 4 30 23 -5 25 -4 14 9 -14 16 -26 19 -48 9z"/>
<path d="M3531 9441 c-8 -15 -7 -23 5 -35 8 -9 22 -16 30 -16 8 0 14 -7 14
-15 0 -18 -31 -20 -49 -2 -11 10 -13 9 -9 -2 7 -25 36 -37 56 -25 28 18 26 42
-7 59 -38 19 -41 40 -5 31 19 -5 25 -3 22 6 -7 22 -46 21 -57 -1z"/>
<path d="M3707 9442 c-8 -35 7 -97 26 -100 9 -2 17 1 17 7 0 6 -4 11 -10 11
-14 0 -12 47 3 54 10 5 10 7 0 12 -7 3 -13 12 -13 20 0 20 -17 17 -23 -4z"/>
<path d="M3768 9443 c-4 -53 9 -103 27 -103 8 0 15 5 15 10 0 6 -4 10 -10 10
-14 0 -12 47 3 54 10 5 10 7 0 12 -7 3 -13 12 -13 20 0 20 -20 17 -22 -3z"/>
<path d="M3830 9450 c0 -5 5 -10 10 -10 6 0 10 5 10 10 0 6 -4 10 -10 10 -5 0
-10 -4 -10 -10z"/>
<path d="M4650 9400 c0 -33 4 -60 10 -60 6 0 10 11 10 25 0 20 5 25 25 25 20
0 25 -5 25 -25 0 -14 5 -25 10 -25 6 0 10 27 10 60 0 33 -4 60 -10 60 -5 0
-10 -11 -10 -25 0 -20 -5 -25 -25 -25 -20 0 -25 5 -25 25 0 14 -4 25 -10 25
-6 0 -10 -27 -10 -60z"/>
<path d="M4857 9453 c-11 -10 -8 -113 3 -113 6 0 10 27 10 60 0 61 -1 65 -13
53z"/>
<path d="M380 9416 c-15 -20 -9 -56 12 -70 13 -8 22 -6 37 8 25 23 26 39 5 60
-19 20 -38 20 -54 2z m48 -29 c4 -20 -25 -34 -40 -19 -15 15 -1 44 19 40 10
-2 19 -11 21 -21z"/>
<path d="M460 9384 c0 -50 17 -60 22 -12 4 46 28 49 28 4 0 -45 18 -48 22 -3
4 44 31 43 40 -3 6 -32 6 -31 5 10 l-2 45 -57 1 -58 1 0 -43z"/>
<path d="M615 9420 c-4 -6 6 -11 22 -11 22 -1 24 -3 6 -6 -12 -2 -27 -11 -34
-19 -16 -19 2 -39 36 -39 22 -1 25 3 25 36 0 24 -5 39 -16 43 -22 8 -32 8 -39
-4z m40 -50 c-3 -5 -13 -10 -21 -10 -8 0 -14 5 -14 10 0 6 9 10 21 10 11 0 17
-4 14 -10z"/>
<path d="M703 9385 c0 -27 2 -38 4 -22 2 15 2 37 0 50 -2 12 -4 0 -4 -28z"/>
<path d="M740 9384 c0 -24 5 -44 10 -44 6 0 10 16 10 36 0 28 3 35 18 32 10
-2 19 -16 24 -38 6 -32 6 -31 5 10 -2 43 -3 45 -34 47 -33 1 -33 1 -33 -43z"/>
<path d="M842 9418 c-18 -18 -15 -26 16 -43 l27 -16 -27 6 c-32 6 -38 -10 -8
-20 42 -13 55 22 18 49 l-23 17 23 -5 c15 -3 22 0 19 7 -5 17 -30 20 -45 5z"/>
<path d="M1533 9390 c2 -43 3 -45 35 -47 32 -1 32 -1 32 43 0 51 -17 60 -22
12 -4 -45 -31 -44 -40 2 -6 32 -6 31 -5 -10z"/>
<path d="M1626 9394 c9 -20 13 -47 10 -60 -12 -46 12 -23 33 32 24 63 24 64
13 64 -5 0 -13 -12 -19 -27 l-10 -28 -11 28 c-6 15 -16 27 -21 27 -6 0 -3 -16
5 -36z"/>
<path d="M2000 9414 c-29 -34 22 -96 53 -65 8 8 4 11 -16 11 -15 0 -27 5 -27
10 0 6 14 10 30 10 33 0 35 3 20 31 -13 23 -43 25 -60 3z m43 -11 c-7 -2 -19
-2 -25 0 -7 3 -2 5 12 5 14 0 19 -2 13 -5z"/>
<path d="M3620 9414 c-29 -34 22 -96 53 -65 8 8 4 11 -16 11 -15 0 -27 5 -27
10 0 6 14 10 30 10 33 0 35 3 20 31 -13 23 -43 25 -60 3z m43 -11 c-7 -2 -19
-2 -25 0 -7 3 -2 5 12 5 14 0 19 -2 13 -5z"/>
<path d="M3830 9385 c0 -25 5 -45 10 -45 6 0 10 20 10 45 0 25 -4 45 -10 45
-5 0 -10 -20 -10 -45z"/>
<path d="M3870 9383 c0 -50 17 -59 22 -10 2 20 8 32 18 32 10 0 16 -12 18 -32
4 -39 22 -45 22 -7 0 42 -17 63 -50 62 -29 -1 -30 -3 -30 -45z"/>
<path d="M3976 9423 c-3 -4 -6 -21 -6 -39 0 -31 21 -51 41 -38 5 3 9 -2 9 -12
0 -11 -6 -15 -20 -11 -27 7 -36 -10 -10 -18 34 -11 50 12 50 70 0 51 -1 52
-29 53 -16 0 -32 -2 -35 -5z m47 -25 c6 -19 -3 -38 -18 -38 -18 0 -28 17 -21
35 7 18 33 20 39 3z"/>
<path d="M4062 9418 c-18 -18 -15 -26 16 -43 l27 -16 -27 6 c-32 6 -38 -10 -8
-20 42 -13 55 22 18 49 l-23 17 23 -5 c15 -3 22 0 19 7 -5 17 -30 20 -45 5z"/>
<path d="M4770 9414 c-29 -34 22 -96 53 -65 8 8 4 11 -16 11 -15 0 -27 5 -27
10 0 6 14 10 30 10 33 0 35 3 20 31 -13 23 -43 25 -60 3z m43 -11 c-7 -2 -19
-2 -25 0 -7 3 -2 5 12 5 14 0 19 -2 13 -5z"/>
<path d="M4900 9364 c0 -36 4 -64 10 -64 6 0 10 12 10 26 0 15 4 23 10 19 16
-10 40 14 40 40 0 26 -16 41 -47 43 -22 1 -23 -3 -23 -64z m58 23 c4 -20 -25
-34 -40 -19 -15 15 -1 44 19 40 10 -2 19 -11 21 -21z"/>
<path d="M1002 9388 c21 -31 40 -32 61 -3 l18 25 -47 0 c-46 0 -46 0 -32 -22z"/>
<path d="M2262 9388 c21 -31 40 -32 61 -3 l18 25 -47 0 c-46 0 -46 0 -32 -22z"/>
<path d="M3106 9385 c9 -14 22 -25 29 -25 7 0 20 11 29 25 l16 25 -45 0 -45 0
16 -25z"/>
<path d="M4226 9385 c9 -14 22 -25 29 -25 7 0 20 11 29 25 l16 25 -45 0 -45 0
16 -25z"/>
<path d="M5086 9385 c9 -14 22 -25 29 -25 7 0 20 11 29 25 l16 25 -45 0 -45 0
16 -25z"/>
<path d="M2590 9140 c0 -20 7 -20 340 -20 333 0 340 0 340 20 0 20 -7 20 -340
20 -333 0 -340 0 -340 -20z"/>
<path d="M3690 8921 c0 -6 4 -13 10 -16 6 -3 7 1 4 9 -7 18 -14 21 -14 7z"/>
<path d="M3768 8883 c7 -65 12 -67 12 -5 0 29 -4 52 -9 52 -5 0 -6 -21 -3 -47z"/>
<path d="M3938 8923 c7 -3 16 -2 19 1 4 3 -2 6 -13 5 -11 0 -14 -3 -6 -6z"/>
<path d="M3988 8877 c-3 -19 -2 -25 4 -19 6 6 8 18 6 28 -3 14 -5 12 -10 -9z"/>
<path d="M4137 8893 c6 -4 13 -22 16 -38 4 -27 5 -27 3 4 0 21 -7 36 -16 38
-10 3 -11 2 -3 -4z"/>
<path d="M4170 8896 c0 -2 7 -7 16 -10 8 -3 12 -2 9 4 -6 10 -25 14 -25 6z"/>
<path d="M4253 8894 c9 -3 17 -10 17 -15 0 -5 -8 -9 -17 -10 -14 0 -15 -2 -3
-6 8 -3 19 -11 23 -17 4 -6 6 2 5 19 -2 21 -9 30 -23 32 -16 1 -16 1 -2 -3z"/>
<path d="M4377 8893 c6 -4 13 -22 16 -38 4 -27 5 -27 3 4 0 21 -7 36 -16 38
-10 3 -11 2 -3 -4z"/>
<path d="M4425 8890 c-3 -5 3 -15 15 -22 26 -17 26 -32 -1 -25 -16 4 -19 3
-11 -5 12 -12 42 -4 42 11 0 6 -10 15 -21 22 -17 9 -19 13 -8 20 9 6 10 9 2 9
-6 0 -15 -4 -18 -10z"/>
<path d="M4071 8864 c0 -11 3 -14 6 -6 3 7 2 16 -1 19 -3 4 -6 -2 -5 -13z"/>
<path d="M3840 8861 c0 -7 -4 -9 -10 -6 -5 3 -10 2 -10 -4 0 -5 4 -12 9 -15
10 -6 25 24 16 32 -3 3 -5 0 -5 -7z"/>
<path d="M3725 8840 c3 -5 8 -10 11 -10 2 0 4 5 4 10 0 6 -5 10 -11 10 -5 0
-7 -4 -4 -10z"/>
<path d="M3938 8833 c7 -3 16 -2 19 1 4 3 -2 6 -13 5 -11 0 -14 -3 -6 -6z"/>
<path d="M3700 8505 l0 -138 71 5 c63 5 75 9 103 37 28 29 31 37 31 96 0 59
-3 67 -31 96 -28 28 -40 32 -103 37 l-71 5 0 -138z m137 80 c25 -17 39 -71 29
-110 -10 -40 -42 -65 -81 -65 l-35 0 0 95 0 95 33 0 c18 0 42 -7 54 -15z"/>
<path d="M3960 8505 l0 -135 25 0 c24 0 24 2 27 91 l3 90 54 -90 c37 -64 59
-91 72 -91 18 0 19 9 19 135 0 127 -1 135 -20 135 -18 0 -20 -8 -22 -92 l-3
-93 -53 93 c-44 76 -58 92 -78 92 l-24 0 0 -135z"/>
<path d="M4262 8628 c-24 -12 -36 -42 -30 -79 2 -16 20 -33 58 -54 43 -24 55
-36 55 -55 0 -21 -6 -26 -31 -28 -20 -2 -36 4 -49 18 -18 20 -55 28 -55 11 0
-4 9 -20 20 -34 41 -52 136 -44 160 13 18 44 4 68 -61 101 -49 24 -60 34 -57
52 4 26 32 34 63 17 12 -7 30 -10 40 -8 16 3 16 4 -1 26 -22 26 -79 37 -112
20z"/>
<path d="M4540 8506 c0 -128 1 -136 20 -136 18 0 20 8 22 98 l3 97 34 -98 c29
-85 36 -98 54 -95 16 2 27 23 53 98 l32 95 1 -97 c1 -91 2 -98 21 -98 19 0 20
7 20 135 l0 135 -30 0 c-29 0 -30 -2 -62 -105 -17 -57 -34 -102 -37 -99 -3 3
-20 49 -36 102 -30 95 -31 97 -63 100 l-32 3 0 -135z"/>
<path d="M6620 8600 c0 -29 -4 -40 -15 -40 -8 0 -15 -9 -15 -20 0 -11 7 -20
15 -20 12 0 15 -13 15 -59 0 -68 17 -94 59 -89 36 4 42 38 7 38 -25 0 -26 3
-26 55 0 52 1 55 25 55 18 0 25 5 25 20 0 15 -7 20 -25 20 -22 0 -25 4 -25 40
0 33 -3 40 -20 40 -17 0 -20 -7 -20 -40z"/>
<path d="M4879 8541 c-33 -27 -15 -45 28 -29 25 9 35 9 47 -1 25 -21 19 -31
-18 -31 -59 0 -86 -15 -86 -49 0 -48 66 -81 98 -49 9 9 15 9 24 0 28 -28 38
-13 38 58 0 62 -3 74 -25 95 -29 30 -74 32 -106 6z m91 -99 c0 -15 -24 -32
-46 -32 -25 0 -39 14 -29 30 7 12 75 14 75 2z"/>
<path d="M5060 8465 c0 -88 1 -95 20 -95 18 0 20 7 20 56 0 68 13 94 46 94 30
0 44 -31 44 -101 0 -42 3 -49 20 -49 18 0 20 7 20 59 0 74 -12 108 -45 123
-19 9 -31 8 -52 -1 -19 -9 -29 -9 -31 -2 -2 6 -12 11 -23 11 -17 0 -19 -8 -19
-95z"/>
<path d="M5296 8544 c-26 -14 -27 -17 -13 -32 13 -12 19 -13 31 -3 20 17 60
10 64 -11 3 -15 -4 -18 -37 -18 -43 0 -81 -26 -81 -55 0 -23 37 -55 63 -55 12
0 33 7 45 16 20 14 22 14 22 0 0 -9 7 -16 15 -16 12 0 15 15 15 73 0 78 -4 88
-37 106 -29 15 -52 13 -87 -5z m84 -102 c0 -15 -24 -32 -47 -32 -16 0 -23 6
-23 20 0 16 7 20 35 20 19 0 35 -4 35 -8z"/>
<path d="M5504 8548 c-25 -12 -44 -48 -44 -83 0 -64 56 -109 106 -86 24 11 25
10 22 -21 -2 -28 -8 -34 -31 -36 -16 -2 -35 2 -43 9 -12 10 -18 9 -31 -3 -14
-15 -13 -18 15 -32 43 -22 76 -20 109 8 27 24 28 27 31 140 l4 116 -26 0 c-14
0 -26 -5 -26 -10 0 -7 -6 -7 -19 0 -24 12 -39 12 -67 -2z m90 -60 c21 -60 -37
-104 -79 -61 -19 18 -14 71 8 85 25 16 61 4 71 -24z"/>
<path d="M5705 8548 c-32 -17 -45 -39 -45 -79 0 -51 8 -67 41 -84 36 -19 69
-19 97 1 31 22 18 35 -29 28 -25 -4 -44 -2 -54 6 -28 23 -16 30 50 30 58 0 65
2 65 20 0 66 -68 109 -125 78z m73 -40 c21 -21 13 -28 -33 -28 -25 0 -45 4
-45 8 0 15 24 32 45 32 12 0 26 -5 33 -12z"/>
<path d="M5870 8465 c0 -88 2 -95 20 -95 17 0 19 8 22 66 3 70 18 94 52 81 13
-5 16 -21 16 -77 0 -68 1 -70 25 -70 24 0 25 2 25 63 0 65 11 87 41 87 23 0
29 -20 29 -91 0 -52 2 -59 20 -59 18 0 20 7 20 73 0 60 -4 77 -20 95 -24 25
-58 28 -85 8 -16 -12 -22 -12 -43 2 -19 12 -30 13 -53 5 -16 -6 -29 -7 -29 -2
0 5 -9 9 -20 9 -19 0 -20 -7 -20 -95z"/>
<path d="M6209 8531 c-68 -69 -8 -182 84 -157 65 17 59 49 -7 40 -38 -6 -46
-4 -55 15 -11 20 -10 21 54 21 59 0 65 2 65 20 0 81 -84 117 -141 61z m89 -23
c21 -21 13 -28 -33 -28 -43 0 -45 1 -35 20 12 22 49 27 68 8z"/>
<path d="M6390 8465 c0 -94 0 -95 25 -95 23 0 24 3 27 73 3 68 4 72 27 75 36
5 51 -22 51 -90 0 -51 2 -58 20 -58 18 0 20 7 20 70 0 62 -3 74 -25 95 -26 27
-46 31 -76 15 -13 -7 -19 -7 -19 0 0 5 -11 10 -25 10 -25 0 -25 0 -25 -95z"/>
<path d="M3680 8210 c0 -33 4 -60 10 -60 6 0 10 11 10 25 0 20 5 25 25 25 14
0 25 5 25 10 0 6 -11 10 -25 10 -16 0 -25 6 -25 15 0 10 10 15 30 15 17 0 30
5 30 10 0 6 -18 10 -40 10 l-40 0 0 -60z"/>
<path d="M3805 8255 c-5 -11 -14 -35 -21 -54 -18 -42 -18 -59 -2 -43 16 16 50
15 67 0 11 -11 12 -8 6 12 -4 14 -16 43 -25 65 -16 35 -19 37 -25 20z m25 -52
c0 -7 -9 -13 -20 -13 -17 0 -18 3 -8 25 8 19 14 22 20 13 4 -7 8 -19 8 -25z"/>
<path d="M3902 8263 c-41 -16 -31 -98 13 -109 25 -6 55 9 55 28 0 6 -6 5 -14
-2 -8 -6 -25 -10 -38 -8 -19 2 -23 9 -23 38 0 29 4 36 23 38 13 2 30 -2 38 -8
17 -15 19 1 2 18 -12 12 -33 14 -56 5z"/>
<path d="M3990 8260 c0 -5 7 -10 15 -10 11 0 15 -12 15 -50 0 -27 5 -50 10
-50 6 0 10 23 10 50 0 43 3 50 20 50 11 0 20 5 20 10 0 6 -20 10 -45 10 -25 0
-45 -4 -45 -10z"/>
<path d="M4102 8225 c-1 -29 3 -56 10 -63 18 -18 46 -14 58 7 13 25 13 101 0
101 -5 0 -10 -23 -10 -51 0 -47 -2 -50 -22 -47 -19 2 -24 11 -29 53 l-6 50 -1
-50z"/>
<path d="M4210 8210 c0 -33 4 -60 10 -60 6 0 10 11 10 25 0 14 4 25 8 25 5 0
15 -11 22 -25 7 -14 17 -25 22 -25 5 0 2 10 -6 23 -13 19 -13 25 -1 41 21 27
2 56 -35 56 -30 0 -30 0 -30 -60z m60 25 c0 -8 -9 -15 -20 -15 -11 0 -20 7
-20 15 0 8 9 15 20 15 11 0 20 -7 20 -15z"/>
<path d="M4323 8210 c-12 -33 -17 -60 -12 -60 5 0 9 5 9 10 0 6 14 10 30 10
17 0 30 -4 30 -10 0 -5 4 -10 10 -10 5 0 -1 27 -12 60 -12 33 -24 60 -27 60
-4 0 -16 -27 -28 -60z m46 -12 c1 -5 -8 -8 -19 -8 -23 0 -24 4 -8 33 11 21 11
21 19 2 4 -11 8 -23 8 -27z"/>
<path d="M4420 8210 c0 -33 4 -60 10 -60 6 0 10 11 10 25 0 20 5 25 25 25 14
0 25 5 25 10 0 6 -11 10 -25 10 -16 0 -25 6 -25 15 0 10 10 15 30 15 17 0 30
5 30 10 0 6 -18 10 -40 10 l-40 0 0 -60z"/>
<path d="M4520 8211 c0 -34 4 -61 10 -61 6 0 10 11 10 25 0 14 5 25 10 25 6 0
16 -11 22 -25 6 -14 16 -25 21 -25 5 0 2 11 -6 24 -14 21 -14 25 1 40 23 23 5
50 -37 54 l-31 3 0 -60z m60 24 c0 -8 -9 -15 -20 -15 -11 0 -20 7 -20 15 0 8
9 15 20 15 11 0 20 -7 20 -15z"/>
<path d="M4630 8210 l0 -60 35 0 c19 0 35 5 35 10 0 6 -13 10 -30 10 -20 0
-30 5 -30 15 0 9 9 15 25 15 14 0 25 5 25 10 0 6 -11 10 -25 10 -16 0 -25 6
-25 15 0 10 10 15 30 15 17 0 30 5 30 10 0 6 -16 10 -35 10 l-35 0 0 -60z"/>
<path d="M4730 8210 l0 -60 35 0 c19 0 35 5 35 10 0 6 -13 10 -30 10 -20 0
-30 5 -30 15 0 10 10 15 30 15 17 0 30 5 30 10 0 6 -13 10 -30 10 -20 0 -30 5
-30 15 0 10 10 15 30 15 17 0 30 5 30 10 0 6 -16 10 -35 10 l-35 0 0 -60z"/>
<path d="M4886 8254 c-9 -8 -16 -28 -16 -44 0 -48 48 -78 78 -48 19 19 14 29
-8 16 -26 -17 -55 0 -55 32 0 32 29 49 55 32 22 -13 27 -3 8 16 -17 17 -44 15
-62 -4z"/>
<path d="M5012 8263 c-7 -3 -17 -16 -22 -29 -22 -56 38 -107 80 -69 49 44 2
122 -58 98z m58 -33 c16 -31 -4 -62 -38 -58 -28 3 -40 32 -28 64 8 21 54 17
66 -6z"/>
<path d="M5122 8208 l1 -63 7 50 6 50 14 -47 c8 -27 17 -48 21 -48 4 0 13 17
20 38 19 59 24 60 30 7 l6 -50 1 63 c2 79 -17 84 -39 10 l-15 -53 -18 53 c-10
28 -22 52 -27 52 -5 0 -8 -28 -7 -62z"/>
<path d="M4770 6620 c0 -91 3 -110 15 -110 11 0 15 12 15 50 0 68 25 68 63 0
16 -28 35 -50 43 -50 13 0 10 10 -10 47 l-26 46 20 22 c27 28 26 70 -2 89 -13
9 -43 16 -70 16 l-48 0 0 -110z m110 59 c16 -28 -4 -49 -46 -49 -32 0 -34 2
-34 35 0 33 2 35 35 35 24 0 37 -6 45 -21z"/>
<path d="M5660 6696 c0 -34 -1 -35 -33 -29 -52 8 -88 -42 -73 -101 10 -42 32
-55 86 -54 l50 1 0 109 c0 89 -3 108 -15 108 -10 0 -15 -10 -15 -34z m-11 -60
c17 -21 10 -87 -11 -100 -28 -17 -52 5 -56 48 -4 41 11 66 38 66 10 0 23 -6
29 -14z"/>
<path d="M4973 6655 c-12 -9 -25 -31 -29 -49 -11 -62 31 -103 92 -91 48 9 43
27 -5 19 -33 -5 -41 -3 -50 14 -17 31 -15 32 44 32 47 0 55 3 55 19 0 28 -39
71 -64 71 -12 0 -31 -7 -43 -15z m65 -17 c24 -24 13 -38 -28 -38 -43 0 -45 2
-30 31 12 21 40 25 58 7z"/>
<path d="M5130 6652 c-17 -14 -23 -29 -23 -62 0 -48 27 -80 67 -80 30 0 61 24
52 39 -6 9 -12 8 -26 -4 -40 -36 -85 14 -64 72 11 33 39 41 64 18 14 -12 20
-13 26 -4 9 15 -22 39 -52 39 -12 0 -32 -8 -44 -18z"/>
<path d="M5286 6649 c-20 -16 -26 -29 -26 -59 0 -30 6 -43 26 -59 15 -12 34
-21 44 -21 10 0 29 9 44 21 20 16 26 29 26 59 0 30 -6 43 -26 59 -15 12 -34
21 -44 21 -10 0 -29 -9 -44 -21z m80 -25 c20 -29 11 -69 -18 -88 -23 -14 -50
2 -62 37 -11 31 15 77 44 77 11 0 27 -12 36 -26z"/>
<path d="M5450 6590 c0 -47 4 -80 10 -80 6 0 10 21 10 48 0 53 21 92 51 92 10
0 19 5 19 10 0 13 -26 13 -51 0 -13 -7 -19 -7 -19 0 0 5 -4 10 -10 10 -6 0
-10 -33 -10 -80z"/>
<path d="M5746 6654 c-9 -8 -16 -21 -16 -28 0 -17 29 -42 58 -51 14 -4 22 -13
20 -23 -4 -22 -39 -28 -53 -9 -7 9 -16 12 -24 8 -10 -6 -7 -12 10 -25 30 -20
63 -21 83 0 29 28 20 54 -24 71 -27 11 -40 22 -40 35 0 21 29 25 48 6 17 -17
28 -2 12 17 -16 20 -54 19 -74 -1z"/>
<path d="M4840 5740 c0 -5 9 -10 19 -10 16 0 21 -8 24 -42 l4 -43 1 43 c1 30
6 42 17 42 8 0 15 5 15 10 0 6 -18 10 -40 10 -22 0 -40 -4 -40 -10z"/>
<path d="M7351 5698 c2 -48 2 -50 8 -18 l7 35 20 -32 c10 -18 22 -33 27 -33 4
0 6 24 6 53 -2 51 -2 51 -8 12 l-6 -40 -18 32 c-28 52 -37 49 -36 -9z"/>
<path d="M9050 5745 c0 -16 33 -95 39 -95 8 0 43 92 37 98 -3 2 -12 -13 -21
-34 l-17 -39 -12 32 c-11 32 -26 53 -26 38z"/>
<path d="M9223 5700 c0 -30 2 -43 4 -27 2 15 2 39 0 55 -2 15 -4 2 -4 -28z"/>
<path d="M12280 5740 c0 -5 9 -10 19 -10 16 0 21 -8 24 -42 l4 -43 1 43 c1 30
6 42 17 42 8 0 15 5 15 10 0 6 -18 10 -40 10 -22 0 -40 -4 -40 -10z"/>
<path d="M12370 5740 c0 -5 7 -10 15 -10 11 0 15 -11 15 -40 0 -22 5 -40 10
-40 6 0 10 18 10 40 0 29 4 40 15 40 8 0 15 5 15 10 0 6 -18 10 -40 10 -22 0
-40 -4 -40 -10z"/>
<path d="M12472 5703 c-2 -53 -2 -53 28 -53 17 0 30 5 30 10 0 6 -11 10 -24
10 -22 0 -25 5 -29 43 -3 40 -4 40 -5 -10z"/>
<path d="M4934 5685 c9 -20 13 -42 10 -50 -4 -8 -3 -15 0 -15 6 0 46 84 46 96
0 2 -4 4 -9 4 -5 0 -12 -12 -16 -27 l-8 -28 -10 28 c-6 15 -15 27 -19 27 -5 0
-2 -16 6 -35z"/>
<path d="M5011 5666 c1 -31 4 -43 7 -31 4 11 16 20 27 20 16 0 20 7 20 30 0
26 -4 30 -27 31 -27 1 -28 -1 -27 -50z m42 19 c1 -5 -6 -11 -15 -13 -11 -2
-18 3 -18 13 0 17 30 18 33 0z"/>
<path d="M5097 5714 c-11 -11 -8 -52 3 -59 6 -3 20 -3 33 1 21 8 20 8 -8 15
l-30 7 28 1 c21 1 28 5 25 19 -3 17 -38 29 -51 16z"/>
<path d="M7450 5700 c-16 -30 -6 -50 25 -48 22 2 26 7 23 33 -4 36 -32 45 -48
15z m37 -26 c-3 -3 -12 -4 -19 -1 -8 3 -5 6 6 6 11 1 17 -2 13 -5z"/>
<path d="M7531 5681 c2 -31 3 -32 6 -8 5 34 33 36 33 2 0 -14 5 -25 10 -25 6
0 10 12 10 26 0 32 22 27 32 -7 5 -19 6 -17 5 11 -2 35 -2 35 -49 36 l-48 0 1
-35z"/>
<path d="M7657 5714 c-11 -11 -8 -52 3 -59 6 -3 20 -3 33 1 21 8 20 8 -8 15
l-30 7 28 1 c21 1 28 5 25 19 -3 17 -38 29 -51 16z"/>
<path d="M9149 5715 c-1 -3 -2 -8 -3 -12 -1 -5 -5 -13 -9 -19 -9 -15 11 -30
41 -32 16 0 22 5 22 22 0 12 -5 27 -12 34 -12 12 -37 16 -39 7z m28 -41 c-3
-3 -12 -4 -19 -1 -8 3 -5 6 6 6 11 1 17 -2 13 -5z"/>
<path d="M9250 5696 c0 -27 16 -42 48 -44 19 -1 22 4 22 34 0 19 -4 34 -10 34
-5 0 -10 -11 -10 -25 0 -16 -6 -25 -15 -25 -9 0 -15 9 -15 25 0 14 -4 25 -10
25 -5 0 -10 -11 -10 -24z"/>
<path d="M9347 5714 c-11 -11 -8 -52 3 -59 6 -3 20 -3 33 1 21 8 20 8 -8 15
l-30 7 28 1 c21 1 28 5 25 19 -3 17 -38 29 -51 16z"/>
<path d="M4867 5293 c-9 -25 -15 -48 -12 -51 3 -3 5 0 5 6 0 16 43 15 58 0 7
-7 12 -9 12 -6 0 9 -39 98 -42 98 -2 0 -11 -21 -21 -47z m36 -3 c4 -15 0 -20
-13 -20 -13 0 -17 5 -13 20 3 11 9 20 13 20 4 0 10 -9 13 -20z"/>
<path d="M7364 5318 l-19 -23 22 19 c17 14 31 17 55 12 23 -4 29 -3 18 4 -25
16 -56 11 -76 -12z"/>
<path d="M9055 5330 c-3 -5 -2 -10 4 -10 5 0 12 -19 14 -42 3 -41 4 -41 5 10
2 48 -8 66 -23 42z"/>
<path d="M9114 5328 c-4 -7 -9 -27 -11 -44 -3 -26 1 -34 18 -39 26 -9 55 17
43 37 -5 7 -8 22 -9 33 0 23 -29 32 -41 13z m36 -13 c0 -8 -7 -15 -15 -15 -8
0 -15 7 -15 15 0 8 7 15 15 15 8 0 15 -7 15 -15z m8 -42 c5 -17 -26 -29 -40
-15 -6 6 -7 15 -3 22 9 14 37 9 43 -7z"/>
<path d="M9225 5330 c-3 -5 -2 -10 4 -10 5 0 12 -19 14 -42 3 -41 4 -41 5 10
2 48 -8 66 -23 42z"/>
<path d="M9283 5333 c-20 -8 -15 -41 7 -48 17 -5 18 -10 9 -27 -8 -15 -8 -19
0 -14 6 4 18 21 27 37 22 43 -1 70 -43 52z m45 -20 c5 -17 -26 -29 -40 -15 -6
6 -7 15 -3 22 9 14 37 9 43 -7z"/>
<path d="M9360 5330 c-9 -6 -10 -10 -3 -10 7 0 14 -19 16 -42 3 -41 4 -41 5
10 1 28 1 52 0 52 -2 0 -10 -5 -18 -10z"/>
<path d="M9460 5308 c-22 -36 -22 -47 2 -62 12 -7 21 -6 32 3 22 18 20 38 -4
46 -16 5 -18 10 -10 26 18 32 1 21 -20 -13z m38 -35 c5 -17 -26 -29 -40 -15
-6 6 -7 15 -3 22 9 14 37 9 43 -7z"/>
<path d="M9547 5307 l-28 -37 25 0 c15 0 26 -7 29 -17 4 -17 5 -17 6 0 0 9 7
17 14 17 9 0 9 2 0 8 -6 4 -13 20 -15 36 l-3 30 -28 -37z m23 -7 c0 -11 -7
-20 -15 -20 -13 0 -13 3 -3 20 7 11 14 20 15 20 2 0 3 -9 3 -20z"/>
<path d="M9665 5329 c-4 -6 -4 -13 -1 -16 3 -4 6 -1 6 5 0 7 6 12 14 12 29 0
28 -23 -3 -50 -17 -16 -31 -31 -31 -34 0 -3 19 -5 43 -4 38 1 39 2 8 5 l-33 4
27 29 c24 25 26 32 15 45 -14 17 -36 20 -45 4z"/>
<path d="M9738 5315 c-13 -30 3 -75 27 -75 8 0 22 11 31 25 15 23 15 27 0 50
-9 14 -23 25 -31 25 -9 0 -21 -11 -27 -25z m47 -25 c0 -40 -29 -55 -40 -21 -9
30 4 63 23 59 12 -2 17 -14 17 -38z"/>
<path d="M12306 5305 c-15 -28 -17 -37 -6 -50 16 -19 34 -19 51 1 11 14 10 19
-9 34 -13 11 -20 24 -16 34 11 28 -1 17 -20 -19z m42 -32 c5 -17 -26 -29 -40
-15 -6 6 -7 15 -3 22 9 14 37 9 43 -7z"/>
<path d="M12378 5315 c-13 -30 3 -75 27 -75 8 0 22 11 31 25 15 23 15 27 0 50
-9 14 -23 25 -31 25 -9 0 -21 -11 -27 -25z m47 -25 c0 -24 -5 -36 -17 -38 -19
-4 -32 29 -23 59 11 34 40 19 40 -21z"/>
<path d="M12472 5328 c-17 -17 -15 -63 4 -79 22 -18 48 0 52 35 6 45 -29 71
-56 44z m43 -18 c9 -29 -4 -62 -23 -58 -18 3 -28 39 -18 64 8 21 34 17 41 -6z"/>
<path d="M13010 5322 c0 -13 -7 -18 -22 -18 -19 1 -23 -4 -23 -29 0 -26 4 -30
28 -31 26 -1 27 1 27 47 0 27 -2 49 -5 49 -3 0 -5 -8 -5 -18z m-5 -47 c0 -11
-8 -21 -17 -23 -14 -3 -18 3 -18 23 0 20 4 26 18 23 9 -2 17 -12 17 -23z"/>
<path d="M14174 5309 c-3 -6 3 -21 15 -32 16 -16 23 -19 33 -9 9 9 7 16 -7 32
-20 23 -31 25 -41 9z"/>
<path d="M7380 5289 c-15 -26 -5 -51 17 -47 10 1 24 -1 31 -6 8 -5 19 -3 25 3
9 9 8 10 -7 5 -16 -6 -18 -3 -15 27 4 30 2 35 -18 37 -14 1 -27 -6 -33 -19z
m40 -8 c0 -24 -18 -37 -31 -24 -13 13 -1 43 17 43 8 0 14 -9 14 -19z"/>
<path d="M7458 5283 c5 -21 7 -23 10 -9 2 10 0 22 -6 28 -6 6 -7 0 -4 -19z"/>
<path d="M12585 5300 c-3 -5 3 -15 15 -22 26 -17 26 -32 -1 -25 -16 4 -19 3
-11 -5 12 -12 42 -4 42 11 0 6 -10 16 -22 22 -22 12 -22 12 -3 20 16 6 17 8 3
8 -9 1 -20 -3 -23 -9z"/>
<path d="M12650 5289 c-13 -24 2 -50 29 -48 13 1 13 2 -1 6 -27 7 -21 23 7 23
23 0 24 2 15 20 -14 26 -36 26 -50 -1z m40 1 c0 -5 -7 -10 -15 -10 -8 0 -15 5
-15 10 0 6 7 10 15 10 8 0 15 -4 15 -10z"/>
<path d="M12730 5295 c-22 -27 17 -72 41 -48 6 6 2 9 -13 9 -17 -1 -23 5 -23
19 0 14 6 20 22 19 12 0 20 3 17 8 -8 13 -30 9 -44 -7z"/>
<path d="M12800 5296 c-27 -33 18 -72 48 -42 13 13 14 20 6 34 -15 23 -38 26
-54 8z m48 -19 c4 -20 -25 -34 -40 -19 -15 15 -1 44 19 40 10 -2 19 -11 21
-21z"/>
<path d="M12883 5275 c0 -22 2 -30 4 -17 2 12 2 30 0 40 -3 9 -5 -1 -4 -23z"/>
<path d="M12913 5299 c9 -5 17 -22 18 -37 0 -15 3 -21 6 -14 9 23 -7 62 -25
62 -16 -1 -16 -1 1 -11z"/>
<path d="M13047 5303 c-12 -12 -7 -22 13 -28 27 -9 26 -29 -1 -22 -16 4 -19 3
-11 -5 12 -12 42 -4 42 11 0 6 -10 16 -22 22 -22 12 -22 12 -3 20 15 5 16 8 4
8 -9 1 -19 -2 -22 -6z"/>
<path d="M7341 5273 c-1 -13 8 -32 19 -43 11 -11 30 -20 43 -19 17 1 15 3 -10
10 -25 7 -35 17 -42 42 -7 25 -9 27 -10 10z"/>
<path d="M14088 5222 c-56 -57 -61 -74 -29 -92 14 -7 29 2 75 49 l56 57 -23
22 -23 22 -56 -58z"/>
<path d="M14002 5111 c-10 -29 -10 -29 19 -19 29 10 29 11 13 29 -22 24 -20
24 -32 -10z"/>
<path d="M4880 4786 c0 -2 11 -6 25 -8 13 -3 22 -1 19 3 -5 9 -44 13 -44 5z"/>
<path d="M4962 4738 l1 -53 4 44 4 45 25 -42 c14 -23 27 -42 30 -42 2 0 3 24
3 53 -2 52 -2 52 -8 12 l-7 -40 -19 38 c-10 20 -22 37 -27 37 -4 0 -7 -24 -6
-52z"/>
<path d="M5075 4745 c-9 -25 -14 -49 -11 -52 3 -4 6 -1 6 5 0 16 43 15 59 0
13 -13 -15 69 -29 85 -4 4 -15 -13 -25 -38z m35 -11 c0 -8 -7 -14 -15 -14 -17
0 -18 2 -9 24 7 18 24 12 24 -10z"/>
<path d="M5162 4738 l1 -53 6 45 6 45 13 -42 c11 -38 32 -59 32 -34 0 5 5 22
12 38 l12 28 6 -40 c7 -40 7 -40 9 13 1 57 -13 69 -30 25 -5 -16 -12 -35 -15
-43 -4 -10 -11 0 -21 28 -20 57 -33 53 -31 -10z"/>
<path d="M5290 4740 l0 -50 33 1 c30 2 30 2 5 6 -16 2 -28 10 -28 18 0 8 12
16 28 18 l27 4 -27 2 c-21 1 -28 6 -28 20 0 14 8 21 28 24 25 4 25 4 -5 6
l-33 1 0 -50z"/>
<path d="M9074 4768 l-19 -23 22 19 c17 14 31 17 55 12 23 -4 29 -3 18 4 -25
16 -56 11 -76 -12z"/>
<path d="M12295 4780 c-3 -5 -2 -10 4 -10 5 0 12 -19 14 -42 3 -41 4 -41 5 10
2 48 -8 66 -23 42z"/>
<path d="M12393 4740 c0 -30 2 -45 4 -32 3 15 11 22 28 22 17 0 25 -7 28 -22
2 -13 4 2 4 32 0 30 -2 43 -4 28 -3 -22 -10 -28 -28 -28 -18 0 -25 6 -28 28
-2 15 -4 2 -4 -28z"/>
<path d="M4854 4756 c-3 -14 -2 -31 3 -40 6 -11 8 -3 8 24 0 46 -2 50 -11 16z"/>
<path d="M7346 4768 c3 -4 11 -5 19 -1 21 7 19 12 -4 10 -11 0 -18 -5 -15 -9z"/>
<path d="M14174 4759 c-3 -6 3 -21 15 -32 16 -16 23 -19 33 -9 9 9 7 16 -7 32
-20 23 -31 25 -41 9z"/>
<path d="M9090 4739 c-15 -26 -5 -51 17 -47 10 1 24 -1 31 -6 8 -5 19 -3 25 3
9 9 8 10 -7 5 -16 -6 -18 -3 -15 27 4 30 2 35 -18 37 -14 1 -27 -6 -33 -19z
m40 -8 c0 -24 -18 -37 -31 -24 -13 13 -1 43 17 43 8 0 14 -9 14 -19z"/>
<path d="M9168 4733 c5 -21 7 -23 10 -9 2 10 0 22 -6 28 -6 6 -7 0 -4 -19z"/>
<path d="M12490 4746 c-27 -33 18 -72 48 -42 13 13 14 20 6 34 -15 23 -38 26
-54 8z m48 -19 c4 -20 -25 -34 -40 -19 -15 15 -1 44 19 40 10 -2 19 -11 21
-21z"/>
<path d="M12574 4731 c0 -21 7 -36 16 -38 10 -3 11 -2 3 4 -6 4 -13 22 -16 38
-4 27 -5 27 -3 -4z"/>
<path d="M12610 4725 c0 -19 5 -35 10 -35 6 0 10 16 10 35 0 19 -4 35 -10 35
-5 0 -10 -16 -10 -35z"/>
<path d="M12651 4720 c1 -27 3 -29 6 -10 2 14 11 30 20 37 13 10 13 12 -6 10
-17 -1 -21 -7 -20 -37z"/>
<path d="M9051 4723 c-1 -29 33 -63 62 -62 17 1 15 3 -10 10 -25 7 -35 17 -42
42 -7 25 -9 27 -10 10z"/>
<path d="M14088 4672 c-56 -57 -61 -74 -29 -92 14 -7 29 2 75 49 l56 57 -23
22 -23 22 -56 -58z"/>
<path d="M4888 4693 c7 -3 16 -2 19 1 4 3 -2 6 -13 5 -11 0 -14 -3 -6 -6z"/>
<path d="M14002 4561 c-10 -29 -10 -29 19 -19 29 10 29 11 13 29 -22 24 -20
24 -32 -10z"/>
<path d="M4880 4236 c0 -2 11 -6 25 -8 13 -3 22 -1 19 3 -5 9 -44 13 -44 5z"/>
<path d="M4962 4188 l1 -53 4 44 4 45 25 -42 c14 -23 27 -42 30 -42 2 0 3 24
3 53 -2 52 -2 52 -8 12 l-7 -40 -19 38 c-10 20 -22 37 -27 37 -4 0 -7 -24 -6
-52z"/>
<path d="M5075 4195 c-9 -25 -14 -49 -11 -52 3 -4 6 -1 6 5 0 16 43 15 59 0
13 -13 -15 69 -29 85 -4 4 -15 -13 -25 -38z m35 -11 c0 -8 -7 -14 -15 -14 -17
0 -18 2 -9 24 7 18 24 12 24 -10z"/>
<path d="M5162 4188 l1 -53 6 45 6 45 13 -42 c11 -38 32 -59 32 -34 0 5 5 22
12 38 l12 28 6 -40 c7 -40 7 -40 9 13 1 57 -13 69 -30 25 -5 -16 -12 -35 -15
-43 -4 -10 -11 0 -21 28 -20 57 -33 53 -31 -10z"/>
<path d="M5290 4190 l0 -50 33 1 c30 2 30 2 5 6 -16 2 -28 10 -28 18 0 8 12
16 28 18 l27 4 -27 2 c-21 1 -28 6 -28 20 0 14 8 21 28 24 25 4 25 4 -5 6
l-33 1 0 -50z"/>
<path d="M7480 4222 c0 -13 -7 -18 -22 -18 -19 1 -23 -4 -23 -29 0 -26 4 -30
28 -31 26 -1 27 1 27 47 0 27 -2 49 -5 49 -3 0 -5 -8 -5 -18z m-5 -47 c0 -11
-8 -21 -17 -23 -14 -3 -18 3 -18 23 0 20 4 26 18 23 9 -2 17 -12 17 -23z"/>
<path d="M8390 4228 c0 -9 -6 -19 -12 -21 -10 -4 -10 -6 0 -6 7 -1 12 -14 12
-31 0 -16 3 -30 8 -30 8 0 6 89 -2 98 -3 3 -6 -2 -6 -10z"/>
<path d="M9190 4222 c0 -13 -7 -18 -22 -18 -19 1 -23 -4 -23 -29 0 -26 4 -30
28 -31 26 -1 27 1 27 47 0 27 -2 49 -5 49 -3 0 -5 -8 -5 -18z m-5 -47 c0 -11
-8 -21 -17 -23 -14 -3 -18 3 -18 23 0 20 4 26 18 23 9 -2 17 -12 17 -23z"/>
<path d="M10100 4228 c0 -9 -6 -19 -12 -21 -10 -4 -10 -6 0 -6 7 -1 12 -14 12
-31 0 -16 3 -30 8 -30 8 0 6 89 -2 98 -3 3 -6 -2 -6 -10z"/>
<path d="M10313 4190 c0 -30 2 -43 4 -27 2 15 2 39 0 55 -2 15 -4 2 -4 -28z"/>
<path d="M10430 4226 c0 -7 -9 -16 -20 -19 -26 -7 -36 -33 -20 -52 17 -21 50
-19 50 3 0 14 -2 14 -9 3 -11 -17 -41 -7 -41 14 0 21 30 31 41 14 6 -10 9 -4
9 19 0 17 -2 32 -5 32 -3 0 -5 -6 -5 -14z"/>
<path d="M11109 4225 c-7 -30 4 -78 19 -81 7 -1 8 0 2 3 -14 7 -12 53 3 53 8
0 9 3 1 8 -6 4 -13 14 -16 22 -3 11 -6 9 -9 -5z"/>
<path d="M11293 4190 c0 -30 2 -43 4 -27 2 15 2 39 0 55 -2 15 -4 2 -4 -28z"/>
<path d="M12295 4230 c-3 -5 -2 -10 4 -10 5 0 12 -19 14 -42 3 -41 4 -41 5 10
2 48 -8 66 -23 42z"/>
<path d="M12393 4190 c0 -30 2 -45 4 -32 3 15 11 22 28 22 17 0 25 -7 28 -22
2 -13 4 2 4 32 0 30 -2 43 -4 28 -3 -22 -10 -28 -28 -28 -18 0 -25 6 -28 28
-2 15 -4 2 -4 -28z"/>
<path d="M4854 4206 c-3 -14 -2 -31 3 -40 6 -11 8 -3 8 24 0 46 -2 50 -11 16z"/>
<path d="M14174 4209 c-3 -6 3 -21 15 -32 16 -16 23 -19 33 -9 9 9 7 16 -7 32
-20 23 -31 25 -41 9z"/>
<path d="M7523 4203 c-22 -8 -15 -51 9 -59 28 -9 52 20 37 47 -10 19 -22 22
-46 12z m37 -28 c0 -25 -23 -35 -35 -15 -10 16 2 40 20 40 9 0 15 -9 15 -25z"/>
<path d="M7591 4173 l1 -38 9 33 c12 39 36 42 42 5 4 -26 4 -26 3 2 -1 25 -6
31 -28 33 -26 3 -28 1 -27 -35z"/>
<path d="M7667 4203 c6 -4 13 -22 16 -38 4 -27 5 -27 3 4 0 21 -7 36 -16 38
-10 3 -11 2 -3 -4z"/>
<path d="M7726 4201 c-3 -5 3 -7 14 -4 11 3 20 0 20 -6 0 -6 -9 -11 -20 -11
-13 0 -20 -7 -20 -20 0 -13 6 -20 18 -19 10 0 12 3 5 6 -18 7 -16 23 1 23 8 0
17 -8 20 -17 2 -10 4 -2 3 17 -2 34 -27 54 -41 31z"/>
<path d="M7803 4175 c0 -22 2 -30 4 -17 2 12 2 30 0 40 -3 9 -5 -1 -4 -23z"/>
<path d="M7831 4171 c1 -36 1 -36 8 -6 8 40 38 46 44 8 4 -28 4 -28 3 2 -1 26
-5 30 -28 31 -26 1 -28 -2 -27 -35z"/>
<path d="M7920 4195 c-22 -27 17 -72 41 -48 6 6 2 9 -13 9 -17 -1 -23 5 -23
19 0 14 6 20 22 19 12 0 20 3 17 8 -8 13 -30 9 -44 -7z"/>
<path d="M7990 4196 c-27 -33 18 -72 48 -42 13 13 14 20 6 34 -15 23 -38 26
-54 8z m48 -19 c4 -20 -25 -34 -40 -19 -15 15 -1 44 19 40 10 -2 19 -11 21
-21z"/>
<path d="M8073 4175 c0 -22 2 -30 4 -17 2 12 2 30 0 40 -3 9 -5 -1 -4 -23z"/>
<path d="M8103 4199 c9 -5 17 -22 18 -37 0 -15 3 -21 6 -14 9 23 -7 62 -25 62
-16 -1 -16 -1 1 -11z"/>
<path d="M8151 4171 c1 -36 1 -36 8 -6 8 40 38 46 44 8 4 -28 4 -28 3 2 -1 26
-5 30 -28 31 -26 1 -28 -2 -27 -35z"/>
<path d="M8266 4195 c19 -14 19 -14 -3 -15 -12 0 -24 6 -26 13 -3 6 -6 0 -6
-14 -1 -26 15 -40 42 -38 7 0 1 5 -13 12 l-25 11 28 4 c15 2 27 7 27 11 0 10
-22 31 -34 31 -5 0 -1 -7 10 -15z"/>
<path d="M8317 4203 c-4 -3 -7 -17 -7 -30 0 -26 26 -41 42 -25 8 8 5 9 -11 5
-18 -4 -21 -1 -21 22 0 22 4 26 20 22 11 -3 18 -1 14 4 -6 11 -28 12 -37 2z"/>
<path d="M9233 4203 c-22 -8 -15 -51 9 -59 28 -9 52 20 37 47 -10 19 -22 22
-46 12z m37 -28 c0 -25 -23 -35 -35 -15 -10 16 2 40 20 40 9 0 15 -9 15 -25z"/>
<path d="M9301 4173 l1 -38 9 33 c12 39 36 42 42 5 4 -26 4 -26 3 2 -1 25 -6
31 -28 33 -26 3 -28 1 -27 -35z"/>
<path d="M9377 4203 c6 -4 13 -22 16 -38 4 -27 5 -27 3 4 0 21 -7 36 -16 38
-10 3 -11 2 -3 -4z"/>
<path d="M9436 4201 c-3 -5 3 -7 14 -4 11 3 20 0 20 -6 0 -6 -9 -11 -20 -11
-13 0 -20 -7 -20 -20 0 -13 6 -20 18 -19 10 0 12 3 5 6 -18 7 -16 23 1 23 8 0
17 -8 20 -17 2 -10 4 -2 3 17 -2 34 -27 54 -41 31z"/>
<path d="M9513 4175 c0 -22 2 -30 4 -17 2 12 2 30 0 40 -3 9 -5 -1 -4 -23z"/>
<path d="M9541 4171 c1 -36 1 -36 8 -6 8 40 38 46 44 8 4 -28 4 -28 3 2 -1 26
-5 30 -28 31 -26 1 -28 -2 -27 -35z"/>
<path d="M9630 4195 c-22 -27 17 -72 41 -48 6 6 2 9 -13 9 -17 -1 -23 5 -23
19 0 14 6 20 22 19 12 0 20 3 17 8 -8 13 -30 9 -44 -7z"/>
<path d="M9700 4196 c-27 -33 18 -72 48 -42 13 13 14 20 6 34 -15 23 -38 26
-54 8z m48 -19 c4 -20 -25 -34 -40 -19 -15 15 -1 44 19 40 10 -2 19 -11 21
-21z"/>
<path d="M9783 4175 c0 -22 2 -30 4 -17 2 12 2 30 0 40 -3 9 -5 -1 -4 -23z"/>
<path d="M9813 4199 c9 -5 17 -22 18 -37 0 -15 3 -21 6 -14 9 23 -7 62 -25 62
-16 -1 -16 -1 1 -11z"/>
<path d="M9861 4171 c1 -36 1 -36 8 -6 8 40 38 46 44 8 4 -28 4 -28 3 2 -1 26
-5 30 -28 31 -26 1 -28 -2 -27 -35z"/>
<path d="M9976 4195 c19 -14 19 -14 -3 -15 -12 0 -24 6 -26 13 -3 6 -6 0 -6
-14 -1 -26 15 -40 42 -38 7 0 1 5 -13 12 l-25 11 28 4 c15 2 27 7 27 11 0 10
-22 31 -34 31 -5 0 -1 -7 10 -15z"/>
<path d="M10027 4203 c-4 -3 -7 -17 -7 -30 0 -26 26 -41 42 -25 8 8 5 9 -11 5
-18 -4 -21 -1 -21 22 0 22 4 26 20 22 11 -3 18 -1 14 4 -6 11 -28 12 -37 2z"/>
<path d="M10184 4196 c-11 -27 1 -51 24 -50 28 1 29 -23 2 -29 -17 -4 -16 -4
2 -3 20 1 23 7 26 46 3 43 1 46 -23 48 -15 1 -28 -4 -31 -12z m43 -12 c8 -21
-13 -42 -28 -27 -13 13 -5 43 11 43 6 0 13 -7 17 -16z"/>
<path d="M10264 4196 c-10 -25 0 -51 21 -54 18 -2 19 -2 3 8 -10 6 -18 17 -18
25 0 8 8 19 18 24 16 10 16 10 -1 11 -10 0 -20 -6 -23 -14z"/>
<path d="M10470 4196 c-27 -33 18 -72 48 -42 13 13 14 20 6 34 -15 23 -38 26
-54 8z m48 -19 c4 -20 -25 -34 -40 -19 -15 15 -1 44 19 40 10 -2 19 -11 21
-21z"/>
<path d="M10551 4171 c1 -36 1 -36 8 -6 3 17 13 30 21 30 8 0 18 -13 21 -30
l7 -30 1 33 c1 21 6 32 15 32 9 0 17 -13 19 -32 l5 -33 -2 35 c-1 35 -1 35
-48 36 l-48 1 1 -36z"/>
<path d="M10700 4198 l25 -11 -25 -6 c-34 -9 -32 -36 3 -37 21 -1 27 3 27 20
0 26 -18 46 -39 45 -9 0 -5 -5 9 -11z m15 -38 c-3 -5 -13 -10 -21 -10 -8 0
-14 5 -14 10 0 6 9 10 21 10 11 0 17 -4 14 -10z"/>
<path d="M10753 4175 c0 -22 2 -30 4 -17 2 12 2 30 0 40 -3 9 -5 -1 -4 -23z"/>
<path d="M10793 4175 c0 -22 2 -30 4 -17 2 12 2 30 0 40 -3 9 -5 -1 -4 -23z"/>
<path d="M10823 4199 c9 -5 17 -22 18 -37 0 -15 3 -21 6 -14 9 23 -7 62 -25
62 -16 -1 -16 -1 1 -11z"/>
<path d="M10877 4203 c-4 -3 -7 -17 -7 -30 0 -26 26 -41 42 -25 8 8 5 9 -11 5
-18 -4 -21 -1 -21 22 0 22 4 26 20 22 11 -3 18 -1 14 4 -6 11 -28 12 -37 2z"/>
<path d="M10953 4203 c-22 -8 -15 -51 9 -59 28 -9 52 20 37 47 -10 19 -22 22
-46 12z m37 -28 c0 -25 -23 -35 -35 -15 -10 16 2 40 20 40 9 0 15 -9 15 -25z"/>
<path d="M11021 4171 c1 -36 1 -36 8 -6 8 40 38 46 44 8 4 -28 4 -28 3 2 -1
26 -5 30 -28 31 -26 1 -28 -2 -27 -35z"/>
<path d="M11163 4175 c0 -22 2 -30 4 -17 2 12 2 30 0 40 -3 9 -5 -1 -4 -23z"/>
<path d="M11214 4196 c-9 -23 0 -51 16 -52 9 0 10 1 3 3 -20 7 -16 51 5 56 16
4 16 5 -1 6 -10 0 -20 -5 -23 -13z"/>
<path d="M11370 4195 c-22 -27 17 -72 41 -48 6 6 2 9 -13 9 -17 -1 -23 5 -23
19 0 14 6 20 22 19 12 0 20 3 17 8 -8 13 -30 9 -44 -7z"/>
<path d="M11440 4196 c-27 -33 18 -72 48 -42 13 13 14 20 6 34 -15 23 -38 26
-54 8z m48 -19 c4 -20 -25 -34 -40 -19 -15 15 -1 44 19 40 10 -2 19 -11 21
-21z"/>
<path d="M11523 4175 c0 -22 2 -30 4 -17 2 12 2 30 0 40 -3 9 -5 -1 -4 -23z"/>
<path d="M11548 4203 c6 -3 13 -19 13 -36 l1 -32 7 30 c9 43 38 45 44 3 l5
-33 -2 35 c-1 34 -2 35 -41 36 -22 1 -34 -1 -27 -3z"/>
<path d="M12490 4196 c-27 -33 18 -72 48 -42 13 13 14 20 6 34 -15 23 -38 26
-54 8z m48 -19 c4 -20 -25 -34 -40 -19 -15 15 -1 44 19 40 10 -2 19 -11 21
-21z"/>
<path d="M12574 4181 c0 -21 7 -36 16 -38 10 -3 11 -2 3 4 -6 4 -13 22 -16 38
-4 27 -5 27 -3 -4z"/>
<path d="M12610 4175 c0 -19 5 -35 10 -35 6 0 10 16 10 35 0 19 -4 35 -10 35
-5 0 -10 -16 -10 -35z"/>
<path d="M12651 4170 c1 -27 3 -29 6 -10 2 14 11 30 20 37 13 10 13 12 -6 10
-17 -1 -21 -7 -20 -37z"/>
<path d="M11262 4175 c0 -16 2 -22 5 -12 2 9 2 23 0 30 -3 6 -5 -1 -5 -18z"/>
<path d="M14088 4122 c-56 -57 -61 -74 -29 -92 14 -7 29 2 75 49 l56 57 -23
22 -23 22 -56 -58z"/>
<path d="M4888 4143 c7 -3 16 -2 19 1 4 3 -2 6 -13 5 -11 0 -14 -3 -6 -6z"/>
<path d="M7363 4133 c9 -2 23 -2 30 0 6 3 -1 5 -18 5 -16 0 -22 -2 -12 -5z"/>
<path d="M9073 4133 c9 -2 23 -2 30 0 6 3 -1 5 -18 5 -16 0 -22 -2 -12 -5z"/>
<path d="M14002 4011 c-10 -29 -10 -29 19 -19 29 10 29 11 13 29 -22 24 -20
24 -32 -10z"/>
<path d="M4862 3638 c1 -44 2 -47 5 -15 3 22 8 35 15 31 6 -4 6 2 -1 15 -18
32 -21 26 -19 -31z"/>
<path d="M4920 3654 c0 -32 -2 -35 -16 -24 -13 12 -14 10 -3 -13 19 -41 29
-32 29 23 0 28 -2 50 -5 50 -3 0 -5 -16 -5 -36z"/>
<path d="M4963 3674 c-6 -16 13 -38 40 -47 19 -6 -5 -29 -26 -23 -14 3 -17 2
-9 -6 13 -13 52 -1 52 18 0 8 -11 20 -25 26 -30 14 -35 43 -5 35 11 -3 18 -1
14 4 -9 15 -34 10 -41 -7z"/>
<path d="M7364 3668 l-19 -23 22 19 c17 14 31 17 55 12 23 -4 29 -3 18 4 -25
16 -56 11 -76 -12z"/>
<path d="M9210 3681 c0 -5 -3 -16 -6 -24 -4 -11 1 -13 20 -10 23 5 26 2 26
-21 0 -28 -18 -34 -38 -14 -9 9 -12 9 -12 1 0 -14 36 -27 50 -18 19 11 11 57
-10 62 -27 7 -25 21 3 26 19 4 18 4 -5 6 -16 0 -28 -3 -28 -8z"/>
<path d="M9290 3680 c-9 -6 -10 -10 -3 -10 7 0 14 -19 16 -42 3 -41 4 -41 5
10 1 28 1 52 0 52 -2 0 -10 -5 -18 -10z"/>
<path d="M9423 3640 c0 -30 2 -43 4 -27 2 15 2 39 0 55 -2 15 -4 2 -4 -28z"/>
<path d="M10099 3675 c-6 -27 1 -85 10 -85 4 0 6 14 3 30 -3 21 0 30 9 30 10
0 10 3 3 8 -6 4 -13 14 -16 22 -4 11 -6 10 -9 -5z"/>
<path d="M10283 3640 c0 -30 2 -43 4 -27 2 15 2 39 0 55 -2 15 -4 2 -4 -28z"/>
<path d="M12295 3680 c-3 -5 -2 -10 4 -10 5 0 12 -19 14 -42 3 -41 4 -41 5 10
2 48 -8 66 -23 42z"/>
<path d="M12393 3640 c0 -30 2 -45 4 -32 3 15 11 22 28 22 17 0 25 -7 28 -22
2 -13 4 2 4 32 0 30 -2 43 -4 28 -3 -22 -10 -28 -28 -28 -18 0 -25 6 -28 28
-2 15 -4 2 -4 -28z"/>
<path d="M7380 3639 c-15 -26 -5 -51 17 -47 10 1 24 -1 31 -6 8 -5 19 -3 25 3
9 9 8 10 -7 5 -16 -6 -18 -3 -15 27 4 30 2 35 -18 37 -14 1 -27 -6 -33 -19z
m40 -8 c0 -24 -18 -37 -31 -24 -13 13 -1 43 17 43 8 0 14 -9 14 -19z"/>
<path d="M7458 3633 c5 -21 7 -23 10 -9 2 10 0 22 -6 28 -6 6 -7 0 -4 -19z"/>
<path d="M9051 3621 c1 -36 1 -36 8 -6 8 40 38 46 44 8 4 -28 4 -28 3 2 -1 26
-5 30 -28 31 -26 1 -28 -2 -27 -35z"/>
<path d="M9135 3650 c-3 -5 3 -15 15 -22 26 -17 26 -32 -1 -25 -16 4 -19 3
-11 -5 12 -12 42 -4 42 11 0 6 -10 16 -22 22 -22 12 -22 12 -3 20 16 6 17 8 3
8 -9 1 -20 -3 -23 -9z"/>
<path d="M9374 3646 c-10 -25 0 -51 21 -54 18 -2 19 -2 3 8 -10 6 -18 17 -18
25 0 8 8 19 18 24 16 10 16 10 -1 11 -10 0 -20 -6 -23 -14z"/>
<path d="M9460 3646 c-27 -33 18 -72 48 -42 13 13 14 20 6 34 -15 23 -38 26
-54 8z m48 -19 c4 -20 -25 -34 -40 -19 -15 15 -1 44 19 40 10 -2 19 -11 21
-21z"/>
<path d="M9543 3625 c0 -22 2 -30 4 -17 2 12 2 30 0 40 -3 9 -5 -1 -4 -23z"/>
<path d="M9568 3653 c6 -3 13 -19 13 -36 l1 -32 7 30 c9 43 38 45 44 3 l5 -33
-2 35 c-1 34 -2 35 -41 36 -22 1 -34 -1 -27 -3z"/>
<path d="M9690 3648 l25 -11 -25 -6 c-34 -9 -32 -36 3 -37 21 -1 27 3 27 20 0
26 -18 46 -39 45 -9 0 -5 -5 9 -11z m15 -38 c-3 -5 -13 -10 -21 -10 -8 0 -14
5 -14 10 0 6 9 10 21 10 11 0 17 -4 14 -10z"/>
<path d="M9743 3625 c0 -22 2 -30 4 -17 2 12 2 30 0 40 -3 9 -5 -1 -4 -23z"/>
<path d="M9783 3625 c0 -22 2 -30 4 -17 2 12 2 30 0 40 -3 9 -5 -1 -4 -23z"/>
<path d="M9808 3653 c6 -2 12 -18 12 -34 0 -16 5 -29 10 -29 6 0 10 7 10 16 0
23 -19 54 -33 53 -9 0 -9 -2 1 -6z"/>
<path d="M9860 3645 c-22 -27 17 -72 41 -48 6 6 2 9 -13 9 -17 -1 -23 5 -23
19 0 14 6 20 22 19 12 0 20 3 17 8 -8 13 -30 9 -44 -7z"/>
<path d="M9934 3646 c-9 -23 0 -51 16 -52 9 0 10 1 3 3 -20 7 -16 51 5 56 16
4 16 5 -1 6 -10 0 -20 -5 -23 -13z"/>
<path d="M10011 3621 c1 -36 1 -36 8 -6 8 40 38 46 44 8 4 -28 4 -28 3 2 -1
26 -5 30 -28 31 -26 1 -28 -2 -27 -35z"/>
<path d="M10141 3620 l1 -35 8 29 c5 16 15 33 22 37 8 5 5 8 -10 6 -18 -1 -22
-7 -21 -37z"/>
<path d="M10200 3646 c-27 -33 18 -72 48 -42 13 13 14 20 6 34 -15 23 -38 26
-54 8z m48 -19 c4 -20 -25 -34 -40 -19 -15 15 -1 44 19 40 10 -2 19 -11 21
-21z"/>
<path d="M10357 3653 c-4 -3 -7 -17 -7 -30 0 -26 26 -41 42 -25 8 8 5 9 -11 5
-18 -4 -21 -1 -21 22 0 22 4 26 20 22 11 -3 18 -1 14 4 -6 11 -28 12 -37 2z"/>
<path d="M10430 3646 c-27 -33 18 -72 48 -42 13 13 14 20 6 34 -15 23 -38 26
-54 8z m48 -19 c4 -20 -25 -34 -40 -19 -15 15 -1 44 19 40 10 -2 19 -11 21
-21z"/>
<path d="M10513 3625 c0 -22 2 -30 4 -17 2 12 2 30 0 40 -3 9 -5 -1 -4 -23z"/>
<path d="M10538 3653 c6 -3 13 -19 13 -36 l1 -32 7 30 c3 17 13 30 21 30 8 0
18 -13 21 -30 6 -27 7 -27 8 -5 1 36 -10 47 -49 47 -19 0 -29 -2 -22 -4z"/>
<path d="M12490 3646 c-27 -33 18 -72 48 -42 13 13 14 20 6 34 -15 23 -38 26
-54 8z m48 -19 c4 -20 -25 -34 -40 -19 -15 15 -1 44 19 40 10 -2 19 -11 21
-21z"/>
<path d="M12574 3631 c0 -21 7 -36 16 -38 10 -3 11 -2 3 4 -6 4 -13 22 -16 38
-4 27 -5 27 -3 -4z"/>
<path d="M12610 3625 c0 -19 5 -35 10 -35 6 0 10 16 10 35 0 19 -4 35 -10 35
-5 0 -10 -16 -10 -35z"/>
<path d="M12651 3620 c1 -27 3 -29 6 -10 2 14 11 30 20 37 13 10 13 12 -6 10
-17 -1 -21 -7 -20 -37z"/>
<path d="M9982 3625 c0 -16 2 -22 5 -12 2 9 2 23 0 30 -3 6 -5 -1 -5 -18z"/>
<path d="M7341 3623 c-1 -29 33 -63 62 -62 17 1 15 3 -10 10 -25 7 -35 17 -42
42 -7 25 -9 27 -10 10z"/>
<path d="M4862 3228 c1 -44 2 -47 5 -15 3 22 8 35 15 31 6 -4 6 2 -1 15 -18
32 -21 26 -19 -31z"/>
<path d="M4920 3244 c0 -32 -2 -35 -16 -24 -13 12 -14 10 -3 -13 19 -41 29
-32 29 23 0 28 -2 50 -5 50 -3 0 -5 -16 -5 -36z"/>
<path d="M4963 3264 c-6 -16 13 -38 40 -47 19 -6 -5 -29 -26 -23 -14 3 -17 2
-9 -6 13 -13 52 -1 52 18 0 8 -11 20 -25 26 -30 14 -35 43 -5 35 11 -3 18 -1
14 4 -9 15 -34 10 -41 -7z"/>
<path d="M7364 3258 l-19 -23 22 19 c17 14 31 17 55 12 23 -4 29 -3 18 4 -25
16 -56 11 -76 -12z"/>
<path d="M9210 3271 c0 -5 -3 -16 -6 -24 -4 -11 1 -13 20 -10 23 5 26 2 26
-21 0 -28 -18 -34 -38 -14 -9 9 -12 9 -12 1 0 -14 36 -27 50 -18 19 11 11 57
-10 62 -27 7 -25 21 3 26 19 4 18 4 -5 6 -16 0 -28 -3 -28 -8z"/>
<path d="M9295 3269 c-4 -6 -4 -13 -1 -16 3 -4 6 -1 6 5 0 7 7 12 15 12 21 0
19 -37 -4 -49 -10 -6 -21 -17 -25 -26 -4 -12 3 -15 37 -13 37 1 38 2 9 5 l-33
4 26 31 c20 24 23 33 14 44 -14 17 -35 18 -44 3z"/>
<path d="M9453 3230 c0 -30 2 -43 4 -27 2 15 2 39 0 55 -2 15 -4 2 -4 -28z"/>
<path d="M10129 3265 c-7 -30 4 -78 19 -81 7 -1 8 0 2 3 -14 7 -12 53 3 53 8
0 9 3 1 8 -6 4 -13 14 -16 22 -3 11 -6 9 -9 -5z"/>
<path d="M10313 3230 c0 -30 2 -43 4 -27 2 15 2 39 0 55 -2 15 -4 2 -4 -28z"/>
<path d="M12295 3270 c-3 -5 -2 -10 4 -10 5 0 12 -19 14 -42 3 -41 4 -41 5 10
2 48 -8 66 -23 42z"/>
<path d="M12393 3230 c0 -30 2 -45 4 -32 3 15 11 22 28 22 17 0 25 -7 28 -22
2 -13 4 2 4 32 0 30 -2 43 -4 28 -3 -22 -10 -28 -28 -28 -18 0 -25 6 -28 28
-2 15 -4 2 -4 -28z"/>
<path d="M7380 3229 c-15 -26 -5 -51 17 -47 10 1 24 -1 31 -6 8 -5 19 -3 25 3
9 9 8 10 -7 5 -16 -6 -18 -3 -15 27 4 30 2 35 -18 37 -14 1 -27 -6 -33 -19z
m40 -8 c0 -24 -18 -37 -31 -24 -13 13 -1 43 17 43 8 0 14 -9 14 -19z"/>
<path d="M7458 3223 c5 -21 7 -23 10 -9 2 10 0 22 -6 28 -6 6 -7 0 -4 -19z"/>
<path d="M9051 3211 c1 -36 1 -36 8 -6 8 40 38 46 44 8 4 -28 4 -28 3 2 -1 26
-5 30 -28 31 -26 1 -28 -2 -27 -35z"/>
<path d="M9135 3240 c-3 -5 3 -15 15 -22 26 -17 26 -32 -1 -25 -16 4 -19 3
-11 -5 12 -12 42 -4 42 11 0 6 -10 16 -22 22 -22 12 -22 12 -3 20 16 6 17 8 3
8 -9 1 -20 -3 -23 -9z"/>
<path d="M9404 3236 c-10 -25 0 -51 21 -54 18 -2 19 -2 3 8 -10 6 -18 17 -18
25 0 8 8 19 18 24 16 10 16 10 -1 11 -10 0 -20 -6 -23 -14z"/>
<path d="M9490 3236 c-27 -33 18 -72 48 -42 13 13 14 20 6 34 -15 23 -38 26
-54 8z m48 -19 c4 -20 -25 -34 -40 -19 -15 15 -1 44 19 40 10 -2 19 -11 21
-21z"/>
<path d="M9573 3215 c0 -22 2 -30 4 -17 2 12 2 30 0 40 -3 9 -5 -1 -4 -23z"/>
<path d="M9598 3243 c6 -3 13 -19 13 -36 l1 -32 7 30 c9 43 38 45 44 3 l5 -33
-2 35 c-1 34 -2 35 -41 36 -22 1 -34 -1 -27 -3z"/>
<path d="M9720 3238 l25 -11 -25 -6 c-34 -9 -32 -36 3 -37 21 -1 27 3 27 20 0
26 -18 46 -39 45 -9 0 -5 -5 9 -11z m15 -38 c-3 -5 -13 -10 -21 -10 -8 0 -14
5 -14 10 0 6 9 10 21 10 11 0 17 -4 14 -10z"/>
<path d="M9773 3215 c0 -22 2 -30 4 -17 2 12 2 30 0 40 -3 9 -5 -1 -4 -23z"/>
<path d="M9813 3215 c0 -22 2 -30 4 -17 2 12 2 30 0 40 -3 9 -5 -1 -4 -23z"/>
<path d="M9843 3239 c9 -5 17 -22 18 -37 0 -15 3 -21 6 -14 9 23 -7 62 -25 62
-16 -1 -16 -1 1 -11z"/>
<path d="M9897 3243 c-4 -3 -7 -17 -7 -30 0 -26 26 -41 42 -25 8 8 5 9 -11 5
-18 -4 -21 -1 -21 22 0 22 4 26 20 22 11 -3 18 -1 14 4 -6 11 -28 12 -37 2z"/>
<path d="M9964 3236 c-9 -23 0 -51 16 -52 9 0 10 1 3 3 -20 7 -16 51 5 56 16
4 16 5 -1 6 -10 0 -20 -5 -23 -13z"/>
<path d="M10041 3211 c1 -36 1 -36 8 -6 8 40 38 46 44 8 4 -28 4 -28 3 2 -1
26 -5 30 -28 31 -26 1 -28 -2 -27 -35z"/>
<path d="M10183 3215 c0 -22 2 -30 4 -17 2 12 2 30 0 40 -3 9 -5 -1 -4 -23z"/>
<path d="M10234 3236 c-9 -23 0 -51 16 -52 9 0 10 1 3 3 -20 7 -16 51 5 56 16
4 16 5 -1 6 -10 0 -20 -5 -23 -13z"/>
<path d="M10390 3235 c-22 -27 17 -72 41 -48 6 6 2 9 -13 9 -17 -1 -23 5 -23
19 0 14 6 20 22 19 12 0 20 3 17 8 -8 13 -30 9 -44 -7z"/>
<path d="M10460 3236 c-27 -33 18 -72 48 -42 13 13 14 20 6 34 -15 23 -38 26
-54 8z m48 -19 c4 -20 -25 -34 -40 -19 -15 15 -1 44 19 40 10 -2 19 -11 21
-21z"/>
<path d="M10543 3215 c0 -22 2 -30 4 -17 2 12 2 30 0 40 -3 9 -5 -1 -4 -23z"/>
<path d="M10568 3243 c6 -3 13 -19 13 -36 l1 -32 7 30 c9 43 38 45 44 3 l5
-33 -2 35 c-1 34 -2 35 -41 36 -22 1 -34 -1 -27 -3z"/>
<path d="M12490 3236 c-27 -33 18 -72 48 -42 13 13 14 20 6 34 -15 23 -38 26
-54 8z m48 -19 c4 -20 -25 -34 -40 -19 -15 15 -1 44 19 40 10 -2 19 -11 21
-21z"/>
<path d="M12574 3221 c0 -21 7 -36 16 -38 10 -3 11 -2 3 4 -6 4 -13 22 -16 38
-4 27 -5 27 -3 -4z"/>
<path d="M12610 3215 c0 -19 5 -35 10 -35 6 0 10 16 10 35 0 19 -4 35 -10 35
-5 0 -10 -16 -10 -35z"/>
<path d="M12651 3210 c1 -27 3 -29 6 -10 2 14 11 30 20 37 13 10 13 12 -6 10
-17 -1 -21 -7 -20 -37z"/>
<path d="M10012 3215 c0 -16 2 -22 5 -12 2 9 2 23 0 30 -3 6 -5 -1 -5 -18z"/>
<path d="M10282 3215 c0 -16 2 -22 5 -12 2 9 2 23 0 30 -3 6 -5 -1 -5 -18z"/>
<path d="M7341 3213 c-1 -29 33 -63 62 -62 17 1 15 3 -10 10 -25 7 -35 17 -42
42 -7 25 -9 27 -10 10z"/>
<path d="M4862 2857 c-13 -15 -4 -31 21 -40 20 -7 23 -37 4 -37 -7 0 -18 5
-25 12 -9 9 -12 9 -12 1 0 -14 36 -27 50 -18 17 11 11 43 -10 50 -27 9 -27 39
0 32 11 -3 18 -1 14 4 -8 13 -30 11 -42 -4z"/>
<path d="M4946 2854 c-30 -29 -9 -84 32 -84 12 0 9 4 -8 13 -16 8 -25 21 -25
37 0 16 9 29 25 37 17 9 20 13 8 13 -9 0 -24 -7 -32 -16z"/>
<path d="M5055 2825 c-9 -25 -14 -49 -11 -52 3 -4 6 -1 6 5 0 16 43 15 59 0
13 -13 -15 69 -29 85 -4 4 -15 -13 -25 -38z m35 -11 c0 -8 -7 -14 -15 -14 -17
0 -18 2 -9 24 7 18 24 12 24 -10z"/>
<path d="M7364 2848 l-19 -23 22 19 c17 14 31 17 55 12 23 -4 29 -3 18 4 -25
16 -56 11 -76 -12z"/>
<path d="M9061 2818 c1 -29 4 -43 6 -30 2 12 10 22 17 22 8 0 19 7 26 15 16
19 -3 45 -31 45 -16 0 -19 -7 -18 -52z m44 22 c0 -8 -8 -16 -17 -18 -13 -2
-18 3 -18 18 0 15 5 20 18 18 9 -2 17 -10 17 -18z"/>
<path d="M10610 2846 c0 -19 4 -23 20 -19 24 6 39 -22 21 -40 -9 -9 -17 -8
-34 2 -21 13 -21 13 -4 -5 13 -15 21 -16 35 -8 24 16 21 47 -5 59 -31 13 -29
23 5 28 25 4 25 4 -5 6 -29 1 -33 -2 -33 -23z"/>
<path d="M10695 2860 c-3 -5 -2 -10 4 -10 5 0 12 -19 14 -42 3 -41 4 -41 5 10
2 48 -8 66 -23 42z"/>
<path d="M10830 2855 c0 -8 -9 -15 -20 -15 -25 0 -41 -30 -29 -53 6 -9 21 -17
34 -17 23 0 25 4 25 50 0 28 -2 50 -5 50 -3 0 -5 -7 -5 -15z m-2 -48 c4 -21
-27 -35 -38 -17 -12 19 0 42 19 38 9 -2 17 -11 19 -21z"/>
<path d="M11510 2858 c0 -9 -6 -19 -12 -21 -10 -4 -10 -6 0 -6 7 -1 12 -14 12
-31 0 -16 3 -30 8 -30 8 0 6 89 -2 98 -3 3 -6 -2 -6 -10z"/>
<path d="M11693 2820 c0 -30 2 -43 4 -27 2 15 2 39 0 55 -2 15 -4 2 -4 -28z"/>
<path d="M12295 2860 c-3 -5 -2 -10 4 -10 5 0 12 -19 14 -42 3 -41 4 -41 5 10
2 48 -8 66 -23 42z"/>
<path d="M12393 2820 c0 -30 2 -45 4 -32 3 15 11 22 28 22 17 0 25 -7 28 -22
2 -13 4 2 4 32 0 30 -2 43 -4 28 -3 -22 -10 -28 -28 -28 -18 0 -25 6 -28 28
-2 15 -4 2 -4 -28z"/>
<path d="M5005 2820 c0 -21 3 -36 8 -33 4 2 7 17 7 33 0 16 -3 31 -7 33 -5 3
-8 -12 -8 -33z"/>
<path d="M7380 2819 c-15 -26 -5 -51 17 -47 10 1 24 -1 31 -6 8 -5 19 -3 25 3
9 9 8 10 -7 5 -16 -6 -18 -3 -15 27 4 30 2 35 -18 37 -14 1 -27 -6 -33 -19z
m40 -8 c0 -24 -18 -37 -31 -24 -13 13 -1 43 17 43 8 0 14 -9 14 -19z"/>
<path d="M7458 2813 c5 -21 7 -23 10 -9 2 10 0 22 -6 28 -6 6 -7 0 -4 -19z"/>
<path d="M9143 2805 c0 -22 2 -30 4 -17 2 12 2 30 0 40 -3 9 -5 -1 -4 -23z"/>
<path d="M9190 2805 c0 -19 5 -35 10 -35 6 0 10 16 10 35 0 19 -4 35 -10 35
-5 0 -10 -16 -10 -35z"/>
<path d="M9231 2801 c1 -36 1 -36 8 -6 3 17 13 30 21 30 8 0 18 -13 21 -30 l7
-30 1 33 c1 21 6 32 15 32 9 0 17 -13 19 -32 l5 -33 -2 35 c-1 35 -1 35 -48
36 l-48 1 1 -36z"/>
<path d="M9366 2831 c-3 -5 3 -7 14 -4 11 3 20 1 20 -5 0 -6 -10 -12 -22 -14
-34 -5 -29 -33 5 -34 26 -1 28 2 25 30 -3 30 -29 48 -42 27z m29 -41 c-3 -5
-10 -10 -16 -10 -5 0 -9 5 -9 10 0 6 7 10 16 10 8 0 12 -4 9 -10z"/>
<path d="M9431 2800 l1 -35 8 29 c5 16 15 33 22 37 8 5 5 8 -10 6 -18 -1 -22
-7 -21 -37z"/>
<path d="M9498 2820 c2 -8 6 -30 9 -49 l6 -34 19 48 c10 26 17 50 14 52 -3 3
-8 -6 -12 -21 -8 -32 -17 -33 -30 -3 -6 12 -8 15 -6 7z"/>
<path d="M9613 2805 c0 -22 2 -30 4 -17 2 12 2 30 0 40 -3 9 -5 -1 -4 -23z"/>
<path d="M9638 2833 c6 -2 12 -18 12 -34 0 -16 5 -29 10 -29 6 0 10 7 10 16 0
23 -19 54 -33 53 -9 0 -9 -2 1 -6z"/>
<path d="M9696 2831 c-3 -5 3 -7 14 -4 11 3 20 0 20 -6 0 -6 -9 -11 -20 -11
-13 0 -20 -7 -20 -20 0 -13 6 -20 18 -19 10 0 12 3 5 6 -18 7 -16 23 1 23 8 0
17 -8 20 -17 2 -10 4 -2 3 17 -2 34 -27 54 -41 31z"/>
<path d="M9773 2805 c0 -22 2 -30 4 -17 2 12 2 30 0 40 -3 9 -5 -1 -4 -23z"/>
<path d="M9798 2833 c6 -3 13 -19 13 -36 l1 -32 7 30 c3 17 13 30 21 30 8 0
18 -13 21 -30 6 -27 7 -27 8 -5 1 36 -10 47 -49 47 -19 0 -29 -2 -22 -4z"/>
<path d="M9894 2826 c-11 -28 1 -51 26 -53 22 -1 22 -1 3 4 -31 6 -29 23 2 23
27 0 32 9 13 28 -16 16 -37 15 -44 -2z m41 -6 c3 -5 -3 -10 -14 -10 -12 0 -21
5 -21 10 0 6 6 10 14 10 8 0 18 -4 21 -10z"/>
<path d="M9965 2830 c-3 -5 3 -15 15 -22 26 -17 26 -32 -1 -25 -16 4 -19 3
-11 -5 12 -12 42 -4 42 11 0 6 -10 16 -22 22 -22 12 -22 12 -3 20 16 6 17 8 3
8 -9 1 -20 -3 -23 -9z"/>
<path d="M10034 2826 c-11 -28 1 -51 26 -53 22 -1 22 -1 3 4 -31 6 -29 23 2
23 27 0 32 9 13 28 -16 16 -37 15 -44 -2z m41 -6 c3 -5 -3 -10 -14 -10 -12 0
-21 5 -21 10 0 6 6 10 14 10 8 0 18 -4 21 -10z"/>
<path d="M10113 2805 c0 -22 2 -30 4 -17 2 12 2 30 0 40 -3 9 -5 -1 -4 -23z"/>
<path d="M10165 2823 c4 -10 10 -26 12 -35 3 -10 9 -18 14 -18 12 0 12 2 -7
38 -16 34 -31 45 -19 15z"/>
<path d="M10206 2825 c-9 -26 -7 -32 5 -12 6 10 9 21 6 23 -2 3 -7 -2 -11 -11z"/>
<path d="M10240 2825 c-17 -20 -2 -49 26 -52 13 -2 11 1 -6 9 l-25 12 28 4
c20 2 27 8 25 20 -4 23 -32 26 -48 7z m40 -5 c0 -5 -9 -10 -21 -10 -11 0 -17
5 -14 10 3 6 13 10 21 10 8 0 14 -4 14 -10z"/>
<path d="M10311 2800 l1 -35 8 29 c5 16 15 33 22 37 8 5 5 8 -10 6 -18 -1 -22
-7 -21 -37z"/>
<path d="M10463 2805 c0 -22 2 -30 4 -17 2 12 2 30 0 40 -3 9 -5 -1 -4 -23z"/>
<path d="M10493 2829 c9 -5 17 -22 18 -37 0 -15 3 -21 6 -14 9 23 -7 62 -25
62 -16 -1 -16 -1 1 -11z"/>
<path d="M10544 2829 c-4 -7 1 -16 10 -21 20 -11 21 -32 0 -24 -8 3 -12 2 -9
-4 9 -15 32 -12 39 5 3 9 -3 19 -17 26 -21 12 -21 12 -2 20 16 6 17 8 3 8 -9
1 -20 -4 -24 -10z"/>
<path d="M10864 2826 c-9 -23 0 -51 16 -52 9 0 10 1 3 3 -20 7 -16 51 5 56 16
4 16 5 -1 6 -10 0 -20 -5 -23 -13z"/>
<path d="M10941 2803 l1 -38 9 33 c12 39 36 42 42 5 4 -26 4 -26 3 2 -1 25 -6
31 -28 33 -26 3 -28 1 -27 -35z"/>
<path d="M11017 2833 c6 -4 13 -22 16 -38 4 -27 5 -27 3 4 0 21 -7 36 -16 38
-10 3 -11 2 -3 -4z"/>
<path d="M11076 2831 c-3 -5 3 -7 14 -4 11 3 20 0 20 -6 0 -6 -9 -11 -20 -11
-13 0 -20 -7 -20 -20 0 -13 6 -20 18 -19 10 0 12 3 5 6 -18 7 -16 23 1 23 8 0
17 -8 20 -17 2 -10 4 -2 3 17 -2 34 -27 54 -41 31z"/>
<path d="M11153 2805 c0 -22 2 -30 4 -17 2 12 2 30 0 40 -3 9 -5 -1 -4 -23z"/>
<path d="M11181 2801 c1 -36 1 -36 8 -6 8 40 38 46 44 8 4 -28 4 -28 3 2 -1
26 -5 30 -28 31 -26 1 -28 -2 -27 -35z"/>
<path d="M11270 2825 c-22 -27 17 -72 41 -48 6 6 2 9 -13 9 -17 -1 -23 5 -23
19 0 14 6 20 22 19 12 0 20 3 17 8 -8 13 -30 9 -44 -7z"/>
<path d="M11340 2826 c-27 -33 18 -72 48 -42 13 13 14 20 6 34 -15 23 -38 26
-54 8z m48 -19 c4 -20 -25 -34 -40 -19 -15 15 -1 44 19 40 10 -2 19 -11 21
-21z"/>
<path d="M11423 2805 c0 -22 2 -30 4 -17 2 12 2 30 0 40 -3 9 -5 -1 -4 -23z"/>
<path d="M11453 2829 c9 -5 17 -22 18 -37 0 -15 3 -21 6 -14 9 23 -7 62 -25
62 -16 -1 -16 -1 1 -11z"/>
<path d="M11551 2800 c1 -27 3 -29 6 -10 2 14 11 30 20 37 13 10 13 12 -6 10
-17 -1 -21 -7 -20 -37z"/>
<path d="M11610 2826 c-27 -33 18 -72 48 -42 13 13 14 20 6 34 -15 23 -38 26
-54 8z m48 -19 c4 -20 -25 -34 -40 -19 -15 15 -1 44 19 40 10 -2 19 -11 21
-21z"/>
<path d="M11767 2833 c-4 -3 -7 -17 -7 -30 0 -26 26 -41 42 -25 8 8 5 9 -11 5
-18 -4 -21 -1 -21 22 0 22 4 26 20 22 11 -3 18 -1 14 4 -6 11 -28 12 -37 2z"/>
<path d="M11834 2826 c-9 -23 0 -51 16 -52 9 0 10 1 3 3 -20 7 -16 51 5 56 16
4 16 5 -1 6 -10 0 -20 -5 -23 -13z"/>
<path d="M11911 2803 l1 -38 9 33 c12 39 36 42 42 5 4 -26 4 -26 3 2 -1 25 -6
31 -28 33 -26 3 -28 1 -27 -35z"/>
<path d="M11987 2833 c6 -4 13 -22 16 -38 4 -27 5 -27 3 4 0 21 -7 36 -16 38
-10 3 -11 2 -3 -4z"/>
<path d="M12490 2826 c-27 -33 18 -72 48 -42 13 13 14 20 6 34 -15 23 -38 26
-54 8z m48 -19 c4 -20 -25 -34 -40 -19 -15 15 -1 44 19 40 10 -2 19 -11 21
-21z"/>
<path d="M12574 2811 c0 -21 7 -36 16 -38 10 -3 11 -2 3 4 -6 4 -13 22 -16 38
-4 27 -5 27 -3 -4z"/>
<path d="M12610 2805 c0 -19 5 -35 10 -35 6 0 10 16 10 35 0 19 -4 35 -10 35
-5 0 -10 -16 -10 -35z"/>
<path d="M12651 2800 c1 -27 3 -29 6 -10 2 14 11 30 20 37 13 10 13 12 -6 10
-17 -1 -21 -7 -20 -37z"/>
<path d="M10912 2805 c0 -16 2 -22 5 -12 2 9 2 23 0 30 -3 6 -5 -1 -5 -18z"/>
<path d="M11882 2805 c0 -16 2 -22 5 -12 2 9 2 23 0 30 -3 6 -5 -1 -5 -18z"/>
<path d="M7341 2803 c-1 -29 33 -63 62 -62 17 1 15 3 -10 10 -25 7 -35 17 -42
42 -7 25 -9 27 -10 10z"/>
<path d="M13952 2280 c-17 -49 -18 -60 -6 -60 8 0 14 7 14 15 0 9 9 15 25 15
16 0 25 -6 25 -15 0 -8 7 -15 16 -15 11 0 14 5 9 18 -4 9 -14 36 -22 60 -8 23
-21 42 -28 42 -7 0 -22 -27 -33 -60z m47 -2 c1 -5 -6 -8 -15 -8 -11 0 -14 5
-10 16 3 9 6 21 7 27 0 12 17 -20 18 -35z"/>
<path d="M14060 2280 l0 -60 33 0 c40 0 67 25 67 62 0 33 -29 58 -68 58 l-32
0 0 -60z m70 20 c14 -26 -3 -60 -30 -60 -17 0 -20 7 -20 40 0 33 3 40 20 40
10 0 24 -9 30 -20z"/>
<path d="M14180 2280 l0 -60 34 0 c42 0 66 22 66 60 0 38 -24 60 -66 60 l-34
0 0 -60z m75 20 c10 -33 -4 -60 -31 -60 -21 0 -24 4 -24 40 0 36 3 40 24 40
16 0 27 -7 31 -20z"/>
<path d="M4770 500 l0 -100 -2385 0 -2385 0 0 -200 0 -200 515 0 c337 0 515 3
515 10 0 6 73 10 200 10 127 0 200 -4 200 -10 0 -5 20 -10 45 -10 25 0 45 5
45 10 0 6 73 10 200 10 127 0 200 -4 200 -10 0 -5 20 -10 45 -10 25 0 45 5 45
10 0 6 73 10 200 10 127 0 200 -4 200 -10 0 -6 97 -10 270 -10 173 0 270 4
270 10 0 16 437 13 443 -2 4 -10 6 -10 6 0 1 14 31 17 31 2 0 -6 97 -10 270
-10 173 0 270 4 270 10 0 6 73 10 200 10 127 0 200 -4 200 -10 0 -5 20 -10 45
-10 25 0 45 5 45 10 0 16 307 13 313 -2 4 -10 6 -10 6 0 1 15 81 17 81 2 0 -5
20 -10 45 -10 25 0 45 5 45 10 0 6 73 10 200 10 127 0 200 -4 200 -10 0 -5 20
-10 45 -10 25 0 45 5 45 10 0 6 73 10 200 10 127 0 200 -4 200 -10 0 -5 20
-10 45 -10 25 0 45 5 45 10 0 6 73 10 200 10 127 0 200 -4 200 -10 0 -7 2152
-10 6435 -10 l6435 0 0 200 0 200 -6331 0 c-5843 0 -6331 1 -6325 16 8 21 -9
42 -51 59 -18 8 -33 19 -33 25 0 17 31 24 51 12 11 -7 20 -8 24 -2 3 6 -5 15
-19 22 -37 16 -76 -3 -76 -38 0 -21 8 -29 40 -41 41 -17 52 -39 24 -50 -9 -3
-25 -1 -35 5 -23 15 -42 16 -34 2 4 -6 -12 -10 -39 -10 l-46 0 0 38 c0 44 23
82 51 82 10 0 19 5 19 10 0 13 -26 13 -51 0 -13 -7 -19 -7 -19 0 0 5 -4 10
-10 10 -6 0 -10 -30 -10 -69 l0 -68 -65 0 c-53 0 -67 3 -75 18 -15 28 -13 29
45 29 47 0 55 3 55 19 0 28 -39 71 -64 71 -53 0 -92 -71 -67 -119 11 -20 9
-21 -29 -21 -22 0 -40 4 -40 8 0 5 11 36 25 71 20 53 22 62 8 59 -9 -2 -23
-24 -32 -50 -9 -26 -19 -50 -23 -53 -3 -4 -14 18 -24 49 -10 31 -24 56 -31 56
-18 0 -17 -7 11 -78 l25 -62 -70 0 -69 0 0 38 c0 44 23 82 51 82 10 0 19 5 19
10 0 13 -26 13 -51 0 -13 -7 -19 -7 -19 0 0 5 -4 10 -10 10 -6 0 -10 -30 -10
-69 l0 -69 -62 0 c-64 1 -88 10 -88 34 0 10 15 14 56 14 l56 0 -6 28 c-8 34
-41 62 -71 62 -48 0 -86 -95 -53 -128 9 -9 6 -12 -16 -12 -22 0 -27 4 -22 16
8 21 -9 42 -51 59 -18 8 -33 19 -33 25 0 17 31 24 51 12 11 -7 20 -8 24 -2 3
6 -5 15 -19 22 -37 16 -76 -3 -76 -38 0 -21 8 -29 40 -41 41 -17 52 -39 24
-50 -9 -3 -25 -1 -35 5 -22 14 -43 16 -35 3 8 -12 -106 -11 -121 1 -30 24 -14
38 43 38 l56 0 -6 28 c-8 34 -41 62 -71 62 -48 0 -86 -95 -53 -128 9 -9 5 -12
-20 -12 l-32 0 0 54 c0 76 -30 103 -81 75 -14 -7 -24 -7 -33 0 -6 5 -31 9 -54
8 l-42 -1 0 -68 c0 -66 -1 -68 -25 -68 -23 0 -25 3 -25 50 0 55 -23 90 -61 90
-28 0 -61 -19 -53 -31 4 -6 11 -6 19 1 20 16 59 8 63 -12 3 -14 -4 -18 -31
-18 -40 0 -72 -29 -64 -60 4 -17 0 -20 -24 -20 l-29 0 0 100 c0 82 -3 100 -15
100 -12 0 -15 -16 -15 -87 l0 -88 -47 88 c-32 60 -52 87 -65 87 -16 0 -18 -10
-18 -100z m110 -92 c0 -5 -18 -8 -40 -8 l-40 0 0 78 0 77 40 -70 c22 -38 40
-73 40 -77z m368 50 l3 -58 -36 0 c-33 0 -35 2 -35 34 0 56 16 88 43 84 19 -3
22 -10 25 -60z m90 50 c7 -7 12 -34 12 -60 l0 -48 -35 0 -35 0 0 48 c0 47 12
72 35 72 6 0 16 -5 23 -12z m172 -7 c15 -29 13 -31 -30 -31 -41 0 -52 14 -28
38 18 18 46 14 58 -7z m300 0 c15 -29 13 -31 -30 -31 -41 0 -52 14 -28 38 18
18 46 14 58 -7z m438 7 c24 -24 13 -38 -28 -38 -43 0 -45 2 -30 31 12 21 40
25 58 7z m-1168 -71 c0 -18 -21 -37 -41 -37 -22 0 -33 16 -25 35 7 19 66 20
66 2z m13138 -144 c-1 -44 -2 -45 -5 -10 -2 20 -9 37 -14 37 -6 0 -7 5 -4 10
14 23 25 7 23 -37z m56 32 c-11 -8 -14 -15 -6 -15 12 0 52 -35 52 -46 0 -3 -7
-4 -15 0 -8 3 -15 1 -15 -4 0 -6 -10 -9 -22 -9 -17 1 -19 2 -5 6 21 5 23 43 2
43 -8 0 -15 9 -15 20 0 14 7 20 22 20 21 0 21 0 2 -15z m90 0 c-16 -12 -17
-14 -3 -15 9 0 19 -7 23 -15 9 -24 -4 -45 -28 -44 -16 1 -17 2 -3 6 21 5 23
43 2 43 -8 0 -15 9 -15 20 0 14 7 20 22 20 21 0 21 0 2 -15z m60 0 c-16 -12
-17 -14 -3 -15 9 0 19 -7 23 -15 9 -24 -4 -45 -28 -44 -16 1 -17 2 -3 6 21 5
23 43 2 43 -8 0 -15 9 -15 20 0 14 7 20 22 20 21 0 21 0 2 -15z m-16138 -36
c26 -25 49 -82 40 -104 -4 -11 -21 -15 -58 -15 -35 0 -64 -7 -86 -20 -40 -25
-45 -25 -37 -1 5 16 0 20 -22 23 -25 3 -28 6 -27 41 1 40 31 81 69 98 32 14
95 3 121 -22z m1471 -1 c35 -33 47 -80 30 -120 -20 -46 -54 -75 -69 -60 -15
15 -92 16 -83 2 12 -19 -12 -10 -33 13 -29 31 -43 72 -36 106 7 32 48 76 79
84 34 9 89 -4 112 -25z m469 -14 c44 -44 46 -49 41 -91 -3 -27 -14 -54 -28
-69 -29 -31 -39 -30 -39 1 0 16 -6 25 -15 25 -9 0 -15 -9 -15 -25 0 -18 -5
-25 -20 -25 -14 0 -20 7 -20 23 0 27 -10 41 -31 49 -12 5 -15 0 -12 -20 3 -27
3 -27 -12 3 -15 30 -12 83 6 117 7 13 55 41 96 57 1 1 23 -20 49 -45z m991 13
c9 -9 10 -21 4 -44 -8 -27 -6 -32 10 -36 28 -8 23 -44 -10 -78 -56 -55 -154
-32 -180 42 -9 27 -8 32 9 36 14 4 21 17 26 49 5 39 10 45 38 52 34 10 83 0
103 -21z m13103 23 c0 -5 -4 -10 -10 -10 -5 0 -10 5 -10 10 0 6 5 10 10 10 6
0 10 -4 10 -10z m-15612 -48 c4 -53 22 -54 46 -5 l18 38 19 -24 c20 -24 26
-76 10 -86 -6 -3 -15 4 -21 15 -6 11 -16 20 -22 20 -6 0 -2 -10 10 -23 29 -31
28 -51 -4 -76 -33 -26 -105 -29 -128 -5 -32 32 -14 89 34 107 12 4 11 6 -2 6
-10 1 -27 -8 -38 -19 -28 -28 -40 -25 -40 8 0 31 29 65 70 81 37 14 45 9 48
-37z m2062 -7 c0 -42 3 -55 15 -55 12 0 15 -14 15 -65 l0 -65 -80 0 c-47 0
-80 4 -80 10 0 6 -20 10 -45 10 l-45 0 0 110 0 110 110 0 110 0 0 -55z m1448
18 c-3 -34 -6 -38 -34 -41 -34 -3 -55 22 -28 32 9 3 12 1 9 -4 -3 -6 3 -10 14
-10 16 0 21 6 21 25 0 22 -4 25 -36 25 -35 0 -36 -1 -32 -37 2 -21 7 -41 13
-45 11 -8 55 0 70 13 15 14 27 10 23 -8 -2 -13 -14 -18 -48 -19 -49 -1 -80
-11 -80 -26 0 -5 5 -6 10 -3 6 4 10 -5 10 -19 0 -24 -3 -26 -46 -26 l-45 0 3
38 c3 36 4 37 43 35 25 -2 33 0 22 5 -16 7 -16 8 1 20 13 10 17 23 14 48 l-4
34 52 0 51 0 -3 -37z m-498 12 c11 -7 12 -101 1 -150 -8 -37 -26 -41 -96 -20
-49 14 -54 18 -45 35 15 28 12 60 -5 60 -19 0 -19 3 6 52 l21 41 54 -6 c29 -3
58 -8 64 -12z m-4429 -5 l39 0 0 -80 c0 -69 -2 -80 -17 -81 -88 -5 -152 -4
-170 2 -21 8 -23 15 -23 82 0 41 3 77 8 81 4 5 34 5 66 2 32 -3 76 -6 97 -6z
m-971 -35 c0 -35 0 -35 -45 -35 -43 0 -45 1 -45 29 0 30 10 36 68 40 19 1 22
-4 22 -34z m462 18 c40 -36 5 -101 -49 -90 -22 4 -36 -1 -63 -26 l-35 -32 32
35 c25 27 30 41 26 63 -10 53 48 87 89 50z m18168 -21 c0 -33 -4 -39 -30 -49
-19 -7 -35 -24 -43 -43 -12 -27 -15 -29 -27 -16 -7 9 -23 16 -36 16 -23 0 -24
3 -24 65 l0 65 80 0 80 0 0 -38z m-18730 -2 c0 -27 -3 -30 -30 -30 -25 0 -30
4 -30 24 0 23 12 32 48 35 7 1 12 -11 12 -29z m16824 14 c9 -8 16 -21 16 -28
0 -8 7 -19 15 -26 18 -15 20 -51 3 -68 -17 -17 -53 -15 -68 3 -7 8 -18 15 -26
15 -22 0 -44 30 -44 60 0 36 24 60 60 60 16 0 36 -7 44 -16z m526 -54 c0 -20
-7 -45 -16 -56 -15 -19 -16 -19 -8 1 4 11 8 36 8 55 0 19 -4 44 -8 55 -8 20
-7 20 8 1 9 -11 16 -36 16 -56z m-14277 36 c14 -20 -1 -88 -25 -112 -13 -13
-38 -27 -57 -30 l-34 -7 16 24 c22 31 21 39 -5 39 -13 0 -29 4 -37 9 -19 12
-17 58 4 81 15 17 26 19 74 13 31 -3 60 -11 64 -17z m14177 -38 c0 -59 -1 -60
-18 -45 -10 10 -24 17 -30 17 -7 0 -12 14 -12 30 0 19 5 30 14 30 7 0 19 7 26
15 7 8 14 15 16 15 2 0 4 -28 4 -62z m-175 40 c-42 -15 -56 -27 -77 -73 -17
-34 -18 -36 -13 -10 10 48 62 94 105 94 8 -1 2 -5 -15 -11z m245 -38 c0 -15
-7 -33 -16 -40 -13 -12 -14 -10 -3 13 10 21 10 33 0 54 -11 23 -10 25 3 13 9
-7 16 -25 16 -40z m193 43 c-27 -5 -31 -32 -5 -34 16 -1 16 -2 0 -6 -26 -6
-22 -31 5 -36 19 -4 18 -4 -5 -6 -27 -1 -28 1 -28 44 0 43 1 45 28 44 23 -2
24 -2 5 -6z m55 0 c-24 -6 -23 -18 4 -35 27 -18 18 -48 -14 -47 -17 1 -18 2
-5 6 23 6 22 25 -3 41 -24 15 -16 42 14 41 16 -1 17 -2 4 -6z m80 -21 c3 -17
-2 -25 -17 -29 -11 -3 -22 -12 -24 -22 -3 -9 -5 6 -6 32 -1 45 1 48 22 45 14
-2 23 -11 25 -26z m-1062 -24 l29 -33 -32 29 -33 30 -32 -30 -33 -29 29 33
c17 17 33 32 36 32 3 0 19 -15 36 -32z m704 2 c0 -10 -3 -21 -7 -23 -5 -3 -8
8 -8 23 0 15 3 26 8 23 4 -2 7 -13 7 -23z m-218 5 c-20 -9 -38 -27 -47 -47 -9
-21 -14 -26 -15 -15 0 24 53 77 77 77 11 -1 6 -6 -15 -15z m-17072 -41 c0 -33
-2 -36 -22 -30 -13 3 -26 6 -30 6 -5 0 -8 14 -8 30 0 27 3 30 30 30 28 0 30
-3 30 -36z m100 -4 c0 -43 -3 -45 -59 -34 -27 6 -31 10 -31 40 0 34 1 34 45
34 l45 0 0 -40z m16984 18 c-12 -5 -27 -20 -32 -32 -6 -11 -11 -15 -11 -8 -1
16 35 52 52 51 6 0 2 -5 -9 -11z m1668 -33 c6 -48 -2 -58 -36 -45 -15 5 -26
13 -24 18 25 50 33 62 44 62 6 0 14 -16 16 -35z m-1652 0 c0 -8 -7 -15 -15
-15 -8 0 -15 7 -15 15 0 8 7 15 15 15 8 0 15 -7 15 -15z m748 -32 c-1 -44 -2
-45 -5 -10 -2 20 -9 37 -14 37 -6 0 -7 5 -4 10 14 23 25 7 23 -37z m72 22 c0
-14 -7 -28 -15 -31 -23 -9 -18 -24 8 -24 19 0 27 8 37 40 7 22 17 40 21 40 5
0 0 -21 -10 -47 -18 -45 -20 -48 -52 -45 -45 5 -46 8 -21 35 27 28 28 44 5 50
-14 4 -12 5 5 6 17 1 22 -4 22 -24z m116 1 c8 -35 -4 -66 -26 -66 -22 0 -34
31 -26 66 4 15 14 24 26 24 12 0 22 -9 26 -24z m54 -1 c0 -14 -7 -28 -15 -31
-23 -9 -18 -24 8 -24 19 0 27 8 37 40 7 22 17 40 21 40 5 0 0 -21 -10 -47 -18
-45 -20 -48 -52 -45 -45 5 -46 8 -21 35 27 28 28 44 5 50 -14 4 -12 5 5 6 17
1 22 -4 22 -24z m110 0 c0 -14 -7 -28 -15 -31 -22 -9 -18 -22 8 -27 16 -3 13
-5 -10 -6 -38 -1 -41 8 -13 34 25 22 26 42 3 48 -14 4 -12 5 5 6 17 1 22 -4
22 -24z m66 1 c8 -35 -4 -66 -26 -66 -22 0 -34 31 -26 66 4 15 14 24 26 24 12
0 22 -9 26 -24z m42 -23 c-1 -44 -2 -45 -5 -10 -2 20 -9 37 -14 37 -6 0 -7 5
-4 10 14 23 25 7 23 -37z m78 20 c8 -31 -5 -57 -32 -61 -18 -4 -18 -3 1 12 17
13 18 15 3 16 -22 0 -31 15 -23 40 9 30 43 25 51 -7z m-12446 -12 c0 -17 -21
-24 -81 -28 -48 -3 -59 -1 -59 11 0 11 15 16 58 19 31 2 63 4 70 5 6 1 12 -2
12 -7z m-2462 -28 c-10 -2 -26 -2 -35 0 -10 3 -2 5 17 5 19 0 27 -2 18 -5z"/>
<path d="M3696 285 c4 -8 10 -15 16 -15 5 0 6 -4 3 -10 -3 -6 1 -7 9 -4 21 8
20 30 0 38 -25 10 -34 7 -28 -9z"/>
<path d="M3759 195 c-1 -3 -2 -9 -3 -14 0 -5 -4 -13 -8 -17 -5 -4 -8 -12 -8
-18 1 -13 23 23 26 42 2 11 -5 18 -7 7z"/>
<path d="M3650 140 c0 -5 11 -10 25 -10 14 0 25 5 25 10 0 6 -11 10 -25 10
-14 0 -25 -4 -25 -10z"/>
<path d="M3730 119 c0 -5 5 -7 10 -4 6 3 10 8 10 11 0 2 -4 4 -10 4 -5 0 -10
-5 -10 -11z"/>
<path d="M5090 213 c0 -24 5 -43 10 -43 6 0 10 7 10 15 0 8 5 15 10 15 6 0 10
-7 10 -15 0 -8 5 -15 10 -15 6 0 10 15 10 34 0 19 -4 38 -10 41 -5 3 -10 -1
-10 -9 0 -21 -10 -20 -26 2 -12 15 -13 12 -14 -25z"/>
<path d="M5163 234 c-3 -8 -1 -20 6 -27 14 -14 15 -30 1 -22 -5 3 -10 1 -10
-4 0 -14 37 -14 45 0 4 5 -1 19 -11 30 -11 12 -13 19 -5 19 7 0 9 5 6 10 -9
15 -25 12 -32 -6z"/>
<path d="M4620 261 c0 -5 7 -12 16 -15 10 -4 14 -14 11 -26 -4 -15 0 -20 14
-20 22 0 24 9 7 45 -10 23 -48 36 -48 16z"/>
<path d="M4623 161 c-6 -18 -7 -33 -2 -37 12 -7 21 19 17 47 -3 19 -4 18 -15
-10z"/>
<path d="M4650 125 l0 -45 70 0 70 0 0 45 0 45 -70 0 -70 0 0 -45z m45 15 c3
-6 -1 -7 -9 -4 -11 4 -16 0 -16 -11 0 -12 5 -15 18 -10 14 5 15 4 5 -6 -17
-17 -38 3 -30 25 7 18 23 21 32 6z m55 -30 c0 -13 -1 -13 -10 0 -5 8 -10 22
-10 30 0 13 1 13 10 0 5 -8 10 -22 10 -30z"/>
<path d="M6050 165 c0 -21 5 -25 30 -25 21 0 30 5 30 16 0 11 -5 14 -16 10
-14 -5 -15 -4 -4 9 11 13 9 15 -14 15 -21 0 -26 -5 -26 -25z"/>
<path d="M716 254 c-9 -8 -16 -22 -16 -29 0 -18 27 -45 45 -45 18 0 45 27 45
45 0 18 -27 45 -45 45 -7 0 -21 -7 -29 -16z"/>
<path d="M18843 243 c15 -2 39 -2 55 0 15 2 2 4 -28 4 -30 0 -43 -2 -27 -4z"/>
<path d="M18843 213 c15 -2 39 -2 55 0 15 2 2 4 -28 4 -30 0 -43 -2 -27 -4z"/>
<path d="M18833 183 c9 -2 25 -2 35 0 9 3 1 5 -18 5 -19 0 -27 -2 -17 -5z"/>
<path d="M16974 225 c-7 -18 2 -45 14 -45 5 0 7 11 4 25 -4 25 13 36 21 13 2
-7 8 -10 12 -6 11 11 -4 28 -26 28 -11 0 -22 -7 -25 -15z"/>
<path d="M17438 226 c-24 -17 -23 -38 2 -54 19 -11 20 -10 20 28 0 22 -1 40
-2 40 -2 0 -11 -7 -20 -14z"/>
<path d="M17830 220 c0 -13 5 -20 13 -17 6 2 12 10 12 17 0 7 -6 15 -12 18 -8
2 -13 -5 -13 -18z"/>
<path d="M18935 130 c-3 -5 -1 -10 4 -10 6 0 11 5 11 10 0 6 -2 10 -4 10 -3 0
-8 -4 -11 -10z"/>
<path d="M18220 115 c0 -19 5 -35 10 -35 6 0 10 16 10 35 0 19 -4 35 -10 35
-5 0 -10 -16 -10 -35z"/>
<path d="M18450 115 c0 -19 5 -35 10 -35 6 0 10 16 10 35 0 19 -4 35 -10 35
-5 0 -10 -16 -10 -35z"/>
<path d="M18570 130 c0 -11 5 -20 10 -20 6 0 10 9 10 20 0 11 -4 20 -10 20 -5
0 -10 -9 -10 -20z"/>
<path d="M19095 490 c17 -19 19 -19 37 -4 24 23 24 24 -19 24 -36 0 -36 0 -18
-20z"/>
</g>
</svg>
