<?xml version="1.0" standalone="no"?>
<!DOCTYPE svg PUBLIC "-//W3C//DTD SVG 20010904//EN"
 "http://www.w3.org/TR/2001/REC-SVG-20010904/DTD/svg10.dtd">
<svg version="1.0" xmlns="http://www.w3.org/2000/svg"
 width="1017.000000pt" height="642.000000pt" viewBox="0 0 1017.000000 642.000000"
 preserveAspectRatio="xMidYMid meet">

<g transform="translate(0.000000,642.000000) scale(0.100000,-0.100000)"
fill="#000000" stroke="none">
<path d="M1070 6216 c-9 -12 -7 -17 9 -28 26 -16 27 -35 4 -41 -17 -4 -17 -5
0 -6 29 -2 33 29 6 50 l-24 18 25 10 c15 6 19 10 9 10 -9 1 -22 -5 -29 -13z"/>
<path d="M1133 6214 c-4 -11 2 -23 18 -35 l24 -18 -25 -10 c-23 -9 -23 -10 -4
-10 30 -1 37 23 13 45 -24 21 -24 31 -1 37 16 4 16 5 -1 6 -10 0 -20 -6 -24
-15z"/>
<path d="M1203 6185 c0 -27 2 -40 4 -27 3 13 12 22 23 22 11 0 20 -9 23 -22 2
-13 4 0 4 27 0 28 -2 40 -4 28 -3 -14 -12 -23 -23 -23 -11 0 -20 9 -23 23 -2
12 -4 0 -4 -28z"/>
<path d="M1323 6185 c0 -27 2 -39 4 -26 l5 25 19 -25 c10 -13 19 -19 19 -13 0
6 -7 17 -15 24 -14 11 -14 16 0 39 l16 26 -20 -23 -20 -22 -4 22 c-2 13 -4 1
-4 -27z"/>
<path d="M258 6193 c7 -3 16 -2 19 1 4 3 -2 6 -13 5 -11 0 -14 -3 -6 -6z"/>
<path d="M362 6170 c0 -19 2 -27 5 -17 2 9 2 25 0 35 -3 9 -5 1 -5 -18z"/>
<path d="M518 6193 c7 -3 16 -2 19 1 4 3 -2 6 -13 5 -11 0 -14 -3 -6 -6z"/>
<path d="M568 6193 c7 -3 16 -2 19 1 4 3 -2 6 -13 5 -11 0 -14 -3 -6 -6z"/>
<path d="M608 6193 c7 -3 16 -2 19 1 4 3 -2 6 -13 5 -11 0 -14 -3 -6 -6z"/>
<path d="M686 6192 c-2 -4 4 -8 14 -8 10 0 16 4 14 8 -3 4 -9 8 -14 8 -5 0
-11 -4 -14 -8z"/>
<path d="M745 6190 c-3 -6 1 -7 9 -4 18 7 21 14 7 14 -6 0 -13 -4 -16 -10z"/>
<path d="M1410 6191 c12 -9 11 -11 -7 -11 -13 0 -23 -4 -23 -8 0 -14 23 -32
40 -31 8 0 4 5 -10 11 l-25 11 23 5 c25 4 25 23 1 30 -11 3 -11 2 1 -7z"/>
<path d="M1451 6192 c-1 -7 4 -23 10 -34 9 -17 13 -18 20 -7 5 8 9 19 9 24 0
6 -5 3 -10 -5 -7 -12 -11 -10 -19 10 -5 14 -10 19 -10 12z"/>
<path d="M1515 6189 c-4 -6 1 -17 11 -24 18 -14 18 -14 0 -15 -11 0 -17 -3
-13 -6 3 -4 14 -4 23 0 16 6 16 8 0 25 -13 15 -14 20 -4 24 9 4 9 6 1 6 -6 1
-15 -4 -18 -10z"/>
<path d="M308 6173 c6 -2 18 -2 25 0 6 3 1 5 -13 5 -14 0 -19 -2 -12 -5z"/>
<path d="M508 6173 c6 -2 18 -2 25 0 6 3 1 5 -13 5 -14 0 -19 -2 -12 -5z"/>
<path d="M177 6148 c2 -5 10 -8 18 -8 8 0 16 3 18 8 3 4 -5 7 -18 7 -13 0 -21
-3 -18 -7z"/>
<path d="M308 6148 c5 -5 16 -8 23 -6 8 3 3 7 -10 11 -17 4 -21 3 -13 -5z"/>
<path d="M455 6150 c-16 -7 -17 -9 -3 -9 9 -1 20 4 23 9 7 11 7 11 -20 0z"/>
<path d="M508 6148 c5 -5 16 -8 23 -6 8 3 3 7 -10 11 -17 4 -21 3 -13 -5z"/>
<path d="M747 6149 c7 -7 15 -10 18 -7 3 3 -2 9 -12 12 -14 6 -15 5 -6 -5z"/>
<path d="M818 6143 c7 -3 16 -2 19 1 4 3 -2 6 -13 5 -11 0 -14 -3 -6 -6z"/>
<path d="M748 6113 c7 -3 16 -2 19 1 4 3 -2 6 -13 5 -11 0 -14 -3 -6 -6z"/>
<path d="M3483 5743 c-3 -10 -12 -33 -19 -50 -7 -19 -9 -33 -3 -33 5 0 9 7 9
15 0 9 9 15 25 15 16 0 25 -6 25 -15 0 -8 4 -15 9 -15 11 0 -16 87 -30 96 -5
3 -12 -3 -16 -13z m27 -29 c0 -8 -7 -14 -15 -14 -17 0 -18 2 -9 24 7 18 24 12
24 -10z"/>
<path d="M3600 5710 c0 -27 5 -50 10 -50 6 0 10 23 10 50 0 28 -4 50 -10 50
-5 0 -10 -22 -10 -50z"/>
<path d="M3690 5742 c0 -13 -7 -18 -22 -18 -19 1 -23 -4 -23 -29 0 -26 4 -30
28 -31 26 -1 27 1 27 47 0 27 -2 49 -5 49 -3 0 -5 -8 -5 -18z m-3 -38 c8 -21
-13 -42 -28 -27 -13 13 -5 43 11 43 6 0 13 -7 17 -16z"/>
<path d="M3961 5746 c-9 -11 -8 -17 3 -29 9 -8 21 -17 28 -19 19 -7 -2 -30
-23 -25 -11 3 -17 1 -13 -4 9 -15 44 -10 51 8 4 10 -2 23 -15 34 -27 21 -28
36 -4 42 14 4 14 5 1 6 -9 0 -22 -5 -28 -13z"/>
<path d="M4043 5753 c-21 -8 -15 -30 13 -48 27 -17 24 -30 -11 -38 -19 -4 -19
-5 1 -6 12 0 27 6 35 15 11 13 8 19 -17 39 l-29 24 25 10 c14 5 18 10 10 10
-8 -1 -21 -3 -27 -6z"/>
<path d="M4113 5710 c0 -30 2 -43 4 -27 3 21 10 27 28 27 18 0 25 -6 28 -27 2
-16 4 -3 4 27 0 30 -2 45 -4 33 -3 -16 -11 -23 -28 -23 -17 0 -25 7 -28 23 -2
12 -4 -3 -4 -33z"/>
<path d="M4252 5710 c0 -32 2 -47 7 -37 6 17 8 17 20 3 7 -9 18 -16 24 -16 5
0 3 8 -6 18 -12 13 -13 22 -5 37 11 20 11 20 -10 2 -20 -19 -21 -18 -25 15 -2
21 -4 13 -5 -22z"/>
<path d="M188 5719 c-29 -17 -21 -48 17 -71 43 -25 41 -41 -6 -49 -28 -5 -31
-7 -15 -14 27 -12 70 7 74 33 3 16 -6 27 -33 43 -41 24 -41 42 -2 47 15 2 27
8 27 13 0 12 -40 11 -62 -2z"/>
<path d="M296 5714 c-25 -24 -19 -38 27 -67 39 -25 35 -47 -9 -47 -21 0 -33
-4 -29 -10 3 -5 19 -10 34 -10 56 0 70 50 21 78 -40 23 -40 52 1 52 17 0 28 4
24 10 -9 15 -52 12 -69 -6z"/>
<path d="M400 5655 c0 -43 4 -75 10 -75 6 0 10 16 10 35 0 34 1 35 40 35 39 0
40 -1 40 -35 0 -19 5 -35 10 -35 6 0 10 32 10 75 0 43 -4 75 -10 75 -5 0 -10
-13 -10 -30 0 -28 -2 -30 -40 -30 -38 0 -40 2 -40 30 0 17 -4 30 -10 30 -6 0
-10 -32 -10 -75z"/>
<path d="M620 5655 c0 -43 4 -75 10 -75 6 0 10 17 10 37 l0 38 27 -38 c14 -20
33 -37 40 -37 10 0 4 14 -17 41 l-33 40 28 29 c16 17 25 33 21 37 -4 4 -21 -8
-37 -27 l-28 -35 -1 33 c0 17 -4 32 -10 32 -6 0 -10 -32 -10 -75z"/>
<path d="M3559 5714 c-14 -18 -3 -45 22 -51 8 -3 7 0 -3 7 -22 14 -23 24 -2
44 8 9 11 16 6 16 -5 0 -15 -7 -23 -16z"/>
<path d="M3783 5724 c23 -7 22 -20 -3 -27 -25 -6 -27 -37 -2 -36 10 0 12 3 5
6 -18 7 -16 23 1 23 8 0 17 -8 20 -17 2 -10 4 -2 3 17 -2 27 -7 35 -22 37 -16
1 -16 1 -2 -3z"/>
<path d="M3841 5691 c1 -35 2 -35 8 -7 9 41 31 46 31 7 0 -17 5 -31 10 -31 14
0 12 46 -2 57 -7 6 -21 10 -30 10 -14 0 -18 -8 -17 -36z"/>
<path d="M4324 5716 c-11 -28 1 -51 26 -53 l25 -3 -25 12 -25 12 28 4 c29 4
33 12 15 30 -16 16 -37 15 -44 -2z m41 -6 c3 -5 -3 -10 -15 -10 -12 0 -18 5
-15 10 3 6 10 10 15 10 5 0 12 -4 15 -10z"/>
<path d="M4397 5712 c2 -8 6 -25 9 -39 4 -16 2 -28 -7 -34 -11 -7 -11 -9 -1
-9 14 0 58 88 48 97 -3 3 -8 -6 -12 -21 -8 -32 -17 -33 -30 -3 -6 12 -9 16 -7
9z"/>
<path d="M756 5677 c-21 -16 -24 -60 -6 -82 14 -17 56 -20 65 -6 3 5 -7 11
-22 13 -17 2 -29 10 -31 21 -3 14 4 17 32 17 39 0 45 10 20 34 -19 19 -35 20
-58 3z m49 -17 c4 -6 -5 -10 -19 -10 -14 0 -26 5 -26 10 0 6 9 10 19 10 11 0
23 -4 26 -10z"/>
<path d="M840 5685 c0 -2 9 -27 20 -54 20 -52 18 -81 -6 -81 -8 0 -14 -4 -14
-10 0 -14 26 -12 38 3 18 21 62 147 51 147 -5 0 -14 -12 -20 -27 -5 -16 -12
-35 -15 -43 -4 -10 -11 0 -21 28 -8 23 -19 42 -24 42 -5 0 -9 -2 -9 -5z"/>
<path d="M959 5674 c-12 -14 -10 -19 14 -38 34 -27 34 -36 0 -36 -20 0 -24 -3
-16 -11 7 -7 23 -9 37 -5 34 8 35 42 1 58 -32 15 -32 28 1 28 14 0 23 4 19 10
-9 15 -41 12 -56 -6z"/>
<path d="M3462 5463 c12 -3 18 -18 21 -51 l3 -47 2 47 c2 35 6 48 20 51 9 3
-1 5 -23 5 -22 0 -32 -2 -23 -5z"/>
<path d="M3763 5420 c0 -30 2 -43 4 -27 2 15 2 39 0 55 -2 15 -4 2 -4 -28z"/>
<path d="M4111 5456 c-9 -11 -8 -18 4 -30 9 -9 21 -16 26 -16 19 0 8 -29 -13
-33 l-23 -4 23 -2 c36 -2 39 27 6 54 l-29 24 25 10 c15 6 19 10 9 10 -9 1 -22
-5 -28 -13z"/>
<path d="M4186 5461 c-3 -4 6 -6 19 -3 14 2 25 6 25 8 0 8 -39 4 -44 -5z"/>
<path d="M4320 5451 c0 -15 -8 -21 -32 -24 l-33 -4 32 -1 c26 -2 32 -7 36 -29
2 -16 5 -4 6 25 0 28 -1 52 -4 52 -3 0 -5 -9 -5 -19z"/>
<path d="M4392 5420 c0 -32 2 -47 7 -37 6 17 8 17 20 3 7 -9 18 -16 24 -16 6
0 1 7 -11 16 -23 16 -23 17 -5 38 18 21 18 21 -4 3 -21 -19 -22 -19 -26 15 -2
21 -4 13 -5 -22z"/>
<path d="M5183 5420 c0 -30 2 -43 4 -27 2 15 2 39 0 55 -2 15 -4 2 -4 -28z"/>
<path d="M5258 5450 c-5 -17 3 -80 11 -80 7 0 6 79 -2 86 -3 3 -7 0 -9 -6z"/>
<path d="M3524 5426 c-11 -29 0 -51 26 -51 21 0 25 5 25 30 0 24 -5 31 -23 33
-13 2 -24 -3 -28 -12z m46 -21 c0 -18 -5 -25 -20 -25 -15 0 -20 7 -20 25 0 18
5 25 20 25 15 0 20 -7 20 -25z"/>
<path d="M3663 5434 c23 -7 22 -20 -3 -27 -25 -6 -27 -37 -2 -36 10 0 12 3 5
6 -18 7 -16 23 1 23 8 0 17 -8 20 -17 2 -10 4 -2 3 17 -2 27 -7 35 -22 37 -16
1 -16 1 -2 -3z"/>
<path d="M3714 5426 c-9 -23 0 -51 16 -52 9 0 10 1 3 3 -20 7 -16 51 5 56 16
4 16 5 -1 6 -10 0 -20 -5 -23 -13z"/>
<path d="M3799 5424 c-9 -11 -10 -20 -2 -32 13 -21 45 -22 50 -2 4 12 3 13 -5
1 -13 -19 -44 -6 -40 16 2 11 12 18 25 17 12 0 20 3 17 8 -8 13 -31 9 -45 -8z"/>
<path d="M3920 5436 c0 -2 9 -6 20 -9 11 -3 20 -1 20 4 0 5 -9 9 -20 9 -11 0
-20 -2 -20 -4z"/>
<path d="M3993 5405 c0 -22 2 -30 4 -17 2 12 2 30 0 40 -3 9 -5 -1 -4 -23z"/>
<path d="M4010 5436 c0 -2 7 -6 15 -10 8 -3 15 -1 15 4 0 6 -7 10 -15 10 -8 0
-15 -2 -15 -4z"/>
<path d="M4198 5421 c27 -24 28 -38 2 -44 -17 -4 -17 -4 2 -3 33 2 34 30 1 50
l-28 17 23 -20z"/>
<path d="M4464 5426 c-11 -28 1 -51 26 -53 22 -1 22 -1 3 4 -32 6 -29 21 5 26
l27 4 -27 2 c-16 0 -28 6 -28 12 0 6 9 9 20 6 11 -3 18 -1 14 4 -8 14 -34 11
-40 -5z"/>
<path d="M4575 5429 c-4 -6 -5 -12 -2 -15 2 -3 7 2 10 11 7 17 1 20 -8 4z"/>
<path d="M4636 5427 c3 -10 9 -15 12 -12 3 3 0 11 -7 18 -10 9 -11 8 -5 -6z"/>
<path d="M4676 5417 c-4 -16 -11 -25 -17 -21 -7 4 -9 -1 -5 -14 5 -14 1 -24
-11 -32 -12 -7 -13 -10 -3 -7 17 4 53 73 47 90 -2 7 -7 -1 -11 -16z"/>
<path d="M4716 5432 c-3 -5 5 -8 17 -8 16 1 22 -5 22 -19 0 -14 -6 -20 -22
-19 -12 0 -20 -3 -17 -8 17 -27 59 9 49 42 -6 20 -39 28 -49 12z"/>
<path d="M4793 5408 c2 -28 6 -33 30 -34 25 -1 27 2 26 35 -1 36 -1 36 -8 6
-9 -42 -38 -45 -45 -6 l-6 31 3 -32z"/>
<path d="M4913 5405 c0 -22 2 -30 4 -17 2 12 2 30 0 40 -3 9 -5 -1 -4 -23z"/>
<path d="M4930 5436 c0 -2 7 -6 15 -10 8 -3 15 -1 15 4 0 6 -7 10 -15 10 -8 0
-15 -2 -15 -4z"/>
<path d="M4990 5425 c-18 -22 -1 -49 31 -52 19 -1 20 -1 4 4 -34 9 -41 23 -11
23 21 0 27 4 24 17 -4 24 -32 28 -48 8z m40 -5 c0 -5 -9 -10 -21 -10 -11 0
-17 5 -14 10 3 6 13 10 21 10 8 0 14 -4 14 -10z"/>
<path d="M5064 5426 c-11 -28 1 -51 26 -53 22 -1 22 -1 3 4 -32 6 -29 21 5 26
l27 4 -27 2 c-16 0 -28 6 -28 12 0 6 9 9 20 6 11 -3 18 -1 14 4 -8 14 -34 11
-40 -5z"/>
<path d="M5134 5426 c-9 -23 0 -51 16 -52 9 0 10 1 3 3 -20 7 -16 51 5 56 16
4 16 5 -1 6 -10 0 -20 -5 -23 -13z"/>
<path d="M5304 5426 c-11 -29 0 -51 26 -51 21 0 25 5 25 30 0 24 -5 31 -23 33
-13 2 -24 -3 -28 -12z m46 -21 c0 -18 -5 -25 -20 -25 -15 0 -20 7 -20 25 0 18
5 25 20 25 15 0 20 -7 20 -25z"/>
<path d="M5473 5400 c0 -25 2 -35 4 -22 2 12 2 32 0 45 -2 12 -4 2 -4 -23z"/>
<path d="M5583 5405 c0 -22 2 -30 4 -17 2 12 2 30 0 40 -3 9 -5 -1 -4 -23z"/>
<path d="M5600 5436 c0 -2 7 -7 16 -10 8 -3 12 -2 9 4 -6 10 -25 14 -25 6z"/>
<path d="M5666 5431 c-4 -5 3 -7 14 -4 23 6 26 13 6 13 -8 0 -17 -4 -20 -9z"/>
<path d="M5733 5405 c0 -22 2 -30 4 -17 2 12 2 30 0 40 -3 9 -5 -1 -4 -23z"/>
<path d="M5798 5433 c7 -3 16 -2 19 1 4 3 -2 6 -13 5 -11 0 -14 -3 -6 -6z"/>
<path d="M5858 5433 c7 -3 16 -2 19 1 4 3 -2 6 -13 5 -11 0 -14 -3 -6 -6z"/>
<path d="M5907 5433 c-3 -5 5 -8 18 -8 13 0 21 3 18 8 -2 4 -10 7 -18 7 -8 0
-16 -3 -18 -7z"/>
<path d="M6016 5431 c-4 -5 3 -7 14 -4 23 6 26 13 6 13 -8 0 -17 -4 -20 -9z"/>
<path d="M6091 5400 c1 -34 2 -34 8 -6 3 16 15 33 26 37 17 6 15 7 -7 6 -25
-1 -28 -5 -27 -37z"/>
<path d="M6177 5433 c-17 -16 -6 -33 21 -32 23 2 24 2 5 6 -13 2 -23 9 -23 15
0 6 9 8 20 5 11 -3 18 -1 14 4 -6 11 -28 12 -37 2z"/>
<path d="M6284 5426 c-11 -29 0 -51 26 -51 21 0 25 5 25 30 0 24 -5 31 -23 33
-13 2 -24 -3 -28 -12z m46 -21 c0 -18 -5 -25 -20 -25 -15 0 -20 7 -20 25 0 18
5 25 20 25 15 0 20 -7 20 -25z"/>
<path d="M6361 5400 c1 -27 3 -29 6 -10 2 14 11 30 20 37 13 10 13 12 -6 10
-17 -1 -21 -7 -20 -37z"/>
<path d="M6453 5408 c2 -28 6 -33 30 -34 25 -1 27 2 26 35 -1 36 -1 36 -8 6
-9 -42 -38 -45 -45 -6 l-6 31 3 -32z"/>
<path d="M6534 5428 c-4 -6 0 -16 9 -23 22 -16 21 -22 0 -28 -16 -4 -16 -5 -1
-6 24 -2 34 20 15 34 -22 16 -21 22 1 28 15 4 15 5 0 6 -9 0 -20 -4 -24 -11z"/>
<path d="M6594 5426 c-11 -28 1 -51 26 -53 22 -1 22 -1 3 4 -32 6 -29 21 5 26
l27 4 -27 2 c-16 0 -28 6 -28 12 0 6 9 9 20 6 11 -3 18 -1 14 4 -8 14 -34 11
-40 -5z"/>
<path d="M6723 5434 c23 -7 22 -20 -3 -27 -25 -6 -27 -37 -2 -36 10 0 12 3 5
6 -18 7 -16 23 1 23 8 0 17 -8 20 -17 2 -10 4 -2 3 17 -2 27 -7 35 -22 37 -16
1 -16 1 -2 -3z"/>
<path d="M6771 5401 c1 -36 1 -36 8 -6 8 40 38 46 44 8 4 -28 4 -28 3 2 -1 26
-5 30 -28 31 -26 1 -28 -2 -27 -35z"/>
<path d="M6897 5433 c-17 -16 -6 -33 21 -32 23 2 24 2 5 6 -13 2 -23 9 -23 15
0 6 9 8 20 5 11 -3 18 -1 14 4 -6 11 -28 12 -37 2z"/>
<path d="M7033 5405 c0 -22 2 -30 4 -17 2 12 2 30 0 40 -3 9 -5 -1 -4 -23z"/>
<path d="M7064 5428 c-4 -6 0 -16 9 -23 22 -16 21 -22 0 -28 -16 -4 -16 -5 -1
-6 24 -2 34 20 15 34 -22 16 -21 22 1 28 15 4 15 5 0 6 -9 0 -20 -4 -24 -11z"/>
<path d="M7128 5433 c7 -3 16 -2 19 1 4 3 -2 6 -13 5 -11 0 -14 -3 -6 -6z"/>
<path d="M7173 5405 c0 -22 2 -30 4 -17 2 12 2 30 0 40 -3 9 -5 -1 -4 -23z"/>
<path d="M7216 5431 c-3 -5 2 -7 13 -4 16 4 20 -1 24 -29 l5 -33 -2 35 c-1 34
-26 54 -40 31z"/>
<path d="M7285 5429 c-4 -6 -4 -13 -1 -16 3 -4 6 -1 6 5 0 6 8 13 18 15 15 4
15 5 0 6 -9 0 -20 -4 -23 -10z"/>
<path d="M7330 5400 c-4 -37 -9 -45 -30 -51 -22 -6 -22 -7 -4 -8 31 -1 46 22
42 66 l-4 38 -4 -45z"/>
<path d="M7426 5422 c-15 -18 -15 -20 2 -35 10 -10 23 -17 28 -17 4 0 -2 7
-14 16 -22 15 -22 17 -6 35 9 10 15 19 12 19 -3 0 -12 -8 -22 -18z"/>
<path d="M7477 5433 c-17 -16 -6 -33 21 -32 23 2 24 2 5 6 -13 2 -23 9 -23 15
0 6 9 8 20 5 11 -3 18 -1 14 4 -6 11 -28 12 -37 2z"/>
<path d="M4530 5428 c0 -4 5 -18 11 -32 10 -20 9 -29 -2 -43 -13 -16 -12 -17
2 -5 9 7 19 22 22 33 3 12 3 18 -1 15 -3 -4 -12 4 -19 16 -7 13 -12 20 -13 16z"/>
<path d="M5424 5395 c1 -12 9 -21 21 -22 14 -1 15 0 3 3 -9 3 -19 13 -21 22
-3 12 -4 11 -3 -3z"/>
<path d="M5500 5408 c0 -4 14 -8 30 -8 17 0 30 2 30 4 0 2 -13 6 -30 8 -16 3
-30 1 -30 -4z"/>
<path d="M5675 5410 l-30 -8 33 -1 c17 0 32 4 32 9 0 6 -1 9 -2 9 -2 -1 -16
-5 -33 -9z"/>
<path d="M6142 5395 c0 -16 2 -22 5 -12 2 9 2 23 0 30 -3 6 -5 -1 -5 -18z"/>
<path d="M6973 5405 c0 -8 4 -12 9 -9 5 3 6 10 3 15 -9 13 -12 11 -12 -6z"/>
<path d="M3915 5400 c-3 -5 -3 -14 0 -20 8 -12 32 -13 39 -1 4 5 -3 7 -14 4
-11 -3 -20 -1 -20 5 0 6 10 13 23 15 22 4 22 4 0 6 -12 0 -25 -3 -28 -9z"/>
<path d="M5798 5403 c7 -3 16 -2 19 1 4 3 -2 6 -13 5 -11 0 -14 -3 -6 -6z"/>
<path d="M5913 5403 c9 -2 23 -2 30 0 6 3 -1 5 -18 5 -16 0 -22 -2 -12 -5z"/>
<path d="M7283 5390 c2 -8 12 -16 23 -17 13 -2 15 -1 4 4 -8 3 -19 11 -23 17
-6 7 -7 6 -4 -4z"/>
<path d="M5668 5378 c5 -5 16 -8 23 -6 8 3 3 7 -10 11 -17 4 -21 3 -13 -5z"/>
<path d="M5908 5378 c6 -6 18 -8 28 -6 14 3 12 5 -9 10 -19 3 -25 2 -19 -4z"/>
<path d="M6018 5378 c5 -5 16 -8 23 -6 8 3 3 7 -10 11 -17 4 -21 3 -13 -5z"/>
<path d="M6178 5378 c6 -6 18 -8 28 -6 14 3 12 5 -9 10 -19 3 -25 2 -19 -4z"/>
<path d="M6898 5378 c6 -6 18 -8 28 -6 14 3 12 5 -9 10 -19 3 -25 2 -19 -4z"/>
<path d="M7478 5378 c6 -6 18 -8 28 -6 14 3 12 5 -9 10 -19 3 -25 2 -19 -4z"/>
<path d="M7561 5374 c0 -11 3 -14 6 -6 3 7 2 16 -1 19 -3 4 -6 -2 -5 -13z"/>
<path d="M176 5371 c-3 -4 6 -6 19 -3 14 2 25 6 25 8 0 8 -39 4 -44 -5z"/>
<path d="M243 5364 c-4 -10 4 -24 23 -39 22 -18 25 -25 14 -28 -8 -3 -22 -8
-30 -10 -10 -4 -8 -6 6 -6 33 -1 49 23 29 43 -9 9 -21 16 -26 16 -19 0 -8 29
14 33 l22 4 -23 2 c-12 0 -25 -6 -29 -15z"/>
<path d="M323 5330 c0 -30 2 -43 4 -27 3 21 10 27 28 27 18 0 25 -6 28 -27 2
-16 4 -3 4 27 0 30 -2 45 -4 33 -3 -16 -11 -23 -28 -23 -17 0 -25 7 -28 23 -2
12 -4 -3 -4 -33z"/>
<path d="M462 5330 c0 -38 2 -49 8 -35 7 18 8 19 15 3 4 -10 12 -18 18 -18 6
0 1 10 -10 23 -12 12 -23 36 -26 52 -2 17 -4 6 -5 -25z"/>
<path d="M833 5330 c0 -30 2 -43 4 -27 2 15 2 39 0 55 -2 15 -4 2 -4 -28z"/>
<path d="M873 5330 c0 -30 2 -43 4 -27 2 15 2 39 0 55 -2 15 -4 2 -4 -28z"/>
<path d="M1811 5334 c-1 -49 0 -51 26 -50 14 1 28 8 30 16 4 12 3 13 -5 1 -12
-17 -42 -7 -42 14 0 21 30 31 42 14 8 -12 9 -11 5 1 -2 8 -12 15 -23 15 -10 0
-22 9 -26 20 -3 12 -6 0 -7 -31z"/>
<path d="M1893 5330 c0 -30 2 -43 4 -27 2 15 2 39 0 55 -2 15 -4 2 -4 -28z"/>
<path d="M2022 5330 c0 -41 2 -47 7 -25 3 17 13 30 21 30 8 0 18 -13 22 -30 6
-29 6 -29 5 5 -2 28 -6 35 -22 35 -11 0 -23 9 -27 20 -3 11 -6 -4 -6 -35z"/>
<path d="M5518 5373 c6 -2 18 -2 25 0 6 3 1 5 -13 5 -14 0 -19 -2 -12 -5z"/>
<path d="M5788 5373 c7 -3 16 -2 19 1 4 3 -2 6 -13 5 -11 0 -14 -3 -6 -6z"/>
<path d="M188 5331 c27 -24 28 -38 2 -44 -17 -4 -17 -4 2 -3 33 2 34 30 1 50
l-28 17 23 -20z"/>
<path d="M485 5339 c-11 -17 1 -21 15 -4 8 9 8 15 2 15 -6 0 -14 -5 -17 -11z"/>
<path d="M524 5336 c-11 -28 1 -51 26 -53 22 -1 22 -1 3 4 -31 6 -29 23 3 23
20 0 25 4 20 16 -3 9 -6 18 -6 20 0 11 -41 2 -46 -10z m41 -6 c3 -5 -3 -10
-14 -10 -12 0 -21 5 -21 10 0 6 6 10 14 10 8 0 18 -4 21 -10z"/>
<path d="M590 5345 c0 -5 5 -17 10 -25 5 -8 10 -10 10 -5 0 6 -5 17 -10 25 -5
8 -10 11 -10 5z"/>
<path d="M636 5335 c-9 -26 -7 -32 5 -12 6 10 9 21 6 23 -2 3 -7 -2 -11 -11z"/>
<path d="M665 5340 c-8 -14 3 -30 21 -30 20 0 18 -18 -3 -23 -15 -3 -14 -4 1
-3 27 1 32 26 7 33 -26 7 -27 20 -3 26 15 4 15 5 0 6 -9 0 -20 -3 -23 -9z"/>
<path d="M783 5344 c23 -7 22 -20 -3 -27 -30 -8 -25 -37 6 -37 23 0 25 3 22
32 -2 24 -8 33 -23 35 -16 1 -16 1 -2 -3z m17 -44 c0 -5 -7 -10 -15 -10 -8 0
-15 5 -15 10 0 6 7 10 15 10 8 0 15 -4 15 -10z"/>
<path d="M904 5336 c-14 -37 22 -74 47 -49 6 6 1 9 -13 9 -14 -1 -24 6 -26 17
-4 22 27 35 40 16 8 -12 9 -11 5 1 -5 20 -46 25 -53 6z"/>
<path d="M1017 5343 c-4 -3 -7 -11 -7 -17 0 -6 5 -5 12 2 6 6 9 14 7 17 -3 3
-9 2 -12 -2z"/>
<path d="M1165 5339 c-4 -6 -5 -12 -2 -15 2 -3 7 2 10 11 7 17 1 20 -8 4z"/>
<path d="M1194 5336 c-11 -29 0 -51 26 -51 21 0 25 5 25 30 0 24 -5 31 -23 33
-13 2 -24 -3 -28 -12z m46 -21 c0 -18 -5 -25 -20 -25 -15 0 -20 7 -20 25 0 18
5 25 20 25 15 0 20 -7 20 -25z"/>
<path d="M1273 5318 c2 -28 6 -33 30 -34 25 -1 27 2 26 35 -1 36 -1 36 -8 6
-9 -42 -38 -45 -45 -6 l-6 31 3 -32z"/>
<path d="M1388 5343 c6 -2 18 -2 25 0 6 3 1 5 -13 5 -14 0 -19 -2 -12 -5z"/>
<path d="M1446 5342 c-3 -5 5 -8 17 -8 16 1 22 -5 22 -19 0 -14 -6 -20 -22
-19 -12 0 -20 -3 -17 -8 17 -27 59 9 49 42 -6 20 -39 28 -49 12z"/>
<path d="M1566 5341 c-3 -5 3 -7 14 -4 11 3 20 1 20 -5 0 -6 -12 -13 -27 -15
-26 -4 -25 -4 5 -6 27 -1 33 2 30 16 -4 20 -33 29 -42 14z"/>
<path d="M1634 5338 c-4 -6 0 -16 9 -23 22 -16 21 -22 0 -28 -16 -4 -16 -5 -1
-6 24 -2 34 20 15 34 -22 16 -21 22 1 28 15 4 15 5 0 6 -9 0 -20 -4 -24 -11z"/>
<path d="M1688 5343 c6 -2 18 -2 25 0 6 3 1 5 -13 5 -14 0 -19 -2 -12 -5z"/>
<path d="M1760 5338 c24 -10 24 -10 5 -18 -18 -8 -18 -9 -2 -9 10 -1 15 -6 11
-12 -3 -6 -15 -9 -25 -6 -11 3 -17 1 -14 -4 10 -16 55 -6 55 12 0 32 -12 49
-34 48 -19 0 -19 -1 4 -11z"/>
<path d="M1933 5315 c0 -22 2 -30 4 -17 2 12 2 30 0 40 -3 9 -5 -1 -4 -23z"/>
<path d="M1964 5338 c-4 -6 0 -16 9 -23 22 -16 21 -22 0 -28 -16 -4 -16 -5 -1
-6 24 -2 34 20 15 34 -22 16 -21 22 1 28 15 4 15 5 0 6 -9 0 -20 -4 -24 -11z"/>
<path d="M2160 5338 c24 -10 24 -10 5 -18 -18 -8 -18 -9 -2 -9 10 -1 15 -6 11
-12 -3 -6 -15 -9 -25 -6 -11 3 -17 1 -14 -4 10 -16 55 -6 55 12 0 32 -12 49
-34 48 -19 0 -19 -1 4 -11z"/>
<path d="M2245 5340 c-8 -14 3 -30 21 -30 20 0 18 -18 -3 -23 -15 -3 -14 -4 1
-3 27 1 32 26 7 33 -26 7 -27 20 -3 26 15 4 15 5 0 6 -9 0 -20 -3 -23 -9z"/>
<path d="M2310 5335 c-18 -22 -1 -49 31 -52 19 -1 20 -1 4 4 -34 9 -41 23 -11
23 21 0 27 4 24 17 -4 24 -32 28 -48 8z m40 -5 c0 -5 -9 -10 -21 -10 -11 0
-17 5 -14 10 3 6 13 10 21 10 8 0 14 -4 14 -10z"/>
<path d="M2386 5341 c-4 -5 3 -7 14 -4 23 6 26 13 6 13 -8 0 -17 -4 -20 -9z"/>
<path d="M2443 5318 c2 -28 6 -33 30 -34 25 -1 27 2 26 35 -1 36 -1 36 -8 6
-9 -42 -38 -45 -45 -6 l-6 31 3 -32z"/>
<path d="M2521 5310 c1 -27 3 -29 6 -10 2 14 11 30 20 37 13 10 13 12 -6 10
-17 -1 -21 -7 -20 -37z"/>
<path d="M2574 5336 c-11 -28 1 -51 26 -53 22 -1 22 -1 3 4 -32 6 -29 21 5 26
l27 4 -27 2 c-16 0 -28 6 -28 12 0 6 9 9 20 6 11 -3 18 -1 14 4 -8 14 -34 11
-40 -5z"/>
<path d="M5438 5343 c7 -3 16 -2 19 1 4 3 -2 6 -13 5 -11 0 -14 -3 -6 -6z"/>
<path d="M981 5330 c1 -24 15 -55 21 -44 2 5 -1 20 -8 34 -8 14 -13 18 -13 10z"/>
<path d="M1120 5338 c0 -4 5 -18 11 -32 10 -20 9 -29 -2 -43 -13 -16 -12 -17
2 -5 9 7 19 22 22 33 3 12 3 18 -1 15 -3 -4 -12 4 -19 16 -7 13 -12 20 -13 16z"/>
<path d="M1050 5314 c0 -16 -2 -17 -10 -4 -5 8 -10 11 -10 5 0 -5 4 -16 9 -24
7 -11 10 -9 16 8 4 13 4 25 1 28 -3 4 -6 -2 -6 -13z"/>
<path d="M610 5280 c0 -11 -5 -20 -12 -20 -6 0 -8 -3 -4 -7 4 -5 14 1 22 11
16 23 18 36 4 36 -5 0 -10 -9 -10 -20z"/>
<path d="M1568 5288 c6 -6 18 -8 28 -6 14 3 12 5 -9 10 -19 3 -25 2 -19 -4z"/>
<path d="M2388 5288 c5 -5 16 -8 23 -6 8 3 3 7 -10 11 -17 4 -21 3 -13 -5z"/>
<path d="M891 5125 c-1 -47 1 -51 24 -53 13 -1 26 2 29 6 3 5 -5 8 -17 8 -16
-1 -22 5 -22 19 0 14 6 20 22 19 12 0 19 4 16 9 -3 5 -14 7 -24 4 -12 -3 -19
2 -22 17 -2 11 -5 -2 -6 -29z"/>
<path d="M2613 5120 c0 -30 2 -43 4 -27 2 15 2 39 0 55 -2 15 -4 2 -4 -28z"/>
<path d="M2700 5160 c-11 -8 -7 -9 15 -4 37 8 45 14 19 14 -10 0 -26 -5 -34
-10z"/>
<path d="M2862 5123 c-2 -52 -1 -53 26 -52 22 1 23 2 5 6 -18 4 -23 12 -26 51
l-3 47 -2 -52z"/>
<path d="M3003 5120 c-1 -40 1 -47 6 -25 7 35 41 48 41 16 0 -11 -8 -25 -17
-30 -17 -10 -17 -10 -1 -11 19 0 35 41 23 60 -4 7 -16 10 -26 7 -12 -3 -19 2
-22 17 -2 11 -4 -4 -4 -34z"/>
<path d="M1048 5147 c-7 -21 6 -70 20 -73 7 -1 8 0 2 3 -12 6 -13 50 -1 55 5
2 3 8 -4 15 -10 9 -14 9 -17 0z"/>
<path d="M2208 5147 c-7 -21 6 -70 20 -73 7 -1 8 0 2 3 -12 6 -13 50 -1 55 5
2 3 8 -4 15 -10 9 -14 9 -17 0z"/>
<path d="M2818 5150 c-5 -17 3 -80 11 -80 7 0 6 79 -2 86 -3 3 -7 0 -9 -6z"/>
<path d="M176 5131 c-4 -5 3 -7 14 -4 23 6 26 13 6 13 -8 0 -17 -4 -20 -9z"/>
<path d="M234 5126 c-14 -37 22 -74 47 -49 6 6 1 9 -13 9 -14 -1 -24 6 -26 17
-4 22 27 35 40 16 8 -12 9 -11 5 1 -5 20 -46 25 -53 6z"/>
<path d="M323 5105 c0 -22 2 -30 4 -17 2 12 2 30 0 40 -3 9 -5 -1 -4 -23z"/>
<path d="M347 5133 c6 -4 13 -22 16 -38 4 -27 5 -27 3 4 0 21 -7 36 -16 38
-10 3 -11 2 -3 -4z"/>
<path d="M391 5101 c1 -36 1 -36 8 -6 8 40 38 46 44 8 4 -28 4 -28 3 2 -1 26
-5 30 -28 31 -26 1 -28 -2 -27 -35z"/>
<path d="M474 5126 c-11 -28 1 -51 26 -53 22 -1 22 -1 3 4 -31 6 -29 23 3 23
20 0 25 4 20 16 -3 9 -6 18 -6 20 0 11 -41 2 -46 -10z m41 -6 c3 -5 -3 -10
-14 -10 -12 0 -21 5 -21 10 0 6 6 10 14 10 8 0 18 -4 21 -10z"/>
<path d="M549 5124 c-16 -19 -1 -48 27 -51 15 -2 14 -1 -3 7 -13 5 -23 16 -23
25 0 9 10 20 23 25 15 6 17 9 6 9 -9 1 -22 -6 -30 -15z"/>
<path d="M608 5133 c6 -2 18 -2 25 0 6 3 1 5 -13 5 -14 0 -19 -2 -12 -5z"/>
<path d="M663 5105 c0 -22 2 -30 4 -17 2 12 2 30 0 40 -3 9 -5 -1 -4 -23z"/>
<path d="M694 5126 c-14 -37 22 -74 47 -49 6 6 1 9 -13 9 -14 -1 -24 6 -26 17
-4 22 27 35 40 16 8 -12 9 -11 5 1 -5 20 -46 25 -53 6z"/>
<path d="M783 5105 c0 -22 2 -30 4 -17 2 12 2 30 0 40 -3 9 -5 -1 -4 -23z"/>
<path d="M807 5133 c6 -4 13 -22 16 -38 4 -27 5 -27 3 4 0 21 -7 36 -16 38
-10 3 -11 2 -3 -4z"/>
<path d="M980 5125 c-18 -22 -1 -49 31 -52 19 -1 20 -1 4 4 -34 9 -41 23 -11
23 21 0 27 4 24 17 -4 24 -32 28 -48 8z m40 -5 c0 -5 -9 -10 -21 -10 -11 0
-17 5 -14 10 3 6 13 10 21 10 8 0 14 -4 14 -10z"/>
<path d="M1130 5135 c0 -5 5 -17 10 -25 5 -8 10 -10 10 -5 0 6 -5 17 -10 25
-5 8 -10 11 -10 5z"/>
<path d="M1200 5125 c-18 -22 -1 -49 31 -52 19 -1 20 -1 4 4 -34 9 -41 23 -11
23 21 0 27 4 24 17 -4 24 -32 28 -48 8z m40 -5 c0 -5 -9 -10 -21 -10 -11 0
-17 5 -14 10 3 6 13 10 21 10 8 0 14 -4 14 -10z"/>
<path d="M1274 5126 c-11 -28 1 -51 26 -53 22 -1 22 -1 3 4 -32 6 -29 21 5 26
l27 4 -27 2 c-16 0 -28 6 -28 12 0 6 9 9 20 6 11 -3 18 -1 14 4 -8 14 -34 11
-40 -5z"/>
<path d="M1341 5101 c1 -36 1 -36 8 -6 8 40 38 46 44 8 4 -28 4 -28 3 2 -1 26
-5 30 -28 31 -26 1 -28 -2 -27 -35z"/>
<path d="M1456 5127 c3 -10 9 -15 12 -12 3 3 0 11 -7 18 -10 9 -11 8 -5 -6z"/>
<path d="M1496 5117 c-4 -16 -11 -25 -17 -21 -7 4 -9 -1 -5 -14 5 -14 1 -24
-11 -32 -12 -7 -13 -10 -3 -7 17 4 53 73 47 90 -2 7 -7 -1 -11 -16z"/>
<path d="M1536 5132 c-3 -5 5 -8 17 -8 16 1 22 -5 22 -19 0 -14 -6 -20 -22
-19 -12 0 -20 -3 -17 -8 17 -27 59 9 49 42 -6 20 -39 28 -49 12z"/>
<path d="M1613 5108 c2 -28 6 -33 30 -34 25 -1 27 2 26 35 -1 36 -1 36 -8 6
-9 -42 -38 -45 -45 -6 l-6 31 3 -32z"/>
<path d="M1693 5105 c0 -22 2 -30 4 -17 2 12 2 30 0 40 -3 9 -5 -1 -4 -23z"/>
<path d="M1779 5124 c-16 -19 -1 -48 27 -51 15 -2 14 -1 -3 7 -13 5 -23 16
-23 25 0 9 10 20 23 25 15 6 17 9 6 9 -9 1 -22 -6 -30 -15z"/>
<path d="M1844 5126 c-11 -29 0 -51 26 -51 21 0 25 5 25 30 0 24 -5 31 -23 33
-13 2 -24 -3 -28 -12z m46 -21 c0 -18 -5 -25 -20 -25 -15 0 -20 7 -20 25 0 18
5 25 20 25 15 0 20 -7 20 -25z"/>
<path d="M1921 5101 c1 -27 3 -30 6 -11 7 35 19 46 38 30 10 -8 15 -9 15 -1 0
6 6 11 14 11 9 0 17 -13 19 -32 l5 -33 -2 35 c-1 35 -1 35 -48 36 l-48 1 1
-36z"/>
<path d="M2041 5085 c1 -27 4 -40 6 -29 3 15 10 20 22 17 10 -3 21 -1 24 4 3
5 -4 9 -16 9 -16 -1 -22 5 -22 19 0 14 6 20 22 19 12 0 20 3 17 8 -3 4 -16 7
-29 6 -23 -2 -25 -6 -24 -53z"/>
<path d="M2173 5105 c0 -22 2 -30 4 -17 2 12 2 30 0 40 -3 9 -5 -1 -4 -23z"/>
<path d="M2254 5126 c-11 -28 1 -51 26 -53 22 -1 22 -1 3 4 -31 6 -29 23 3 23
20 0 25 4 20 16 -3 9 -6 18 -6 20 0 11 -41 2 -46 -10z m41 -6 c3 -5 -3 -10
-14 -10 -12 0 -21 5 -21 10 0 6 6 10 14 10 8 0 18 -4 21 -10z"/>
<path d="M2331 5103 c2 -35 2 -35 6 -8 3 16 10 33 16 37 8 5 6 8 -5 8 -14 0
-18 -8 -17 -37z"/>
<path d="M2433 5134 c23 -7 22 -20 -3 -27 -30 -8 -25 -37 6 -37 23 0 25 3 22
32 -2 24 -8 33 -23 35 -16 1 -16 1 -2 -3z m17 -44 c0 -5 -7 -10 -15 -10 -8 0
-15 5 -15 10 0 6 7 10 15 10 8 0 15 -4 15 -10z"/>
<path d="M2481 5101 c1 -36 1 -36 8 -6 8 40 38 46 44 8 4 -28 4 -28 3 2 -1 26
-5 30 -28 31 -26 1 -28 -2 -27 -35z"/>
<path d="M2564 5126 c-9 -23 0 -51 16 -52 9 0 10 1 3 3 -20 7 -16 51 5 56 16
4 16 5 -1 6 -10 0 -20 -5 -23 -13z"/>
<path d="M2681 5119 c-1 -32 20 -52 51 -47 29 4 40 48 11 47 -10 0 -13 -3 -5
-6 6 -2 12 -11 12 -19 0 -11 -8 -14 -27 -12 -22 2 -29 10 -34 33 -6 29 -7 29
-8 4z"/>
<path d="M2783 5105 c0 -22 2 -30 4 -17 2 12 2 30 0 40 -3 9 -5 -1 -4 -23z"/>
<path d="M2950 5128 c24 -10 24 -10 5 -18 -18 -8 -18 -9 -2 -9 10 -1 15 -6 11
-12 -3 -6 -15 -9 -25 -6 -11 3 -17 1 -14 -4 10 -16 55 -6 55 12 0 32 -12 49
-34 48 -19 0 -19 -1 4 -11z"/>
<path d="M1100 5098 c0 -9 5 -20 10 -23 13 -8 13 5 0 25 -8 13 -10 13 -10 -2z"/>
<path d="M1156 5094 c-4 -9 -4 -19 -1 -22 2 -3 7 3 11 12 4 9 4 19 1 22 -2 3
-7 -3 -11 -12z"/>
<path d="M3460 5050 c0 -48 19 -74 21 -27 l0 22 16 -22 c8 -13 20 -23 25 -23
5 0 -2 15 -16 33 -15 19 -26 41 -26 50 0 10 -4 17 -10 17 -5 0 -10 -22 -10
-50z"/>
<path d="M3499 5078 c-12 -23 -12 -23 10 -4 23 21 26 26 11 26 -5 0 -15 -10
-21 -22z"/>
<path d="M178 5078 c5 -5 16 -8 23 -6 8 3 3 7 -10 11 -17 4 -21 3 -13 -5z"/>
<path d="M2130 5080 c0 -6 7 -10 15 -10 8 0 15 2 15 4 0 2 -7 6 -15 10 -8 3
-15 1 -15 -4z"/>
<path d="M3550 5055 c-17 -20 -2 -49 26 -52 13 -2 11 1 -6 9 l-25 12 28 4 c20
2 27 8 25 20 -4 23 -32 26 -48 7z m35 -5 c3 -5 -3 -10 -15 -10 -12 0 -18 5
-15 10 3 6 10 10 15 10 5 0 12 -4 15 -10z"/>
<path d="M3626 5033 c15 -34 15 -38 -2 -50 -10 -7 -13 -13 -7 -13 6 0 15 6 21
13 17 20 42 87 33 87 -5 0 -12 -12 -16 -27 l-8 -28 -10 28 c-6 15 -14 27 -18
27 -5 0 -1 -17 7 -37z"/>
<path d="M3461 4758 c1 -29 4 -43 6 -31 3 13 13 23 26 25 16 2 22 10 22 28 0
20 -6 26 -27 28 -28 3 -28 3 -27 -50z m49 22 c0 -13 -7 -20 -20 -20 -13 0 -20
7 -20 20 0 13 7 20 20 20 13 0 20 -7 20 -20z"/>
<path d="M4301 4765 c-1 -47 1 -51 24 -53 13 -1 26 2 29 6 3 5 -5 8 -17 8 -16
-1 -22 5 -22 19 0 14 6 20 22 19 12 0 19 4 16 9 -3 5 -14 7 -24 4 -12 -3 -19
2 -22 17 -2 11 -5 -2 -6 -29z"/>
<path d="M4393 4760 c0 -30 2 -43 4 -27 2 15 2 39 0 55 -2 15 -4 2 -4 -28z"/>
<path d="M4561 4796 c-9 -11 -8 -18 4 -30 9 -9 21 -16 26 -16 19 0 8 -29 -13
-33 l-23 -4 23 -2 c36 -2 39 27 6 54 l-29 24 25 10 c15 6 19 10 9 10 -9 1 -22
-5 -28 -13z"/>
<path d="M4637 4803 c-14 -13 -6 -31 21 -47 l27 -17 -22 20 c-13 10 -23 24
-23 29 0 6 10 13 23 15 20 4 20 4 1 6 -11 0 -24 -2 -27 -6z"/>
<path d="M4770 4791 c0 -15 -8 -21 -32 -24 l-33 -4 32 -1 c26 -2 32 -7 36 -29
2 -16 5 -4 6 25 0 28 -1 52 -4 52 -3 0 -5 -9 -5 -19z"/>
<path d="M4842 4760 c0 -32 2 -47 7 -37 6 17 8 17 20 3 7 -9 18 -16 24 -16 6
0 1 7 -11 16 -23 16 -23 17 -5 38 18 21 18 21 -4 3 -21 -19 -22 -19 -26 15 -2
21 -4 13 -5 -22z"/>
<path d="M5222 4760 c0 -41 2 -47 7 -25 9 43 38 45 44 3 l5 -33 -2 35 c-1 28
-5 35 -21 35 -11 0 -23 9 -27 20 -3 11 -6 -4 -6 -35z"/>
<path d="M5402 4760 c0 -41 2 -47 7 -25 3 17 13 30 21 30 8 0 18 -13 22 -30 6
-29 6 -29 5 5 -2 28 -6 35 -22 35 -11 0 -23 9 -27 20 -3 11 -6 -4 -6 -35z"/>
<path d="M5943 4760 c0 -30 2 -43 4 -27 2 15 2 39 0 55 -2 15 -4 2 -4 -28z"/>
<path d="M5973 4760 c0 -30 2 -43 4 -27 2 15 2 39 0 55 -2 15 -4 2 -4 -28z"/>
<path d="M6693 4760 c0 -30 2 -43 4 -27 2 15 2 39 0 55 -2 15 -4 2 -4 -28z"/>
<path d="M6962 4760 c0 -41 2 -47 7 -25 9 43 38 45 44 3 l5 -33 -2 35 c-1 28
-5 35 -21 35 -11 0 -23 9 -27 20 -3 11 -6 -4 -6 -35z"/>
<path d="M7162 4793 c-4 -10 -5 -34 -1 -53 l6 -35 3 35 c1 19 2 39 1 44 -1 5
4 13 11 17 9 6 10 9 1 9 -7 0 -16 -8 -21 -17z"/>
<path d="M7233 4760 c0 -30 2 -43 4 -27 2 15 2 39 0 55 -2 15 -4 2 -4 -28z"/>
<path d="M7381 4794 c0 -11 3 -14 6 -6 3 7 2 16 -1 19 -3 4 -6 -2 -5 -13z"/>
<path d="M7535 4799 c-4 -6 -5 -12 -2 -15 2 -3 7 2 10 11 7 17 1 20 -8 4z"/>
<path d="M7713 4760 c0 -30 2 -43 4 -27 2 15 2 39 0 55 -2 15 -4 2 -4 -28z"/>
<path d="M8140 4792 c0 -13 -7 -18 -22 -18 -19 1 -23 -4 -23 -29 0 -26 4 -30
28 -31 26 -1 27 1 27 47 0 27 -2 49 -5 49 -3 0 -5 -8 -5 -18z m-5 -47 c0 -11
-8 -21 -17 -23 -14 -3 -18 3 -18 23 0 20 4 26 18 23 9 -2 17 -12 17 -23z"/>
<path d="M8180 4806 c0 -2 9 -6 20 -9 11 -3 18 -1 14 4 -5 9 -34 13 -34 5z"/>
<path d="M8250 4785 c0 -18 5 -25 20 -25 27 0 27 -37 0 -43 -17 -4 -16 -4 2
-3 32 2 38 45 9 53 -28 7 -27 30 2 36 19 4 18 4 -5 6 -24 1 -28 -3 -28 -24z"/>
<path d="M8330 4801 c0 -5 9 -7 20 -4 11 3 20 7 20 9 0 2 -9 4 -20 4 -11 0
-20 -4 -20 -9z"/>
<path d="M8481 4796 c-15 -17 -4 -46 18 -46 14 1 14 2 -1 11 -24 14 -22 28 5
39 15 6 17 9 6 9 -9 1 -22 -5 -28 -13z"/>
<path d="M8741 4764 c-1 -49 0 -51 26 -50 14 1 28 8 30 16 4 12 3 13 -5 1 -12
-17 -42 -7 -42 14 0 21 30 31 42 14 8 -12 9 -11 5 1 -2 8 -12 15 -23 15 -10 0
-22 9 -26 20 -3 12 -6 0 -7 -31z"/>
<path d="M8821 4794 c0 -11 3 -14 6 -6 3 7 2 16 -1 19 -3 4 -6 -2 -5 -13z"/>
<path d="M3668 4787 c-7 -21 6 -70 20 -73 7 -1 8 0 2 3 -12 6 -13 50 -1 55 5
2 3 8 -4 15 -10 9 -14 9 -17 0z"/>
<path d="M6338 4787 c-7 -21 6 -70 20 -73 7 -1 8 0 2 3 -12 6 -13 50 -1 55 5
2 3 8 -4 15 -10 9 -14 9 -17 0z"/>
<path d="M6918 4787 c-7 -21 6 -70 20 -73 7 -1 8 0 2 3 -12 6 -13 50 -1 55 5
2 3 8 -4 15 -10 9 -14 9 -17 0z"/>
<path d="M8405 4790 c-3 -6 1 -7 9 -4 18 7 21 14 7 14 -6 0 -13 -4 -16 -10z"/>
<path d="M7806 4775 c-9 -26 -7 -32 5 -12 6 10 9 21 6 23 -2 3 -7 -2 -11 -11z"/>
<path d="M8521 4762 c-1 -24 -7 -35 -23 -42 -16 -6 -18 -9 -7 -9 25 -1 41 24
36 56 -4 27 -4 26 -6 -5z"/>
<path d="M3540 4776 c0 -2 9 -6 20 -9 11 -3 20 -1 20 4 0 5 -9 9 -20 9 -11 0
-20 -2 -20 -4z"/>
<path d="M3605 4770 c-8 -14 3 -30 21 -30 20 0 18 -18 -3 -23 -15 -3 -14 -4 1
-3 27 1 32 26 7 33 -26 7 -27 20 -3 26 15 4 15 5 0 6 -9 0 -20 -3 -23 -9z"/>
<path d="M3714 4766 c-11 -28 1 -51 26 -53 22 -1 22 -1 3 4 -31 6 -29 23 3 23
20 0 25 4 20 16 -3 9 -6 18 -6 20 0 11 -41 2 -46 -10z m41 -6 c3 -5 -3 -10
-14 -10 -12 0 -21 5 -21 10 0 6 6 10 14 10 8 0 18 -4 21 -10z"/>
<path d="M3825 4767 c16 -58 17 -70 4 -78 -11 -7 -11 -9 -1 -9 14 0 33 42 23
50 -4 3 -12 16 -19 30 -7 14 -10 17 -7 7z"/>
<path d="M3894 4766 c-14 -37 22 -74 47 -49 6 6 1 9 -13 9 -14 -1 -24 6 -26
17 -4 22 27 35 40 16 8 -12 9 -11 5 1 -5 20 -46 25 -53 6z"/>
<path d="M4023 4745 c0 -22 2 -30 4 -17 2 12 2 30 0 40 -3 9 -5 -1 -4 -23z"/>
<path d="M4051 4740 c1 -27 3 -29 6 -10 2 14 11 30 20 37 13 10 13 12 -6 10
-17 -1 -21 -7 -20 -37z"/>
<path d="M4141 4726 c1 -31 4 -43 7 -31 4 11 16 20 26 20 11 0 21 7 23 15 4
12 3 13 -5 1 -12 -17 -42 -7 -42 14 0 21 30 31 42 14 8 -12 9 -11 5 1 -2 8
-16 15 -30 16 -26 1 -27 -1 -26 -50z"/>
<path d="M4223 4748 c2 -28 6 -33 30 -34 25 -1 27 2 26 35 -1 36 -1 36 -8 6
-9 -42 -38 -45 -45 -6 l-6 31 3 -32z"/>
<path d="M4423 4745 c0 -22 2 -30 4 -17 2 12 2 30 0 40 -3 9 -5 -1 -4 -23z"/>
<path d="M4460 4765 c-18 -22 -8 -50 20 -52 25 -3 25 -3 3 7 -13 5 -23 16 -23
25 0 9 10 20 23 25 15 6 17 9 6 9 -9 1 -22 -6 -29 -14z"/>
<path d="M4914 4766 c-11 -28 1 -51 26 -53 22 -1 22 -1 3 4 -32 6 -29 21 5 26
l27 4 -27 2 c-16 0 -28 6 -28 12 0 6 9 9 20 6 11 -3 18 -1 14 4 -8 14 -34 11
-40 -5z"/>
<path d="M4985 4767 c16 -58 17 -70 4 -78 -11 -7 -11 -9 -1 -9 14 0 33 42 23
50 -4 3 -12 16 -19 30 -7 14 -10 17 -7 7z"/>
<path d="M5117 4759 c4 -13 8 -18 11 -10 2 7 -1 18 -6 23 -8 8 -9 4 -5 -13z"/>
<path d="M5155 4771 c-3 -5 -1 -12 5 -16 5 -3 10 1 10 9 0 18 -6 21 -15 7z"/>
<path d="M5303 4745 c0 -22 2 -30 4 -17 2 12 2 30 0 40 -3 9 -5 -1 -4 -23z"/>
<path d="M5339 4764 c-16 -19 -1 -48 27 -51 15 -2 14 -1 -3 7 -13 5 -23 16
-23 25 0 9 10 20 23 25 15 6 17 9 6 9 -9 1 -22 -6 -30 -15z"/>
<path d="M5523 4745 c0 -22 2 -30 4 -17 2 12 2 30 0 40 -3 9 -5 -1 -4 -23z"/>
<path d="M5554 4768 c-4 -6 0 -16 9 -23 22 -16 21 -22 0 -28 -16 -4 -16 -5 -1
-6 24 -2 34 20 15 34 -22 16 -21 22 1 28 15 4 15 5 0 6 -9 0 -20 -4 -24 -11z"/>
<path d="M5654 4751 c0 -21 7 -36 16 -38 10 -3 11 -2 3 4 -6 4 -13 22 -16 38
-4 27 -5 27 -3 -4z"/>
<path d="M5693 4745 c0 -22 2 -30 4 -17 2 12 2 30 0 40 -3 9 -5 -1 -4 -23z"/>
<path d="M5738 4773 c7 -3 16 -2 19 1 4 3 -2 6 -13 5 -11 0 -14 -3 -6 -6z"/>
<path d="M5794 4751 c0 -21 7 -36 16 -38 10 -3 11 -2 3 4 -6 4 -13 22 -16 38
-4 27 -5 27 -3 -4z"/>
<path d="M5833 4745 c0 -22 2 -30 4 -17 2 12 2 30 0 40 -3 9 -5 -1 -4 -23z"/>
<path d="M5890 4768 c24 -10 24 -10 5 -18 -18 -8 -18 -9 -2 -9 10 -1 15 -6 11
-12 -3 -6 -15 -9 -25 -6 -11 3 -17 1 -14 -4 10 -16 55 -6 55 12 0 32 -12 49
-34 48 -19 0 -19 -1 4 -11z"/>
<path d="M6005 4767 c16 -58 17 -70 4 -78 -11 -7 -11 -9 -1 -9 14 0 33 42 23
50 -4 3 -12 16 -19 30 -7 14 -10 17 -7 7z"/>
<path d="M6120 4765 c-18 -22 -8 -50 20 -52 25 -3 25 -3 3 7 -13 5 -23 16 -23
25 0 9 10 20 23 25 15 6 17 9 6 9 -9 1 -22 -6 -29 -14z"/>
<path d="M6186 4772 c-3 -5 5 -8 17 -8 16 1 22 -5 22 -19 0 -14 -6 -20 -22
-19 -12 0 -20 -3 -17 -8 17 -27 59 9 49 42 -6 20 -39 28 -49 12z"/>
<path d="M6263 4745 c0 -22 2 -30 4 -17 2 12 2 30 0 40 -3 9 -5 -1 -4 -23z"/>
<path d="M6280 4776 c0 -2 7 -6 15 -10 8 -3 15 -1 15 4 0 6 -7 10 -15 10 -8 0
-15 -2 -15 -4z"/>
<path d="M6390 4776 c0 -2 9 -6 20 -9 11 -3 20 -1 20 4 0 5 -9 9 -20 9 -11 0
-20 -2 -20 -4z"/>
<path d="M6463 4745 c0 -22 2 -30 4 -17 2 12 2 30 0 40 -3 9 -5 -1 -4 -23z"/>
<path d="M6491 4741 c1 -36 1 -36 8 -6 3 17 13 30 21 30 8 0 18 -13 22 -30 6
-29 6 -29 5 5 -2 31 -5 35 -29 36 -26 1 -28 -2 -27 -35z"/>
<path d="M6574 4766 c-11 -28 1 -51 26 -53 22 -1 22 -1 3 4 -32 6 -29 21 5 26
l27 4 -27 2 c-16 0 -28 6 -28 12 0 6 9 9 20 6 11 -3 18 -1 14 4 -8 14 -34 11
-40 -5z"/>
<path d="M6644 4766 c-9 -23 0 -51 16 -52 9 0 10 1 3 3 -20 7 -16 51 5 56 16
4 16 5 -1 6 -10 0 -20 -5 -23 -13z"/>
<path d="M6763 4745 c0 -22 2 -30 4 -17 2 12 2 30 0 40 -3 9 -5 -1 -4 -23z"/>
<path d="M6803 4745 c0 -22 2 -30 4 -17 2 12 2 30 0 40 -3 9 -5 -1 -4 -23z"/>
<path d="M6820 4776 c0 -2 7 -6 15 -10 8 -3 15 -1 15 4 0 6 -7 10 -15 10 -8 0
-15 -2 -15 -4z"/>
<path d="M7044 4766 c-11 -28 1 -51 26 -53 22 -1 22 -1 3 4 -31 6 -29 23 3 23
20 0 25 4 20 16 -3 9 -6 18 -6 20 0 11 -41 2 -46 -10z m41 -6 c3 -5 -3 -10
-14 -10 -12 0 -21 5 -21 10 0 6 6 10 14 10 8 0 18 -4 21 -10z"/>
<path d="M7203 4745 c0 -22 2 -30 4 -17 2 12 2 30 0 40 -3 9 -5 -1 -4 -23z"/>
<path d="M7270 4765 c-18 -22 -1 -49 31 -52 19 -1 20 -1 4 4 -34 9 -41 23 -11
23 21 0 27 4 24 17 -4 24 -32 28 -48 8z m40 -5 c0 -5 -9 -10 -21 -10 -11 0
-17 5 -14 10 3 6 13 10 21 10 8 0 14 -4 14 -10z"/>
<path d="M7594 4768 c-4 -6 0 -16 9 -23 22 -16 21 -22 0 -28 -16 -4 -16 -5 -1
-6 24 -2 34 20 15 34 -22 16 -21 22 1 28 15 4 15 5 0 6 -9 0 -20 -4 -24 -11z"/>
<path d="M7658 4773 c7 -3 16 -2 19 1 4 3 -2 6 -13 5 -11 0 -14 -3 -6 -6z"/>
<path d="M7730 4776 c0 -2 7 -6 15 -10 8 -3 15 -1 15 4 0 6 -7 10 -15 10 -8 0
-15 -2 -15 -4z"/>
<path d="M7843 4745 c0 -22 2 -30 4 -17 2 12 2 30 0 40 -3 9 -5 -1 -4 -23z"/>
<path d="M7879 4764 c-9 -11 -10 -20 -2 -32 13 -21 45 -22 50 -2 4 12 3 13 -5
1 -13 -19 -44 -6 -40 16 2 11 12 18 25 17 12 0 20 3 17 8 -8 13 -31 9 -45 -8z"/>
<path d="M8026 4771 c-3 -5 3 -7 14 -4 11 3 20 1 20 -5 0 -6 -12 -13 -27 -15
-26 -4 -25 -4 5 -6 27 -1 33 2 30 16 -4 20 -33 29 -42 14z"/>
<path d="M8201 4757 c-13 -21 -12 -21 5 -5 10 10 16 20 13 22 -3 3 -11 -5 -18
-17z"/>
<path d="M8581 4726 c1 -31 4 -43 7 -31 4 11 16 20 26 20 11 0 21 7 23 15 4
12 3 13 -5 1 -12 -17 -42 -7 -42 14 0 21 30 31 42 14 8 -12 9 -11 5 1 -2 8
-16 15 -30 16 -26 1 -27 -1 -26 -50z"/>
<path d="M8663 4748 c2 -28 6 -33 30 -34 25 -1 27 2 26 35 -1 36 -1 36 -8 6
-9 -42 -38 -45 -45 -6 l-6 31 3 -32z"/>
<path d="M8900 4766 c-27 -33 18 -72 48 -42 13 13 14 20 6 34 -15 23 -38 26
-54 8z m48 -19 c4 -20 -25 -34 -40 -19 -15 15 -1 44 19 40 10 -2 19 -11 21
-21z"/>
<path d="M8981 4743 c2 -35 2 -35 6 -8 3 16 10 33 16 37 8 5 6 8 -5 8 -14 0
-18 -8 -17 -37z"/>
<path d="M8340 4763 c8 -3 22 -11 30 -17 13 -10 13 -9 1 7 -7 9 -21 17 -30 16
-13 0 -14 -1 -1 -6z"/>
<path d="M5743 4747 c21 -17 21 -24 2 -30 -12 -4 -11 -5 1 -3 27 2 28 23 2 36
-21 10 -21 10 -5 -3z"/>
<path d="M7417 4753 c-3 -5 9 -9 26 -10 26 -1 28 0 12 7 -26 11 -33 12 -38 3z"/>
<path d="M7663 4747 c21 -17 21 -24 2 -30 -12 -4 -11 -5 1 -3 27 2 28 23 2 36
-21 10 -21 10 -5 -3z"/>
<path d="M3535 4740 c-3 -5 -3 -14 0 -20 8 -12 32 -13 39 -1 4 5 -3 7 -14 4
-11 -3 -20 -1 -20 5 0 6 10 13 23 15 22 4 22 4 0 6 -12 0 -25 -3 -28 -9z"/>
<path d="M6385 4740 c-3 -5 -3 -14 0 -20 8 -12 32 -13 39 -1 4 5 -3 7 -14 4
-11 -3 -20 -1 -20 5 0 6 10 13 23 15 22 4 22 4 0 6 -12 0 -25 -3 -28 -9z"/>
<path d="M5135 4729 c-4 -6 -5 -12 -2 -15 2 -3 7 2 10 11 7 17 1 20 -8 4z"/>
<path d="M5170 4731 c0 -5 5 -13 10 -16 6 -3 10 -2 10 4 0 5 -4 13 -10 16 -5
3 -10 2 -10 -4z"/>
<path d="M3980 4720 c0 -6 7 -10 15 -10 8 0 15 2 15 4 0 2 -7 6 -15 10 -8 3
-15 1 -15 -4z"/>
<path d="M4650 4720 c-23 -7 -23 -8 -3 -9 12 -1 25 4 28 9 3 6 5 10 3 9 -2 -1
-14 -5 -28 -9z"/>
<path d="M8028 4718 c6 -6 18 -8 28 -6 14 3 12 5 -9 10 -19 3 -25 2 -19 -4z"/>
<path d="M8170 4718 c0 -4 14 -8 30 -8 17 0 30 2 30 4 0 2 -13 6 -30 8 -16 3
-30 1 -30 -4z"/>
<path d="M8340 4720 c-23 -7 -23 -8 -3 -9 12 -1 25 4 28 9 3 6 5 10 3 9 -2 -1
-14 -5 -28 -9z"/>
<path d="M7963 4693 c9 -2 23 -2 30 0 6 3 -1 5 -18 5 -16 0 -22 -2 -12 -5z"/>
<path d="M3461 4584 c0 -11 3 -14 6 -6 3 7 2 16 -1 19 -3 4 -6 -2 -5 -13z"/>
<path d="M3792 4550 c0 -41 2 -47 7 -25 9 43 38 45 44 3 l5 -33 -2 35 c-1 28
-5 35 -21 35 -11 0 -23 9 -27 20 -3 11 -6 -4 -6 -35z"/>
<path d="M4010 4582 c0 -13 -7 -18 -22 -18 -19 1 -23 -4 -23 -29 0 -26 4 -30
28 -31 26 -1 27 1 27 47 0 27 -2 49 -5 49 -3 0 -5 -8 -5 -18z m-5 -47 c0 -11
-8 -21 -17 -23 -14 -3 -18 3 -18 23 0 20 4 26 18 23 9 -2 17 -12 17 -23z"/>
<path d="M4471 4555 c-1 -47 1 -51 24 -53 13 -1 26 2 29 6 3 5 -5 8 -17 8 -16
-1 -22 5 -22 19 0 14 6 20 22 19 12 0 19 4 16 9 -3 5 -14 7 -24 4 -12 -3 -19
2 -22 17 -2 11 -5 -2 -6 -29z"/>
<path d="M4902 4553 c-2 -46 1 -53 17 -53 10 0 24 7 31 15 15 18 4 55 -18 55
-13 0 -13 -2 3 -14 21 -15 15 -46 -9 -46 -11 0 -16 14 -19 48 l-3 47 -2 -52z"/>
<path d="M5533 4550 c0 -30 2 -43 4 -27 2 15 2 39 0 55 -2 15 -4 2 -4 -28z"/>
<path d="M5803 4550 c0 -30 2 -43 4 -27 2 15 2 39 0 55 -2 15 -4 2 -4 -28z"/>
<path d="M6108 4593 c12 -2 22 -9 22 -16 0 -6 -10 -22 -22 -35 l-23 -25 23 14
c41 25 41 70 -1 68 -22 -2 -22 -2 1 -6z"/>
<path d="M6170 4591 c0 -5 9 -7 20 -4 11 3 20 7 20 9 0 2 -9 4 -20 4 -11 0
-20 -4 -20 -9z"/>
<path d="M6240 4575 c0 -18 5 -25 20 -25 27 0 27 -37 0 -43 -17 -4 -16 -4 2
-3 32 2 38 45 9 53 -28 7 -27 30 2 36 19 4 18 4 -5 6 -24 1 -28 -3 -28 -24z"/>
<path d="M6329 4583 c-8 -10 -9 -14 -2 -10 8 5 13 -6 16 -35 3 -41 4 -41 5 10
1 28 0 52 -2 52 -2 0 -10 -8 -17 -17z"/>
<path d="M6390 4585 c-10 -12 -10 -18 0 -30 7 -8 19 -15 26 -15 22 0 16 -20
-8 -30 -16 -6 -18 -9 -7 -9 25 -1 41 24 37 61 -3 37 -27 48 -48 23z m40 -15
c0 -11 -6 -20 -14 -20 -18 0 -29 16 -21 30 11 18 35 11 35 -10z"/>
<path d="M6863 4550 c0 -30 2 -43 4 -27 2 15 2 39 0 55 -2 15 -4 2 -4 -28z"/>
<path d="M7171 4584 c0 -11 3 -14 6 -6 3 7 2 16 -1 19 -3 4 -6 -2 -5 -13z"/>
<path d="M7270 4550 c0 -46 2 -50 24 -50 31 0 56 25 55 53 -1 20 -2 21 -6 2
-7 -29 -23 -45 -44 -45 -16 0 -19 8 -19 41 0 41 0 41 30 35 19 -3 29 -2 25 4
-3 6 -19 10 -36 10 -28 0 -29 -1 -29 -50z"/>
<path d="M7531 4584 c0 -11 3 -14 6 -6 3 7 2 16 -1 19 -3 4 -6 -2 -5 -13z"/>
<path d="M8681 4586 c-9 -11 -8 -18 4 -30 9 -9 21 -16 26 -16 19 0 8 -29 -13
-33 l-23 -4 23 -2 c36 -2 39 27 6 54 l-29 24 25 10 c15 6 19 10 9 10 -9 1 -22
-5 -28 -13z"/>
<path d="M8757 4593 c-14 -13 -6 -31 21 -47 l27 -17 -22 20 c-13 10 -23 24
-23 29 0 6 10 13 23 15 20 4 20 4 1 6 -11 0 -24 -2 -27 -6z"/>
<path d="M8833 4550 c0 -30 2 -43 4 -27 3 21 10 27 28 27 18 0 25 -6 28 -27 2
-16 4 -3 4 27 0 30 -2 45 -4 33 -3 -16 -11 -23 -28 -23 -17 0 -25 7 -28 23 -2
12 -4 -3 -4 -33z"/>
<path d="M8962 4550 c0 -32 2 -47 7 -37 6 17 8 17 20 3 7 -9 18 -16 24 -16 6
0 1 7 -11 16 -23 16 -23 17 -5 38 18 21 18 21 -4 3 -21 -19 -22 -19 -26 15 -2
21 -4 13 -5 -22z"/>
<path d="M7568 4580 c-5 -17 3 -80 11 -80 7 0 6 79 -2 86 -3 3 -7 0 -9 -6z"/>
<path d="M8518 4577 c-7 -21 6 -70 20 -73 7 -1 8 0 2 3 -12 6 -13 50 -1 55 5
2 3 8 -4 15 -10 9 -14 9 -17 0z"/>
<path d="M3606 4555 c-9 -26 -7 -32 5 -12 6 10 9 21 6 23 -2 3 -7 -2 -11 -11z"/>
<path d="M3674 4558 c-4 -6 0 -16 9 -23 22 -16 21 -22 0 -28 -16 -4 -16 -5 -1
-6 24 -2 34 20 15 34 -22 16 -21 22 1 28 15 4 15 5 0 6 -9 0 -20 -4 -24 -11z"/>
<path d="M3734 4558 c-4 -6 0 -16 9 -23 22 -16 21 -22 0 -28 -16 -4 -16 -5 -1
-6 24 -2 34 20 15 34 -22 16 -21 22 1 28 15 4 15 5 0 6 -9 0 -20 -4 -24 -11z"/>
<path d="M3933 4535 c0 -22 2 -30 4 -17 2 12 2 30 0 40 -3 9 -5 -1 -4 -23z"/>
<path d="M4101 4530 c1 -27 3 -29 6 -10 2 14 11 30 20 37 13 10 13 12 -6 10
-17 -1 -21 -7 -20 -37z"/>
<path d="M4154 4558 c-4 -6 0 -16 9 -23 22 -16 21 -22 0 -28 -16 -4 -16 -5 -1
-6 24 -2 34 20 15 34 -22 16 -21 22 1 28 15 4 15 5 0 6 -9 0 -20 -4 -24 -11z"/>
<path d="M4233 4564 c23 -7 22 -20 -3 -27 -25 -6 -27 -37 -2 -36 10 0 12 3 5
6 -18 7 -16 23 1 23 8 0 17 -8 20 -17 2 -10 4 -2 3 17 -2 27 -7 35 -22 37 -16
1 -16 1 -2 -3z"/>
<path d="M4311 4516 c1 -31 4 -43 7 -31 4 11 16 20 26 20 11 0 21 7 23 15 4
12 3 13 -5 1 -12 -17 -42 -7 -42 14 0 21 30 31 42 14 8 -12 9 -11 5 1 -2 8
-16 15 -30 16 -26 1 -27 -1 -26 -50z"/>
<path d="M4393 4538 c2 -28 6 -33 30 -34 25 -1 27 2 26 35 -1 36 -1 36 -8 6
-9 -42 -38 -45 -45 -6 l-6 31 3 -32z"/>
<path d="M4630 4566 c0 -2 9 -6 20 -9 11 -3 20 -1 20 4 0 5 -9 9 -20 9 -11 0
-20 -2 -20 -4z"/>
<path d="M4703 4535 c0 -22 2 -30 4 -17 2 12 2 30 0 40 -3 9 -5 -1 -4 -23z"/>
<path d="M4727 4563 c6 -4 13 -22 16 -38 4 -27 5 -27 3 4 0 21 -7 36 -16 38
-10 3 -11 2 -3 -4z"/>
<path d="M4779 4554 c-9 -11 -10 -20 -2 -32 13 -21 45 -22 50 -2 4 12 3 13 -5
1 -13 -19 -44 -6 -40 16 2 11 12 18 25 17 12 0 20 3 17 8 -8 13 -31 9 -45 -8z"/>
<path d="M4986 4561 c-3 -5 3 -7 14 -4 11 3 20 1 20 -5 0 -6 -12 -13 -27 -15
-26 -4 -25 -4 5 -6 27 -1 33 2 30 16 -4 20 -33 29 -42 14z"/>
<path d="M5054 4556 c-9 -23 0 -51 16 -52 9 0 10 1 3 3 -20 7 -16 51 5 56 16
4 16 5 -1 6 -10 0 -20 -5 -23 -13z"/>
<path d="M5100 4530 c-4 -37 -9 -45 -30 -51 l-25 -7 28 -1 c32 -1 40 13 35 65
l-4 39 -4 -45z"/>
<path d="M5143 4535 c0 -22 2 -30 4 -17 2 12 2 30 0 40 -3 9 -5 -1 -4 -23z"/>
<path d="M5173 4535 c0 -22 2 -30 4 -17 2 12 2 30 0 40 -3 9 -5 -1 -4 -23z"/>
<path d="M5190 4566 c0 -2 7 -6 15 -10 8 -3 15 -1 15 4 0 6 -7 10 -15 10 -8 0
-15 -2 -15 -4z"/>
<path d="M5258 4563 c7 -3 16 -2 19 1 4 3 -2 6 -13 5 -11 0 -14 -3 -6 -6z"/>
<path d="M5380 4565 c0 -5 5 -17 10 -25 5 -8 10 -10 10 -5 0 6 -5 17 -10 25
-5 8 -10 11 -10 5z"/>
<path d="M5453 4535 c0 -22 2 -30 4 -17 2 12 2 30 0 40 -3 9 -5 -1 -4 -23z"/>
<path d="M5478 4563 c6 -2 18 -2 25 0 6 3 1 5 -13 5 -14 0 -19 -2 -12 -5z"/>
<path d="M5550 4566 c0 -2 7 -6 15 -10 8 -3 15 -1 15 4 0 6 -7 10 -15 10 -8 0
-15 -2 -15 -4z"/>
<path d="M5688 4563 c7 -3 16 -2 19 1 4 3 -2 6 -13 5 -11 0 -14 -3 -6 -6z"/>
<path d="M5748 4563 c7 -3 16 -2 19 1 4 3 -2 6 -13 5 -11 0 -14 -3 -6 -6z"/>
<path d="M5827 4563 c6 -4 13 -22 16 -38 4 -27 5 -27 3 4 0 21 -7 36 -16 38
-10 3 -11 2 -3 -4z"/>
<path d="M5934 4556 c-11 -28 1 -51 26 -53 22 -1 22 -1 3 4 -32 6 -29 21 5 26
l27 4 -27 2 c-16 0 -28 6 -28 12 0 6 9 9 20 6 11 -3 18 -1 14 4 -8 14 -34 11
-40 -5z"/>
<path d="M6009 4554 c-9 -11 -10 -20 -2 -32 13 -21 45 -22 50 -2 4 12 3 13 -5
1 -13 -19 -44 -6 -40 16 2 11 12 18 25 17 12 0 20 3 17 8 -8 13 -31 9 -45 -8z"/>
<path d="M6540 4556 c-27 -33 18 -72 48 -42 13 13 14 20 6 34 -15 23 -38 26
-54 8z m48 -19 c4 -20 -25 -34 -40 -19 -15 15 -1 44 19 40 10 -2 19 -11 21
-21z"/>
<path d="M6623 4535 c0 -22 2 -30 4 -17 2 12 2 30 0 40 -3 9 -5 -1 -4 -23z"/>
<path d="M6735 4560 c-8 -14 3 -30 21 -30 20 0 18 -18 -3 -23 -15 -3 -14 -4 1
-3 27 1 32 26 7 33 -26 7 -27 20 -3 26 15 4 15 5 0 6 -9 0 -20 -3 -23 -9z"/>
<path d="M6795 4560 c-8 -14 3 -30 21 -30 20 0 18 -18 -3 -23 -15 -3 -14 -4 1
-3 27 1 32 26 7 33 -26 7 -27 20 -3 26 15 4 15 5 0 6 -9 0 -20 -3 -23 -9z"/>
<path d="M6887 4563 c6 -4 13 -22 16 -38 4 -27 5 -27 3 4 0 21 -7 36 -16 38
-10 3 -11 2 -3 -4z"/>
<path d="M6991 4530 c1 -27 3 -29 6 -10 2 14 11 30 20 37 13 10 13 12 -6 10
-17 -1 -21 -7 -20 -37z"/>
<path d="M7048 4563 c7 -3 16 -2 19 1 4 3 -2 6 -13 5 -11 0 -14 -3 -6 -6z"/>
<path d="M7120 4558 c24 -10 24 -10 5 -18 -18 -8 -18 -9 -2 -9 10 -1 15 -6 11
-12 -3 -6 -15 -9 -25 -6 -11 3 -17 1 -14 -4 10 -16 55 -6 55 12 0 32 -12 49
-34 48 -19 0 -19 -1 4 -11z"/>
<path d="M7376 4562 c-3 -5 5 -8 17 -8 16 1 22 -5 22 -19 0 -14 -6 -20 -22
-19 -12 0 -20 -3 -17 -8 17 -27 59 9 49 42 -6 20 -39 28 -49 12z"/>
<path d="M7451 4531 c1 -36 1 -36 8 -6 3 17 13 30 21 30 8 0 18 -13 22 -30 6
-29 6 -29 5 5 -2 31 -5 35 -29 36 -26 1 -28 -2 -27 -35z"/>
<path d="M7654 4541 c0 -21 7 -36 16 -38 10 -3 11 -2 3 4 -6 4 -13 22 -16 38
-4 27 -5 27 -3 -4z"/>
<path d="M7693 4535 c0 -22 2 -30 4 -17 2 12 2 30 0 40 -3 9 -5 -1 -4 -23z"/>
<path d="M7738 4563 c7 -3 16 -2 19 1 4 3 -2 6 -13 5 -11 0 -14 -3 -6 -6z"/>
<path d="M7790 4555 c-18 -22 -1 -49 31 -52 19 -1 20 -1 4 4 -34 9 -41 23 -11
23 21 0 27 4 24 17 -4 24 -32 28 -48 8z m40 -5 c0 -5 -9 -10 -21 -10 -11 0
-17 5 -14 10 3 6 13 10 21 10 8 0 14 -4 14 -10z"/>
<path d="M7890 4565 c0 -5 5 -17 10 -25 5 -8 10 -10 10 -5 0 6 -5 17 -10 25
-5 8 -10 11 -10 5z"/>
<path d="M7936 4555 c-9 -26 -7 -32 5 -12 6 10 9 21 6 23 -2 3 -7 -2 -11 -11z"/>
<path d="M7970 4556 c-27 -33 18 -72 48 -42 13 13 14 20 6 34 -15 23 -38 26
-54 8z m48 -19 c4 -20 -25 -34 -40 -19 -15 15 -1 44 19 40 10 -2 19 -11 21
-21z"/>
<path d="M8054 4541 c0 -21 7 -36 16 -38 10 -3 11 -2 3 4 -6 4 -13 22 -16 38
-4 27 -5 27 -3 -4z"/>
<path d="M8093 4535 c0 -22 2 -30 4 -17 2 12 2 30 0 40 -3 9 -5 -1 -4 -23z"/>
<path d="M8133 4535 c0 -22 2 -30 4 -17 2 12 2 30 0 40 -3 9 -5 -1 -4 -23z"/>
<path d="M8223 4520 c0 -30 1 -47 4 -37 2 9 10 17 18 17 20 0 37 27 30 50 -3
11 -14 20 -23 20 -13 0 -13 -2 3 -14 21 -15 15 -46 -9 -46 -9 0 -16 12 -19 33
-2 18 -4 8 -4 -23z"/>
<path d="M8301 4533 c2 -35 2 -35 6 -8 3 16 10 33 16 37 8 5 6 8 -5 8 -14 0
-18 -8 -17 -37z"/>
<path d="M8353 4535 c0 -22 2 -30 4 -17 2 12 2 30 0 40 -3 9 -5 -1 -4 -23z"/>
<path d="M8370 4565 c0 -5 5 -17 10 -25 5 -8 10 -10 10 -5 0 6 -5 17 -10 25
-5 8 -10 11 -10 5z"/>
<path d="M8450 4566 c0 -2 9 -6 20 -9 11 -3 20 -1 20 4 0 5 -9 9 -20 9 -11 0
-20 -2 -20 -4z"/>
<path d="M8570 4555 c-18 -22 -1 -49 31 -52 19 -1 20 -1 4 4 -34 9 -41 23 -11
23 21 0 27 4 24 17 -4 24 -32 28 -48 8z m40 -5 c0 -5 -9 -10 -21 -10 -11 0
-17 5 -14 10 3 6 13 10 21 10 8 0 14 -4 14 -10z"/>
<path d="M9034 4556 c-11 -28 1 -51 26 -53 22 -1 22 -1 3 4 -31 6 -29 23 3 23
20 0 25 4 20 16 -3 9 -6 18 -6 20 0 11 -41 2 -46 -10z m41 -6 c3 -5 -3 -10
-14 -10 -12 0 -21 5 -21 10 0 6 6 10 14 10 8 0 18 -4 21 -10z"/>
<path d="M9105 4557 c16 -58 17 -70 4 -78 -11 -7 -11 -9 -1 -9 14 0 33 42 23
50 -4 3 -12 16 -19 30 -7 14 -10 17 -7 7z"/>
<path d="M6180 4553 c8 -3 22 -11 30 -17 13 -10 13 -9 1 7 -7 9 -21 17 -30 16
-13 0 -14 -1 -1 -6z"/>
<path d="M3519 4539 c14 -5 28 -6 32 -2 4 4 -6 9 -24 10 -30 1 -31 1 -8 -8z"/>
<path d="M5263 4537 c21 -17 21 -24 2 -30 -12 -4 -11 -5 1 -3 27 2 28 23 2 36
-21 10 -21 10 -5 -3z"/>
<path d="M5693 4537 c21 -17 21 -24 2 -30 -12 -4 -11 -5 1 -3 27 2 28 23 2 36
-21 10 -21 10 -5 -3z"/>
<path d="M5753 4537 c21 -17 21 -24 2 -30 -12 -4 -11 -5 1 -3 27 2 28 23 2 36
-21 10 -21 10 -5 -3z"/>
<path d="M7053 4537 c21 -17 21 -24 2 -30 -12 -4 -11 -5 1 -3 27 2 28 23 2 36
-21 10 -21 10 -5 -3z"/>
<path d="M7743 4537 c21 -17 21 -24 2 -30 -12 -4 -11 -5 1 -3 27 2 28 23 2 36
-21 10 -21 10 -5 -3z"/>
<path d="M3876 4525 c-9 -26 -7 -32 5 -12 6 10 9 21 6 23 -2 3 -7 -2 -11 -11z"/>
<path d="M4625 4530 c-3 -5 -3 -14 0 -20 8 -12 32 -13 39 -1 4 5 -3 7 -14 4
-11 -3 -20 -1 -20 5 0 6 10 13 23 15 22 4 22 4 0 6 -12 0 -25 -3 -28 -9z"/>
<path d="M5350 4528 c0 -9 5 -20 10 -23 13 -8 13 5 0 25 -8 13 -10 13 -10 -2z"/>
<path d="M5406 4524 c-4 -9 -4 -19 -1 -22 2 -3 7 3 11 12 4 9 4 19 1 22 -2 3
-7 -3 -11 -12z"/>
<path d="M5888 4533 c7 -3 16 -2 19 1 4 3 -2 6 -13 5 -11 0 -14 -3 -6 -6z"/>
<path d="M6948 4533 c7 -3 16 -2 19 1 4 3 -2 6 -13 5 -11 0 -14 -3 -6 -6z"/>
<path d="M8445 4530 c-3 -5 -3 -14 0 -20 8 -12 32 -13 39 -1 4 5 -3 7 -14 4
-11 -3 -20 -1 -20 5 0 6 10 13 23 15 22 4 22 4 0 6 -12 0 -25 -3 -28 -9z"/>
<path d="M3586 4505 c-9 -26 -7 -32 5 -12 6 10 9 21 6 23 -2 3 -7 -2 -11 -11z"/>
<path d="M4988 4508 c6 -6 18 -8 28 -6 14 3 12 5 -9 10 -19 3 -25 2 -19 -4z"/>
<path d="M6180 4510 c-23 -7 -23 -8 -3 -9 12 -1 25 4 28 9 3 6 5 10 3 9 -2 -1
-14 -5 -28 -9z"/>
<path d="M7910 4500 c0 -11 -5 -20 -12 -20 -6 0 -8 -3 -4 -7 4 -5 14 1 22 11
16 23 18 36 4 36 -5 0 -10 -9 -10 -20z"/>
<path d="M8390 4509 c0 -5 5 -7 10 -4 6 3 10 8 10 11 0 2 -4 4 -10 4 -5 0 -10
-5 -10 -11z"/>
<path d="M8770 4510 c-23 -7 -23 -8 -3 -9 12 -1 25 4 28 9 3 6 5 10 3 9 -2 -1
-14 -5 -28 -9z"/>
<path d="M6103 4503 c9 -2 23 -2 30 0 6 3 -1 5 -18 5 -16 0 -22 -2 -12 -5z"/>
<path d="M4043 4483 c9 -2 25 -2 35 0 9 3 1 5 -18 5 -19 0 -27 -2 -17 -5z"/>
<path d="M3375 4368 c-3 -7 -4 -456 -3 -998 l3 -985 3195 0 3195 0 0 995 0
995 -3193 3 c-2549 2 -3194 0 -3197 -10z m6365 -988 l0 -970 -3170 0 -3170 0
0 970 0 970 3170 0 3170 0 0 -970z"/>
<path d="M9675 2528 l-40 -43 43 40 c39 36 47 45 39 45 -2 0 -21 -19 -42 -42z"/>
<path d="M9694 2508 l-19 -23 23 19 c21 18 27 26 19 26 -2 0 -12 -10 -23 -22z"/>
<path d="M3462 2243 c12 -3 18 -18 21 -51 l3 -47 2 47 c2 35 6 48 20 51 9 3
-1 5 -23 5 -22 0 -32 -2 -23 -5z"/>
<path d="M3633 2200 c0 -30 2 -43 4 -27 2 15 2 39 0 55 -2 15 -4 2 -4 -28z"/>
<path d="M6660 2200 c0 -48 1 -50 28 -49 23 2 24 2 5 6 -14 3 -23 12 -23 23 0
11 9 20 23 23 l22 4 -22 2 c-13 0 -23 7 -23 15 0 8 10 17 23 19 19 4 18 4 -5
6 -27 1 -28 -1 -28 -49z"/>
<path d="M3578 2227 c-8 -22 7 -70 22 -75 12 -4 13 -2 3 9 -15 15 -17 46 -4
51 5 2 3 8 -4 15 -10 9 -14 9 -17 0z"/>
<path d="M7218 2227 c-8 -22 7 -70 22 -75 12 -4 13 -2 3 9 -15 15 -17 46 -4
51 5 2 3 8 -4 15 -10 9 -14 9 -17 0z"/>
<path d="M3543 2185 c0 -22 2 -30 4 -17 2 12 2 30 0 40 -3 9 -5 -1 -4 -23z"/>
<path d="M3672 2211 c-23 -14 -10 -56 18 -58 l25 -3 -25 12 -25 12 28 4 c29 4
33 12 15 30 -14 14 -19 15 -36 3z m33 -11 c3 -5 -3 -10 -15 -10 -12 0 -18 5
-15 10 3 6 10 10 15 10 5 0 12 -4 15 -10z"/>
<path d="M6732 2201 c9 -15 9 -23 -1 -35 -8 -9 -9 -16 -3 -16 6 0 12 6 15 13
3 9 8 8 23 -3 17 -14 18 -14 6 2 -10 13 -11 22 -2 40 10 22 10 22 -4 4 -14
-17 -16 -17 -22 -3 -3 10 -10 17 -15 17 -5 0 -4 -9 3 -19z"/>
<path d="M6801 2166 c1 -31 4 -43 7 -31 4 11 16 20 27 20 16 0 20 7 20 30 0
26 -4 30 -27 31 -27 1 -28 -1 -27 -50z m46 28 c8 -21 -13 -42 -28 -27 -13 13
-5 43 11 43 6 0 13 -7 17 -16z"/>
<path d="M6883 2185 c0 -22 2 -30 4 -17 2 12 2 30 0 40 -3 9 -5 -1 -4 -23z"/>
<path d="M6921 2180 c1 -27 3 -29 6 -10 2 14 11 30 20 37 13 10 13 12 -6 10
-17 -1 -21 -7 -20 -37z"/>
<path d="M6970 2205 c-16 -19 -3 -49 21 -51 9 -1 10 0 2 3 -21 7 -15 23 8 23
14 0 19 5 17 17 -4 24 -32 28 -48 8z m40 -5 c0 -5 -7 -10 -15 -10 -8 0 -15 5
-15 10 0 6 7 10 15 10 8 0 15 -4 15 -10z"/>
<path d="M7044 2208 c-4 -6 0 -16 9 -23 22 -16 21 -22 0 -29 -14 -4 -14 -4 2
-3 24 3 34 37 11 37 -22 0 -20 17 2 23 15 4 15 5 0 6 -9 0 -20 -4 -24 -11z"/>
<path d="M7163 2214 c23 -7 22 -20 -3 -27 -25 -6 -27 -37 -2 -36 10 0 12 3 5
6 -18 7 -16 23 1 23 8 0 17 -8 20 -17 2 -10 4 -2 3 17 -2 27 -7 35 -22 37 -16
1 -16 1 -2 -3z"/>
<path d="M6910 1871 c0 -14 -5 -18 -19 -14 -10 3 -21 1 -24 -4 -3 -5 4 -9 16
-9 16 1 22 -5 22 -19 0 -14 -6 -20 -22 -19 -12 0 -20 -3 -17 -8 3 -4 16 -7 29
-6 23 2 25 7 25 50 0 26 -2 48 -5 48 -3 0 -5 -9 -5 -19z"/>
<path d="M7295 1879 c-4 -6 -5 -12 -2 -15 2 -3 7 2 10 11 7 17 1 20 -8 4z"/>
<path d="M6779 1844 c-9 -11 -10 -20 -2 -32 13 -21 45 -22 50 -2 4 12 3 13 -5
1 -13 -19 -44 -6 -40 16 2 11 12 18 25 17 12 0 20 3 17 8 -8 13 -31 9 -45 -8z"/>
<path d="M6966 1845 c-9 -26 -7 -32 5 -12 6 10 9 21 6 23 -2 3 -7 -2 -11 -11z"/>
<path d="M7023 1825 c0 -22 2 -30 4 -17 2 12 2 30 0 40 -3 9 -5 -1 -4 -23z"/>
<path d="M7047 1853 c6 -4 13 -22 16 -38 4 -27 5 -27 3 4 0 21 -7 36 -16 38
-10 3 -11 2 -3 -4z"/>
<path d="M7087 1853 c6 -4 13 -22 16 -38 4 -27 5 -27 3 4 0 21 -7 36 -16 38
-10 3 -11 2 -3 -4z"/>
<path d="M7143 1825 c0 -22 2 -30 4 -17 2 12 2 30 0 40 -3 9 -5 -1 -4 -23z"/>
<path d="M7167 1853 c6 -4 13 -22 16 -38 4 -27 5 -27 3 4 0 21 -7 36 -16 38
-10 3 -11 2 -3 -4z"/>
<path d="M7207 1853 c6 -4 13 -22 16 -38 4 -27 5 -27 3 4 0 21 -7 36 -16 38
-10 3 -11 2 -3 -4z"/>
<path d="M7353 1854 c23 -7 22 -20 -3 -27 -25 -6 -27 -37 -2 -36 10 0 12 3 5
6 -18 7 -16 23 1 23 8 0 17 -8 20 -17 2 -10 4 -2 3 17 -2 27 -7 35 -22 37 -16
1 -16 1 -2 -3z"/>
<path d="M7423 1854 c23 -7 22 -20 -3 -27 -25 -6 -27 -37 -2 -36 10 0 12 3 5
6 -18 7 -16 23 1 23 8 0 17 -8 20 -17 2 -10 4 -2 3 17 -2 27 -7 35 -22 37 -16
1 -16 1 -2 -3z"/>
<path d="M7493 1854 c23 -7 22 -20 -3 -27 -30 -8 -25 -37 6 -37 23 0 25 3 22
32 -2 24 -8 33 -23 35 -16 1 -16 1 -2 -3z m17 -44 c0 -5 -7 -10 -15 -10 -8 0
-15 5 -15 10 0 6 7 10 15 10 8 0 15 -4 15 -10z"/>
<path d="M7563 1854 c23 -7 22 -20 -3 -27 -30 -8 -25 -37 6 -37 23 0 25 3 22
32 -2 24 -8 33 -23 35 -16 1 -16 1 -2 -3z m17 -44 c0 -5 -7 -10 -15 -10 -8 0
-15 5 -15 10 0 6 7 10 15 10 8 0 15 -4 15 -10z"/>
<path d="M6946 1795 c-9 -26 -7 -32 5 -12 6 10 9 21 6 23 -2 3 -7 -2 -11 -11z"/>
<path d="M3464 228 c9 -12 16 -35 16 -50 0 -39 17 -35 22 5 3 17 8 41 12 52 5
15 3 14 -5 -2 -15 -28 -26 -29 -34 -3 -3 11 -11 20 -16 20 -6 0 -3 -10 5 -22z"/>
<path d="M3791 236 c-9 -11 -8 -17 3 -29 9 -8 21 -17 28 -19 19 -7 -2 -30 -23
-25 -11 3 -17 1 -13 -4 9 -15 44 -10 51 8 4 10 -2 23 -15 34 -27 21 -28 36 -4
42 14 4 14 5 1 6 -9 0 -22 -5 -28 -13z"/>
<path d="M3863 233 c-4 -10 2 -23 15 -34 28 -22 28 -39 0 -40 -18 -1 -19 -2
-5 -6 41 -11 57 39 16 52 -26 8 -24 24 4 35 l22 9 -23 0 c-12 1 -25 -6 -29
-16z"/>
<path d="M3943 200 c0 -30 2 -43 4 -27 3 21 10 27 28 27 18 0 25 -6 28 -27 2
-16 4 -3 4 27 0 30 -2 45 -4 33 -3 -16 -11 -23 -28 -23 -17 0 -25 7 -28 23 -2
12 -4 -3 -4 -33z"/>
<path d="M4083 200 c0 -30 1 -47 4 -37 5 18 5 18 25 0 21 -18 21 -18 9 5 -10
19 -10 27 1 40 10 13 8 13 -9 -1 -21 -19 -22 -19 -26 15 -2 20 -4 11 -4 -22z"/>
<path d="M4406 234 c-8 -22 -7 -76 2 -91 4 -6 7 15 7 48 0 32 -1 59 -1 59 -1
0 -5 -7 -8 -16z"/>
<path d="M4458 243 c26 -5 26 -2 6 -48 -8 -20 -13 -40 -10 -43 3 -2 8 4 11 14
4 10 13 34 21 52 l14 32 -33 -1 c-23 -1 -26 -3 -9 -6z"/>
<path d="M4522 223 c10 -26 10 -40 0 -65 -10 -30 -10 -31 3 -14 8 11 15 32 15
46 0 14 -7 35 -15 46 -13 17 -13 16 -3 -13z"/>
<path d="M3542 211 c-20 -12 -11 -55 12 -59 27 -6 48 25 35 49 -10 20 -26 24
-47 10z m35 -17 c8 -21 -13 -42 -28 -27 -13 13 -5 43 11 43 6 0 13 -7 17 -16z"/>
<path d="M3613 190 c2 -31 5 -35 30 -36 25 -1 27 2 26 35 -1 36 -1 36 -8 6 -3
-17 -13 -30 -21 -30 -8 0 -18 13 -22 30 -6 29 -6 29 -5 -5z"/>
<path d="M3703 185 c0 -22 2 -30 4 -17 2 12 2 30 0 40 -3 9 -5 -1 -4 -23z"/>
<path d="M4154 206 c-11 -28 1 -51 26 -53 l25 -3 -25 12 -25 12 28 4 c29 4 33
12 15 30 -16 16 -37 15 -44 -2z m41 -6 c3 -5 -3 -10 -15 -10 -12 0 -18 5 -15
10 3 6 10 10 15 10 5 0 12 -4 15 -10z"/>
<path d="M4227 202 c2 -8 6 -25 9 -39 4 -16 2 -28 -7 -34 -11 -7 -11 -9 -1 -9
14 0 58 88 48 97 -3 3 -8 -6 -12 -21 -8 -32 -17 -33 -30 -3 -6 12 -9 16 -7 9z"/>
<path d="M4294 208 c-4 -6 0 -16 9 -23 22 -16 21 -22 0 -28 -14 -4 -13 -5 4
-6 30 -1 40 19 17 36 -16 12 -17 15 -4 23 13 8 13 10 -2 10 -9 0 -20 -5 -24
-12z"/>
</g>
</svg>
